/* XPM */
static char * benzene_xpm[] = {
"76 85 256 2",
"  	c #FFFBF0",
". 	c #FFFFFF",
"+ 	c #000000",
"@ 	c #C0DCC0",
"# 	c #202040",
"$ 	c #608080",
"% 	c #404040",
"& 	c #A0A0A4",
"* 	c #C0C0C0",
"= 	c #808080",
"- 	c #606080",
"; 	c #A0C0C0",
"> 	c #80A080",
", 	c #402040",
"' 	c #402000",
") 	c #604040",
"! 	c #406040",
"~ 	c #606040",
"{ 	c #806080",
"] 	c #A0A080",
"^ 	c #A08080",
"/ 	c #C0A0C0",
"( 	c #12004F",
"_ 	c #3BD477",
": 	c #9CEA12",
"< 	c #00333B",
"[ 	c #D477B0",
"} 	c #4CD600",
"| 	c #C866DF",
"1 	c #00F300",
"2 	c #100092",
"3 	c #40D477",
"4 	c #000000",
"5 	c #000100",
"6 	c #000014",
"7 	c #000000",
"8 	c #010000",
"9 	c #000000",
"0 	c #000000",
"a 	c #000000",
"b 	c #100000",
"c 	c #000000",
"d 	c #000000",
"e 	c #000000",
"f 	c #84EA12",
"g 	c #006A7D",
"h 	c #D477E4",
"i 	c #EB1200",
"j 	c #6439D7",
"k 	c #77E09B",
"l 	c #D977FF",
"m 	c #FFFFFF",
"n 	c #333BD4",
"o 	c #775B83",
"p 	c #D47700",
"q 	c #000000",
"r 	c #29EE34",
"s 	c #771407",
"t 	c #050005",
"u 	c #000000",
"v 	c #000000",
"w 	c #00F300",
"x 	c #1000DC",
"y 	c #66DF00",
"z 	c #010000",
"A 	c #001407",
"B 	c #0500FF",
"C 	c #FFFFFF",
"D 	c #470000",
"E 	c #001407",
"F 	c #050000",
"G 	c #000000",
"H 	c #000000",
"I 	c #00F300",
"J 	c #000010",
"K 	c #000000",
"L 	c #18A900",
"M 	c #00E4EB",
"N 	c #120064",
"O 	c #39D777",
"P 	c #94EB12",
"Q 	c #00DD58",
"R 	c #D47714",
"S 	c #070500",
"T 	c #470000",
"U 	c #001407",
"V 	c #050000",
"W 	c #000000",
"X 	c #000000",
"Y 	c #00111B",
"Z 	c #D75A14",
"` 	c #070500",
" .	c #FFFFFF",
"..	c #FFC866",
"+.	c #DF006C",
"@.	c #EB1200",
"#.	c #1F3CD4",
"$.	c #77C866",
"%.	c #DF00EC",
"&.	c #FFFFFF",
"*.	c #000000",
"=.	c #00FFFF",
"-.	c #FFFF00",
";.	c #000000",
">.	c #A4EB12",
",.	c #00BD40",
"'.	c #D477C8",
").	c #66DF00",
"!.	c #ECFFFF",
"~.	c #FFC640",
"{.	c #D477FF",
"].	c #FFFFFF",
"^.	c #000000",
"/.	c #001407",
"(.	c #050080",
"_.	c #EB1200",
":.	c #000000",
"<.	c #00ACEC",
"[.	c #120064",
"}.	c #39D777",
"|.	c #809BD9",
"1.	c #77FFFF",
"2.	c #FFFFC6",
"3.	c #40D477",
"4.	c #4E39D7",
"5.	c #5A1407",
"6.	c #0500EC",
"7.	c #FFFFFF",
"8.	c #FFFFFF",
"9.	c #FF0000",
"0.	c #000014",
"a.	c #070500",
"b.	c #D8EB12",
"c.	c #001D39",
"d.	c #D75A14",
"e.	c #070500",
"f.	c #E0EB12",
"g.	c #00D4EB",
"h.	c #120000",
"i.	c #000000",
"j.	c #F4EB12",
"k.	c #007839",
"l.	c #D75A00",
"m.	c #000000",
"n.	c #000000",
"o.	c #009139",
"p.	c #D75A14",
"q.	c #070500",
"r.	c #3F0000",
"s.	c #0050EC",
"t.	c #12003D",
"u.	c #32D75A",
"v.	c #140705",
"w.	c #004700",
"x.	c #000000",
"y.	c #000000",
"z.	c #29EE34",
"A.	c #77A0EC",
"B.	c #120054",
"C.	c #ED1200",
"D.	c #29EE34",
"E.	c #770000",
"F.	c #000029",
"G.	c #EE3477",
"H.	c #88EC12",
"I.	c #001F3B",
"J.	c #D47754",
"K.	c #EC1200",
"L.	c #503AD4",
"M.	c #771407",
"N.	c #050047",
"O.	c #000000",
"P.	c #000000",
"Q.	c #0054ED",
"R.	c #120000",
"S.	c #000000",
"T.	c #CDABBA",
"U.	c #DC0000",
"V.	c #000000",
"W.	c #000000",
"X.	c #BCEC12",
"Y.	c #000DA9",
"Z.	c #D477FF",
"`.	c #FFFFFF",
" +	c #00E0FD",
".+	c #7FBCEC",
"++	c #12004F",
"@+	c #3BD477",
"#+	c #88EC12",
"$+	c #00333B",
"%+	c #D47700",
"&+	c #000000",
"*+	c #140705",
"=+	c #001407",
"-+	c #050000",
";+	c #000000",
">+	c #010000",
",+	c #000100",
"'+	c #000014",
")+	c #000000",
"!+	c #010000",
"~+	c #000000",
"{+	c #000000",
"]+	c #000000",
"^+	c #100000",
"/+	c #000000",
"(+	c #000000",
"_+	c #000000",
":+	c #70EC12",
"<+	c #00DC66",
"[+	c #DF0000",
"}+	c #ED1200",
"|+	c #6439D7",
"1+	c #77E09B",
"2+	c #D977FF",
"3+	c #FFFFFF",
"4+	c #333BD4",
"5+	c #77F544",
"6+	c #D47700",
"7+	c #000000",
"8+	c #29EE34",
"9+	c #771407",
"0+	c #050047",
"a+	c #000000",
"b+	c #000000",
"c+	c #0054ED",
"d+	c #1200DC",
"e+	c #66DF00",
"f+	c #0045D4",
"g+	c #7724EF",
"h+	c #120000",
"i+	c #000200",
"j+	c #140705",
"k+	c #006F79",
"l+	c #D47700",
"m+	c #000000",
"n+	c #E4EC12",
"o+	c #005000",
"p+	c #000058",
"q+	c #EE1200",
"r+	c #6439D7",
"s+	c #77709B",
"t+	c #D977FF",
"u+	c #FFFFFF",
"v+	c #0045D4",
"w+	c #777382",
"x+	c #D477C8",
"y+	c #66DF00",
"z+	c #470000",
"A+	c #000000",
"B+	c #000083",
"C+	c #82D477",
"D+	c #000000",
"E+	c #000000",
"F+	c #000000",
"G+	c #000000",
"* * * * * * * * * * * * * * * * * * * * * * * * * * * * * * * * * * * * * * * * * * * * * * * * * * * * * * * * * * * * * * * * * * * * * * * * * * * * ",
"* * * * * * * * * * * * * * * * * * * * * * * * * * * * * * * * * * * * @ * * * * * * * * * * * * * * * * * * * * * * * * * * * * * * * * * * * * * * * ",
"* * * * * * * * * * * * * * * * * * * * * * * * * * * * * * * * * * + + + + @ * * * * * * * * * * * * * * * * * * * * * * * * * * * * * * * * * * * * * ",
"* * * * * * * * * * * * * * * * * * * * * * * * * * * * * * * * + + + + + + + + * * * * * * * * * * * * * * * * * * * * * * * * * * * * * * * * * * * * ",
"* * * * * * * * * * * * * * * * * * * * * * * * * * * * * * * + + + & * * + + + + = * * * * * * * * * * * * * * * * * * * * * * * * * * * * * * * * * * ",
"* * * * * * * * * * * * * * * * * * * * * * * * * * * * * + + + + * * * * * * + + + + & * * * * * * * * * * * * * * * * * * * * * * * * * * * * * * * * ",
"* * * * * * * * * * * * * * * * * * * * * * * * * * * + + + + * * * * * * * * * * + + + + * * * * * * * * * * * * * * * * * * * * * * * * * * * * * * * ",
"* * * * * * * * * * * * * * * * * * * * * * * * * + + + + * * * * * * * * * * * * * + + + + % * * * * * * * * * * * * * * * * * * * * * * * * * * * * * ",
"* * * * * * * * * * * * * * * * * * * * * * * * + + + + * * * * * * * * * * * * * * * * + + + + & * * * * * * * * * * * * * * * * * * * * * * * * * * * ",
"* * * * * * * * * * * * * * * * * * * * * * + + + + * * * * * * * * * * * * * * * * * * * * + + + + @ * * * * * * * * * * * * * * * * * * * * * * * * * ",
"* * * * * * * * * * * * * * * * * * * * + + + + * * * * * * * * * * * * * + * * * * * * * * * * + + + + * * * * * * * * * * * * * * * * * * * * * * * * ",
"* * * * * * * * * * * * * * * * * * * + + + + * * * * * * * * * * * * * * + + + * * * * * * * * * + + + + = * * * * * * * * * * * * * * * * * * * * * * ",
"* * * * * * * * * * * * * * * * * + + + + * * * * * * * * * * * * * * * * * + + + * * * * * * * * * * + + + + ; * * * * * * * * * * * * * * * * * * * * ",
"* * * * * * * * * * * * * * * + + + + @ * * * * * * * * * * * * * * * * * * * + + + + * * * * * * * * * * + + + + @ * * * * * * * * * * * * * * * * * * ",
"* * * * * * * * * * * * * * + + + + * * * * * * * * * * * * * * * * * * * * * * * + + + + * * * * * * * * * + + + + % * * * * * * * * * * * * * * * * * ",
"* * * * * * * * * * * * + + + + * * * * * * * * * * * * * * * * * * * * * * * * * * * + + + + * * * * * * * * * + + + + > * * * * * * * * * * * * * * * ",
"* * * * * * * * * * + + + + * * * * * * * * * * * * * * * * * * * * * * * * * * * * * * + + + + * * * * * * * * * * + + + + * * * * * * * * * * * * * * ",
"* * * * * * * * * + + + + * * * * * * * * * * * * * * * * * * * * * * * * * * * * * * * * * + + + + * * * * * * * * * * + + + % * * * * * * * * * * * * ",
"* * * * * * * + + + + * * * * * * * * * * * * * * * * * * * * * * * * * * * * * * * * * * * * * + + + + * * * * * * * * * + + + + $ * * * * * * * * * * ",
"* * * * * + + + + * * * * * * * * * * * * * * * * * * * * * * * * * * * * * * * * * * * * * * * * + + + + * * * * * * * * * * + + + + & * * * * * * * * ",
"* * * * + + + + * * * * * * * * * * * * * * * * * * * * * * * * * * * * * * * * * * * * * * * * * * * + + + + * * * * * * * * * * + + + + @ * * * * * * ",
"* * + + + + * * * * * * * * * * * * * * * * * * * * * * * * * * * * * * * * * * * * * * * * * * * * * * * + + + + * * * * * * * * * + + + + ! * * * * * ",
"* + + + * * * * * * * * * * * * * * * * * * * * * * * * * * * * * * * * * * * * * * * * * * * * * * * * * * + + + + * * * * * * * * * * + + + - * * * * ",
"* + + + * * * * * * * * * * * * * * * * * * * * * * * * * * * * * * * * * * * * * * * * * * * * * * * * * * * * + + + + * * * * * * * * * * + + * * * * ",
"* + + + * * * * * * * * * * * * * * * * * * * * * * * * * * * * * * * * * * * * * * * * * * * * * * * * * * * * * * + + + + * * * * * * * * + + * * * * ",
"* + + + * * * * * * * * * * * * * * * * * * * * * * * * * * * * * * * * * * * * * * * * * * * * * * * * * * * * * * * + + + * * * * @ * * * + + * * * * ",
"* + + + * * * * * + * * * * * * * * * * * * * * * * * * * * * * * * * * * * * * * * * * * * * * * * * * * * * * * * * * * * * * * * * * * * + + * * * * ",
"* + + + * * * * * + + * * * * * * * * * * * * * * * * * * * * * * * * * * * * * * * * * * * * * * * * * * * * * * * * * * * * * * * * * * * + + * * * * ",
"* + + + * * * * * + + * * * * * * * * * * * * * * * * * * * * * * * * * * * * * * * * * * * * * * * * * * * * * * * * * * * * * * * * * * * + + * * * * ",
"* + + + * * * * * + + * * * * * * * * * * * * * * * * * * * * * * * * * * * * * * * * * * * * * * * * * * * * * * * * * * * * * * * * * * * + + * * * * ",
"* + + + * * * * * + + * * * * * * * * * * * * * * * * * * * * * * * * * * * * * * * * * * * * * * * * * * * * * * * * * * * * * * * * * * * + + * * * * ",
"* + + + * * * * * + + * * * * * * * * * * * * * * * * * * * * * * * * * * * * * * * * * * * * * * * * * * * * * * * * * * * * * * * * * * * + + * * * * ",
"* + + + * * * * * + + * * * * * * * * * * * * * * * * * * * * * * * * * * * * * * * * * * * * * * * * * * * * * * * * * * * * * * * * * * * + + * * * * ",
"* + + + * * * * * + + * * * * * * * * * * * * * * * * * * * * * * * * * * * * * * * * * * * * * * * * * * * * * * * * * * * * * * * * * * * + + * * * * ",
"* + + + * * * * * + + * * * * * * * * * * * * * * * * * * * * * * * * * * * * * * * * * * * * * * * * * * * * * * * * * * * * * * * * * * * + + * * * * ",
"* + + + * * * * * + + * * * * * * * * * * * * * * * * * * * * * * * * * * * * * * * * * * * * * * * * * * * * * * * * * * * * * * * * * * * + + * * * * ",
"* + + + * * * * * + + * * * * * * * * * * * * * * * * * * * * * * * * * * * * * * * * * * * * * * * * * * * * * * * * * * * * * * * * * * * + + * * * * ",
"* + + + * * * * * + + * * * * * * * * * * * * * * * * * * * * * * * * * * * * * * * * * * * * * * * * * * * * * * * * * * * * * * * * * * * + + * * * * ",
"* + + + * * * * * + + * * * * * * * * * * * * * * * * * * * * * * * * * * * * * * * * * * * * * * * * * * * * * * * * * * * * * * * * * * * + + * * * * ",
"* + + + * * * * * + + * * * * * * * * * * * * * * * * * * * * * * * * * * * * * * * * * * * * * * * * * * * * * * * * * * * * * * * * * * * + + * * * * ",
"* + + + * * * * * + + * * * * * * * * * * * * * * * * * * * * * * * * * * * * * * * * * * * * * * * * * * * * * * * * * * * * * * * * * * * + + * * * * ",
"* + + + * * * * * + + * * * * * * * * * * * * * * * * * * * * * * * * * * * * * * * * * * * * * * * * * * * * * * * * * * * * * * * * * * * + + * * * * ",
"* + + + * * * * * + + * * * * * * * * * * * * * * * * * * * * * * * * * * * * * * * * * * * * * * * * * * * * * * * * * * * * * * * * * * * + + * * * * ",
"* + + + * * * * * + + * * * * * * * * * * * * * * * * * * * * * * * * * * * * * * * * * * * * * * * * * * * * * * * * * * * * * * * * * * * + + * * * * ",
"* + + + * * * * * + + * * * * * * * * * * * * * * * * * * * * * * * * * * * * * * * * * * * * * * * * * * * * * * * * * * * * * * * * * * * + + * * * * ",
"* + + + * * * * * + + * * * * * * * * * * * * * * * * * * * * * * * * * * * * * * * * * * * * * * * * * * * * * * * * * * * * * * * * * * * + + * * * * ",
"* + + + * * * * * + + * * * * * * * * * * * * * * * * * * * * * * * * * * * * * * * * * * * * * * * * * * * * * * * * * * * * * * * * * * * + + * * * * ",
"* + + + * * * * * + + * * * * * * * * * * * * * * * * * * * * * * * * * * * * * * * * * * * * * * * * * * * * * * * * * * * * * * * * * * * + + * * * * ",
"* + + + * * * * * + + * * * * * * * * * * * * * * * * * * * * * * * * * * * * * * * * * * * * * * * * * * * * * * * * * * * * * * * * * * * + + * * * * ",
"* + + + * * * * * + + * * * * * * * * * * * * * * * * * * * * * * * * * * * * * * * * * * * * * * * * * * * * * * * * * * * * * * * * * * * + + * * * * ",
"* + + + * * * * * + + * * * * * * * * * * * * * * * * * * * * * * * * * * * * * * * * * * * * * * * * * * * * * * * * * * * * * * * * * * * + + * * * * ",
"* + + + * * * * * + + * * * * * * * * * * * * * * * * * * * * * * * * * * * * * * * * * * * * * * * * * * * * * * * * * * * * * * * * * * * + + * * * * ",
"* + + + * * * * * + + * * * * * * * * * * * * * * * * * * * * * * * * * * * * * * * * * * * * * * * * * * * * * * * * * * * * * * * * * * * + + * * * * ",
"* + + + * * * * * + + * * * * * * * * * * * * * * * * * * * * * * * * * * * * * * * * * * * * * * * * * * * * * * * * * * * * * * * * * * * + + * * * * ",
"* + + + * * * * * + + * * * * * * * * * * * * * * * * * * * * * * * * * * * * * * * * * * * * * * * * * * * * * * * * * * * * * * * * * * * + + * * * * ",
"* + + + * * * * * + + * * * * * * * * * * * * * * * * * * * * * * * * * * * * * * * * * * * * * * * * * * * * * * * * * * * * * * * * * * * + + * * * * ",
"* + + + * * * * * + + * * * * * * * * * * * * * * * * * * * * * * * * * * * * * * * * * * * * * * * * * * * * * * * * * * * * * * * * * * * + + * * * * ",
"* + + + * * * * * + + * * * * * * * * * * * * * * * * * * * * * * * * * * * * * * * * * * * * * * * * * * * * * * * * + + + * * * * * * * * + + * * * * ",
"* + + + * * * * * + + * * * * * * * * * * * * * * * * * * * * * * * * * * * * * * * * * * * * * * * * * * * * * * * + + + * * * * * * * * * + + * * * * ",
"* + + + * * * * * * * * * * * * * * * * * * * * * * * * * * * * * * * * * * * * * * * * * * * * * * * * * * * * + + + + * * * * * * * * * * + + * * * * ",
"* + + + * * * * * * * * * * * * * * * * * * * * * * * * * * * * * * * * * * * * * * * * * * * * * * * * * * + + + + * * * * * * * * * * * * + + * * * * ",
"* + + + * * * * * * * * * * * * * * * * * * * * * * * * * * * * * * * * * * * * * * * * * * * * * * * * * + + + + * * * * * * * * * * * * * + + * * * * ",
"* + + + * * * * * * * * * * * * * * * * * * * * * * * * * * * * * * * * * * * * * * * * * * * * * * * + + + + * * * * * * * * * * * * * * + + + * * * * ",
"* @ # + + + * * * * * * * * * * * * * * * * * * * * * * * * * * * * * * * * * * * * * * * * * * * * + + + * * * * * * * * * * * * * * * + + + * * * * * ",
"* * * & + + + + * * * * * * * * * * * * * * * * * * * * * * * * * * * * * * * * * * * * * * * * + + + + * * * * * * * * * * * * * * + + + + * * * * * * ",
"* * * * * + + + + * * * * * * * * * * * * * * * * * * * * * * * * * * * * * * * * * * * * * + + + + * * * * * * * * * * * * * * + + + + * * * * * * * * ",
"* * * * * * * + + + + * * * * * * * * * * * * * * * * * * * * * * * * * * * * * * * * * * + + + + * * * * * * * * * * * * * * + + + @ * * * * * * * * * ",
"* * * * * * * * @ + + + + * * * * * * * * * * * * * * * * * * * * * * * * * * * * * * + + + + * * * * * * * * * * * * * * + + + + * * * * * * * * * * * ",
"* * * * * * * * * * ^ + + + + * * * * * * * * * * * * * * * * * * * * * * * * * * * + + + * * * * * * * * * * * * * * + + + + * * * * * * * * * * * * * ",
"* * * * * * * * * * * * + + + + + * * * * * * * * * * * * * * * * * * * * * * * + + + + * * * * * * * * * * * * * + + + + * * * * * * * * * * * * * * * ",
"* * * * * * * * * * * * * @ + + + + * * * * * * * * * * * * * * * * * * * * * + + + * * * * * * * * * * * * * * + + + + * * * * * * * * * * * * * * * * ",
"* * * * * * * * * * * * * * * * + + + + * * * * * * * * * * * * * * * * * * + + + * * * * * * * * * * * * * + + + + * * * * * * * * * * * * * * * * * * ",
"* * * * * * * * * * * * * * * * * = + + + + * * * * * * * * * * * * * * * * + * * * * * * * * * * * * * + + + + * * * * * * * * * * * * * * * * * * * * ",
"* * * * * * * * * * * * * * * * * * * + + + + + * * * * * * * * * * * * * * * * * * * * * * * * * * * + + + + * * * * * * * * * * * * * * * * * * * * * ",
"* * * * * * * * * * * * * * * * * * * * @ + + + + * * * * * * * * * * * * * * * * * * * * * * * * + + + + * * * * * * * * * * * * * * * * * * * * * * * ",
"* * * * * * * * * * * * * * * * * * * * * * & + + + + * * * * * * * * * * * * * * * * * * * * + + + + * * * * * * * * * * * * * * * * * * * * * * * * * ",
"* * * * * * * * * * * * * * * * * * * * * * * * ~ + + + + * * * * * * * * * * * * * * * * + + + + * * * * * * * * * * * * * * * * * * * * * * * * * * * ",
"* * * * * * * * * * * * * * * * * * * * * * * * * * # + + + + * * * * * * * * * * * * * + + + + * * * * * * * * * * * * * * * * * * * * * * * * * * * * ",
"* * * * * * * * * * * * * * * * * * * * * * * * * * * * + + + + + * * * * * * * * * + + + + * * * * * * * * * * * * * * * * * * * * * * * * * * * * * * ",
"* * * * * * * * * * * * * * * * * * * * * * * * * * * * * ] + + + + * * * * * * + + + + * * * * * * * * * * * * * * * * * * * * * * * * * * * * * * * * ",
"* * * * * * * * * * * * * * * * * * * * * * * * * * * * * * * % + + + + * * * + + + + * * * * * * * * * * * * * * * * * * * * * * * * * * * * * * * * * ",
"* * * * * * * * * * * * * * * * * * * * * * * * * * * * * * * * @ + + + + + + + + * * * * * * * * * * * * * * * * * * * * * * * * * * * * * * * * * * * ",
"* * * * * * * * * * * * * * * * * * * * * * * * * * * * * * * * * * / + + + + * * * * * * * * * * * * * * * * * * * * * * * * * * * * * * * * * * * * * ",
"* * * * * * * * * * * * * * * * * * * * * * * * * * * * * * * * * * * * = * * * * * * * * * * * * * * * * * * * * * * * * * * * * * * * * * * * * * * * ",
"* * * * * * * * * * * * * * * * * * * * * * * * * * * * * * * * * * * * * * * * * * * * * * * * * * * * * * * * * * * * * * * * * * * * * * * * * * * * "};
