/* XPM */
static char * ring_six_xpm[] = {
"32 32 119 2",
"  	c #FFFFFF",
". 	c #FAFAFA",
"+ 	c #F8F8F8",
"@ 	c #FBFBFB",
"# 	c #FEFEFE",
"$ 	c #F7F7F7",
"% 	c #FCFCFC",
"& 	c #FDFDFD",
"* 	c #D5D5D5",
"= 	c #A8A8A8",
"- 	c #AFAFAF",
"; 	c #F9F9F9",
"> 	c #BBBBBB",
", 	c #505050",
"' 	c #2B2B2B",
") 	c #333333",
"! 	c #2E2E2E",
"~ 	c #909090",
"{ 	c #E8E8E8",
"] 	c #CFCFCF",
"^ 	c #737373",
"/ 	c #1A1A1A",
"( 	c #E6E6E6",
"_ 	c #E0E0E0",
": 	c #606060",
"< 	c #111111",
"[ 	c #484848",
"} 	c #A4A4A4",
"| 	c #F4F4F4",
"1 	c #E2E2E2",
"2 	c #878787",
"3 	c #202020",
"4 	c #7C7C7C",
"5 	c #D8D8D8",
"6 	c #A7A7A7",
"7 	c #464646",
"8 	c #0B0B0B",
"9 	c #5C5C5C",
"0 	c #B8B8B8",
"a 	c #9A9A9A",
"b 	c #404040",
"c 	c #141414",
"d 	c #686868",
"e 	c #C3C3C3",
"f 	c #EDEDED",
"g 	c #939393",
"h 	c #383838",
"i 	c #161616",
"j 	c #6A6A6A",
"k 	c #F0F0F0",
"l 	c #757575",
"m 	c #474747",
"n 	c #5B5B5B",
"o 	c #2A2A2A",
"p 	c #F5F5F5",
"q 	c #DFDFDF",
"r 	c #4A4A4A",
"s 	c #C2C2C2",
"t 	c #555555",
"u 	c #F1F1F1",
"v 	c #E7E7E7",
"w 	c #494949",
"x 	c #D7D7D7",
"y 	c #646464",
"z 	c #3D3D3D",
"A 	c #CECECE",
"B 	c #434343",
"C 	c #EAEAEA",
"D 	c #DBDBDB",
"E 	c #4E4E4E",
"F 	c #E4E4E4",
"G 	c #C6C6C6",
"H 	c #3C3C3C",
"I 	c #4B4B4B",
"J 	c #C7C7C7",
"K 	c #EBEBEB",
"L 	c #373737",
"M 	c #C0C0C0",
"N 	c #E3E3E3",
"O 	c #DCDCDC",
"P 	c #3E3E3E",
"Q 	c #B5B5B5",
"R 	c #424242",
"S 	c #E9E9E9",
"T 	c #F6F6F6",
"U 	c #D9D9D9",
"V 	c #DDDDDD",
"W 	c #B0B0B0",
"X 	c #5F5F5F",
"Y 	c #AAAAAA",
"Z 	c #4D4D4D",
"` 	c #F2F2F2",
" .	c #959595",
"..	c #3F3F3F",
"+.	c #535353",
"@.	c #818181",
"#.	c #EEEEEE",
"$.	c #999999",
"%.	c #A0A0A0",
"&.	c #969696",
"*.	c #BFBFBF",
"=.	c #292929",
"-.	c #A3A3A3",
";.	c #232323",
">.	c #C4C4C4",
",.	c #CCCCCC",
"'.	c #2F2F2F",
").	c #B7B7B7",
"!.	c #9D9D9D",
"~.	c #212121",
"{.	c #ECECEC",
"].	c #1F1F1F",
"^.	c #A1A1A1",
"/.	c #9E9E9E",
"(.	c #151515",
"_.	c #929292",
":.	c #0E0E0E",
"<.	c #8E8E8E",
"[.	c #7E7E7E",
"                          . + @ # $                             ",
"                              % . &                             ",
"                                                                ",
"                            * = - ;                             ",
"                        % > , ' ) ! ~ {                         ",
"                    ] ^ / ) ~ ( _ > : < [ } |                   ",
"              1 2 ' 3 4 5             $ 6 7 8 9 0 @             ",
"      $ * a b c d e #                       f g h i j { &       ",
"# #   k l m - ;                                   _ n o p   # & ",
"#     q r 5                                         s t u & ; + ",
"      v w x                                         0 y ; # . ; ",
"      v z A                                         0 B C   @ + ",
"      D E F                                         G H {   % ; ",
"      ( I +                                         J [ K   & ; ",
"      * L q                                         M B N   % + ",
"      O P O                                         Q R S   % T ",
"      U z O                                         s r {   & . ",
"#     V B 5                                         W I p   & @ ",
"#     q B v                                         W X .   # % ",
"# #   q , k                                         Y 7 +   # @ ",
"      5 Z `                                          .[ ;   & ; ",
"# &   D ..-                                       + +.@.#.  % T ",
"&     k $.' 3 }                               # %.c +.M &   # + ",
"          # &.i H *.                        W =.b _             ",
"              & -.;.R >.                ,.L '.).                ",
"                  @ !.~.n q         {.j ].^.&                   ",
"                      & /.(.m _.6 y :.<.%                       ",
"                          . ~ &.a [.u                           ",
"                            & ` #.&                             ",
"                                                                ",
"                            & #                                 ",
"                            @ #   #                             "};
