/* XPM */
static char * sp2_6_2_xpm[] = {
"76 85 191 2",
"  	c None",
". 	c #C0C0C0",
"+ 	c #C0DCC0",
"@ 	c #C2C2C2",
"# 	c #C1C1C1",
"$ 	c #B0B0B0",
"% 	c #000000",
"& 	c #080808",
"* 	c #C1C4C1",
"= 	c #BABABA",
"- 	c #111111",
"; 	c #949494",
"> 	c #868686",
", 	c #121212",
"' 	c #272727",
") 	c #020202",
"! 	c #2F2F2F",
"~ 	c #A6A6A6",
"{ 	c #A4A4A4",
"] 	c #404040",
"^ 	c #3F3F3F",
"/ 	c #BCBCBC",
"( 	c #B6B6B6",
"_ 	c #0F0F0F",
": 	c #717171",
"< 	c #0C0C0C",
"[ 	c #BFBFBF",
"} 	c #030303",
"| 	c #515151",
"1 	c #B3B3B3",
"2 	c #A7A7A7",
"3 	c #7E7E7E",
"4 	c #9C9C9C",
"5 	c #9D9D9D",
"6 	c #919191",
"7 	c #252525",
"8 	c #171717",
"9 	c #B5B5B6",
"0 	c #B2B2B2",
"a 	c #151515",
"b 	c #7D7D7D",
"c 	c #BEBEBE",
"d 	c #757575",
"e 	c #616161",
"f 	c #B5B5B5",
"g 	c #585858",
"h 	c #050505",
"i 	c #0E0E0E",
"j 	c #7C7C7C",
"k 	c #979797",
"l 	c #383838",
"m 	c #A5A5A5",
"n 	c #3C3C3C",
"o 	c #1D1D1D",
"p 	c #B1B1B1",
"q 	c #ADADAD",
"r 	c #1B1B1B",
"s 	c #878787",
"t 	c #8E8E8E",
"u 	c #222222",
"v 	c #606060",
"w 	c #C0C1C1",
"x 	c #090909",
"y 	c #646464",
"z 	c #2A2A2A",
"A 	c #737373",
"B 	c #BDBDBD",
"C 	c #C1C3C1",
"D 	c #8C8C8C",
"E 	c #424242",
"F 	c #AAAAAA",
"G 	c #555555",
"H 	c #909090",
"I 	c #B8B8B8",
"J 	c #363636",
"K 	c #B1B9B1",
"L 	c #6E6E6E",
"M 	c #6B6B6B",
"N 	c #141414",
"O 	c #828282",
"P 	c #8A8A8A",
"Q 	c #1F1F1F",
"R 	c #484848",
"S 	c #010101",
"T 	c #4C4C4C",
"U 	c #ACACAC",
"V 	c #3E3E3E",
"W 	c #393939",
"X 	c #A8A8A8",
"Y 	c #6D6D6D",
"Z 	c #0D0D0D",
"` 	c #5D5D5D",
" .	c #A1A1A1",
"..	c #999999",
"+.	c #888888",
"@.	c #191919",
"#.	c #070707",
"$.	c #656565",
"%.	c #869898",
"&.	c #787878",
"*.	c #959595",
"=.	c #A0A0A0",
"-.	c #343434",
";.	c #202020",
">.	c #727272",
",.	c #333333",
"'.	c #BBBBBB",
").	c #6A6A6A",
"!.	c #2C2C2C",
"~.	c #BBBDBB",
"{.	c #181818",
"].	c #4B4B4B",
"^.	c #9F9F9F",
"/.	c #4D4D4D",
"(.	c #060606",
"_.	c #5F5F5F",
":.	c #B9B9B9",
"<.	c #989898",
"[.	c #4F4F4F",
"}.	c #313131",
"|.	c #9B9B9B",
"1.	c #696969",
"2.	c #161616",
"3.	c #858585",
"4.	c #636363",
"5.	c #131313",
"6.	c #A9A9A9",
"7.	c #3B3B3B",
"8.	c #3A3A3A",
"9.	c #616F61",
"0.	c #939393",
"a.	c #494949",
"b.	c #747474",
"c.	c #9A9A9A",
"d.	c #777777",
"e.	c #626262",
"f.	c #B7B7B7",
"g.	c #9E9E9E",
"h.	c #2D2D2D",
"i.	c #767676",
"j.	c #8F8F8F",
"k.	c #666666",
"l.	c #0B0B0B",
"m.	c #676767",
"n.	c #707070",
"o.	c #797979",
"p.	c #7A7A7A",
"q.	c #808080",
"r.	c #818181",
"s.	c #838383",
"t.	c #A3A3A3",
"u.	c #242424",
"v.	c #898989",
"w.	c #454545",
"x.	c #8D8D8D",
"y.	c #232323",
"z.	c #525252",
"A.	c #2E2E2E",
"B.	c #A2A2A2",
"C.	c #565656",
"D.	c #AFAFAF",
"E.	c #3D3D3D",
"F.	c #212121",
"G.	c #434343",
"H.	c #202040",
"I.	c #353535",
"J.	c #5C5C5E",
"K.	c #040404",
"L.	c #5E5E5E",
"M.	c #505050",
"N.	c #545454",
"O.	c #869986",
"P.	c #5C4A4A",
"Q.	c #B4B4B4",
"R.	c #AEAEAE",
"S.	c #1E1E1E",
"T.	c #A7C0A7",
"U.	c #4E4E4E",
"V.	c #6C6C6C",
"W.	c #292929",
"X.	c #929292",
"Y.	c #474747",
"Z.	c #B2CCB2",
"`.	c #89898C",
" +	c #323232",
".+	c #494930",
"++	c #141429",
"@+	c #262626",
"#+	c #595959",
"$+	c #929275",
"%+	c #C0A0C0",
". . . . . . . . . . . . . . . . . . . . . . . . . . . . . . . . . . . . . . . . . . . . . . . . . . . . . . . . . . . . . . . . . . . . . . . . . . . . ",
". . . . . . . . . . . . . . . . . . . . . . . . . . . . . . . . . . . . + . @ @ # . . . . . . . . . . . . . . . . . . . . . . . . . . . . . . . . . . . ",
". . . . . . . . . . . . . . . . . . . . . . . . . . . . . . . . . $ % % % & * @ @ @ # . . . . . . . . . . . . . . . . . . . . . . . . . . . . . . . . . ",
". . . . . . . . . . . . . . . . . . . . . . . . . . . . . . . = % % % % % % - ; @ @ @ @ # . . . . . . . . . . . . . . . . . . . . . . . . . . . . . . . ",
". . . . . . . . . . . . . . . . . . . . . . . . . . . . . . > % % % % , ' % % ) ! ~ @ @ @ @ # . . . . . . . . . . . . . . . . . . . . . . . . . . . . . ",
". . . . . . . . . . . . . . . . . . . . . . . . . . . . { % % % % % % % ] % % % % % ^ / @ @ @ # . . . . . . . . . . . . . . . . . . . . . . . . . . . . ",
". . . . . . . . . . . . . . . . . . . . . . . . . . ( % % % % % % % _ : < % % % % % % ) ^ # @ @ @ # . . . . . . . . . . . . . . . . . . . . . . . . . . ",
". . . . . . . . . . . . . . . . . . . . . . . . [ % % % % % % % } | 1 . 2 ] % % % % % % % ) 3 # @ @ @ # . . . . . . . . . . . . . . . . . . . . . . . . ",
". . . . . . . . . . . . . . . . . . . . . . . 4 % % % % % % % ! 5 . . . . . 6 7 % % % % % % % 8 9 @ @ @ # . . . . . . . . . . . . . . . . . . . . . . . ",
". . . . . . . . . . . . . . . . . . . . . 0 % % % % % % % a b [ . . . . . . . c d - % % % % % % % ^ * @ @ @ # . . . . . . . . . . . . . . . . . . . . . ",
". . . . . . . . . . . . . . . . . . . c % % % % % % % } e / . . . . . . . c # # . f g h % % % % % % i j @ @ @ # . . . . . . . . . . . . . . . . . . . . ",
". . . . . . . . . . . . . . . . . . k % % % % % % % l { . . . . . . . . # @ @ @ # # . m n % % % % % % % o p @ @ @ # # . . . . . . . . . . . . . . . . . ",
". . . . . . . . . . . . . . . . q % % % % % % % r s . . . . . . . . . m = @ . @ @ @ @ . . t u % % % % % % ) v w @ @ @ # . . . . . . . . . . . . . . . . ",
". . . . . . . . . . . . . . / % % % % % % % x y = . . . . . . . . . c z < A . @ @ @ @ # # . B : _ % % % % % % - v C @ @ @ # . . . . . . . . . . . . . . ",
". . . . . . . . . . . . . D % % % % % % % E F . . . . . . . . . . . A % % % z 5 @ @ @ @ @ # . . 1 G } % % % % % % - H # @ @ @ # . . . . . . . . . . . . ",
". . . . . . . . . . . 2 % % % % % % % o ; . . . . . . . . . . . . $ < % % % % } G I @ @ @ @ @ # . . { J % % % % % % % 8 K @ @ @ @ # . . . . . . . . . . ",
". . . . . . . . . / % % % % % % % < L / . . . . . . . . . . . . . B M x % % % % % N O @ . @ @ @ # # . . P Q % % % % % % ) R # @ @ @ # . . . . . . . . . ",
". . . . . . . . O % % % % % % S T $ . . . . . . . . . . . . . . . . # U V % % % % % % W X @ @ @ @ @ @ . . / Y Z % % % % % % % ` # @ @ @ # . . . . . . . ",
". . . . . .  .% % % % % % % z ... . . . . . . . . . . . . . . . . . . # # +.@.% % % % % #.$.B @ @ @ @ . @ . . 0 | } % % % % % % ) %.# @ @ # . . . . . . ",
". . . . f % % % % % % % - &.[ . . . . . . . . . . . . . . . . . . . . . . . B ` ) % % % % % a *.@ @ @ @ @ @ . . . =.-.% % % % % % % ;./ @ @ @ # . . . . ",
". . [ &.% % % % % % } G f . . . . . . . . . . . . . . . . . . . . . . . . . . .  .! % % % % % % R 0 @ @ @ @ @ @ . . . >.i % % % % % % & 6 @ @ @ # . . . ",
". . % % % % % % % ,. .. . . . . . . . . . . . . . . . . . . . . . . . . . . . . . [ &._ % % % % % Z d . @ @ @ @ @ # . . '.).< % % % % % % !.~.@ @ . . . ",
". % % % % % % {.O . . . . . . . . . . . . . . . . . . . . . . . . . . . . . . . . . . p ].% % % % % % !.^.@ @ # @ @ # . . . $ /.) % % % % % 5 @ @ . . . ",
". % % % Z (._.:.. . . . . . . . . . . . . . . . . . . . . . . . . . . . . . . . . . . . . <.Q % % % % % % [.'.@ @ # @ [ # . . . 5 }.% % < ) |.@ @ . . . ",
". % % % > p . . . # . . . . . . . . . . . . . . . . . . . . . . . . . . . . . . . . . . . . B 1.x % % % % % 2.3.@ @ @ @ @ @ . . . . 4.Z 5.!.@ @ @ . . . ",
". % % % . . . . @ @ # # . . . . . . . . . . . . . . . . . . . . . . . . . . . . . . . . . . . . 6.7.% % % % % % 8.F @ @ @ @ . . . . 9.% % o [ @ @ # . . ",
". % % % . . . . @ @ 0.a.R R b.. . . . . . . . . . . . . . . . . . . . . . . . . . . . . . . . . . . c.8 % % % % % (.d.@ @ . . . . . e.% % % }.@ @ . . . ",
". % % % . . . . # @ &.% % % R . . . . . . . . . . . . . . . . . . . . . . . . . . . . . . . . . . . . f.g } % % % % e.@ @ # . . . . y % % % 8 @ @ . . . ",
". % % % . . . . # @ &.% % % R . . . . . . . . . . . . . . . . . . . . . . . . . . . . . . . . . . . . . . g.h.% % o / @ @ # . . . . $.% % % 8 @ @ . . . ",
". % % % . . . . # @ &.% % % R . . . . . . . . . . . . . . . . . . . . . . . . . . . . . . . . . . . . . . . [ i._ j.@ @ @ . . . . . k.% % % l.@ @ # . . ",
". % % % . . . . # @ &.% % % R . . . . . . . . . . . . . . . . . . . . . . . . . . . . . . # # # . . . . . . . @ I # # @ @ . . . . . m.% % % % @ @ # . . ",
". % % % . . . . # @ &.% % % R . . . . . . . . . . . . . . . . . . . . . . . . . . . . . . @ @ @ @ @ @ # # # # @ @ # @ @ # . . . . . 1.% % % % @ @ # . . ",
". % % % . . . . # @ &.% % % R . . . . . . . . . . . . . . . . . . . . . . . . . . . . . . # # @ @ @ @ @ @ @ @ @ @ @ @ # . . . . . . ).% % % % @ @ # . . ",
". % % % . . . . # @ &.% % % R . . . . . . . . . . . . . . . . . . . . . . . . . . . . . . . . . . . # # @ @ @ @ @ # # . . . . . . . M % % % & @ @ # . . ",
". % % % . . . . # @ &.% % % R . . . . . . . . . . . . . . . . . . . . . . . . . . . . . . . . . . . . . . . # @ # . . . . . . . . . Y % % % 8 @ @ . . . ",
". % % % . . . . # @ &.% % % R . . . . . . . . . . . . . . . . . . . . . . . . . . . . . . . . . . . . . . . # @ # . . . . . . . . . L % % % 8 @ @ . . . ",
". % % % . . . . # @ &.% % % R . . . . . . . . . . . . . . . . . . . . . . . . . . . . . . . . . . . . . . . @ @ . . . . . . . . . . n.% % % 8 @ @ . . . ",
". % % % . . . . # @ &.% % % R . . . . . . . . . . . . . . . . . . . . . . . . . . . . . . . . . . . . . . # @ # . . . . . . . . . . : % % % , @ @ # . . ",
". % % % . . . . # @ &.% % % R . . . . . . . . . . . . . . . . . . . . . . . . . . . . . . . . . . . . . . # @ # . . . . . . . . . . >.% % % N @ @ # . . ",
". % % % . . . . # @ &.% % % R . . . . . . . . . . . . . . . . . . . . . . . . . . . . . . . . . . . . . . # @ . . . . . . . . . . . A % % % % . @ # . . ",
". % % % . . . . # @ &.% % % R . . . . . . . . . . . . . . . . . . . . . . . . . . . . . . . . . . . . . . @ @ . . . . . . . . . . . d % % % % '.@ # . . ",
". % % % . . . . @ @ &.% % % R . . . . . . . . . . . . . . . . . . . . . . . . . . . . . . . . . . . . . . @ @ . . . . . . . . . . . i.% % % % @ @ # . . ",
". % % % . . . . @ @ &.% % % R . . . . . . . . . . . . . . . . . . . . . . . . . . . . . . . . . . . . . . @ @ . . . . . . . . . . . d.% % % % @ @ @ . . ",
". % % % . . . . @ @ &.% % % R . . . . . . . . . . . . . . . . . . . . . . . . . . . . . . . . . . . . . . @ # . . . . . . . . . . . o.% % % % @ @ # . . ",
". % % % . . . . @ @ &.% % % R . . . . . . . . . . . . . . . . . . . . . . . . . . . . . . . . . . . . . # @ # . . . . . . . . . . . p.% % % % @ @ @ . . ",
". % % % . . . . @ @ &.% % % R . . . . . . . . . . . . . . . . . . . . . . . . . . . . . . . . . . . . . @ @ . . . . . . . . . . . . j % % % % @ @ @ . . ",
". % % % . . . . @ @ &.% % % R . . . . . . . . . . . . . . . . . . . . . . . . . . . . . . . . . . . . # @ # . . . . . . . . . . . . b % % % % @ @ @ . . ",
". % % % . . . . # @ &.% % % R . . . . . . . . . . . . . . . . . . . . . . . . . . . . . . . . . . . . @ @ # . . . . . . . . . . . . 3 % % % % '.@ @ . . ",
". % % % . . . . . @ &.% % % R . . . . . . . . . . . . . . . . . . . . . . . . . . . . . . . . . . . # @ @ . . . . . . . . . . . . . q.% % % % ( @ @ . . ",
". % % % . . . . # @ &.% % % R . . . . . . . . . . . . . . . . . . . . . . . . . . . . . . . . . . . # @ # . . . . . . . . . . . . . r.% % % % = @ # . . ",
". % % % . . . . # @ &.% % % R . . . . . . . . . . . . . . . . . . . . . . . . . . . . . . . . . . # @ @ . . . . . . . . . . . . . . s.% % % % @ @ # . . ",
". % % % . . . . # @ &.% % % R . . . . . . . . . . . . . . . . . . . . . . . . . . . . . . . . . . # @ # . . . . . . . . . . . . . . s.% % % % @ @ # . . ",
". % % % . . . . # @ &.% % % R . . . . . . . . . . . . . . . . . . . . . . . . . . . . . . . . . # @ @ . . . . f.. . . . . . . . . . 3.% % % % @ @ # . . ",
". % % % . . . . # @ &.% % % R . . . . . . . . . . . . . . . . . . . . . . . . . . . . . . . . . # @ # . . / 1.Z t.# . . . . . . . . > % % % % @ @ # . . ",
". % % % . . . . # @ &.% % % R . . . . . . . . . . . . . . . . . . . . . . . . . . . . . . . . # @ @ . . k u.% % }.# @ @ # # . . . . +.% % % % @ @ @ . . ",
". % % % . . . . @ @ &.% % % R . . . . . . . . . . . . . . . . . . . . . . . . . . . . . . . . @ @ # f | S % % % % &.@ @ @ @ # . . . v.% % % % @ @ @ . . ",
". % % % . . . . @ @ &.% % % R . . . . . . . . . . . . . . . . . . . . . . . . . . . . . . . # @ @ r., % % % % % l.3.@ @ @ @ # . . . P % % % % @ @ @ . . ",
". % % % . . . . @ @ ; R R R b.. . . . . . . . . . . . . . . . . . . . . . . . . . . . . . # @ F W % % % % % % w.p @ @ @ @ @ . . . . D % % % % @ @ @ . . ",
". % % % . . . . # @ @ # . . . . . . . . . . . . . . . . . . . . . . . . . . . . . . . . # c ).& % % % % % r t @ @ @ @ @ @ # . . . . x.% % % % @ @ @ . . ",
". % % % . . . . . . . . . . . . . . . . . . . . . . . . . . . . . . . . . . . . . . . # X y.% % % % % ) e c @ @ @ @ @ @ # . . . . . j.% % % % @ @ @ . . ",
". % % % '.B . . . . . . . . . . . . . . . . . . . . . . . . . . . . . . . . . . . . f z.S % % % % % A.B.@ @ @ @ @ @ @ # . . . . . . j , C.h % D.@ @ . . ",
". % % % )., A B . . . . . . . . . . . . . . . . . . . . . . . . . . . . . . . . . r.5.% % % % % Z i.# @ @ @ @ @ @ @ @ . . . . . 6.E.% % u.#.% D.@ @ . . ",
". % % % Z % % F.P . . . . . . . . . . . . . . . . . . . . . . . . . . . . . . X u.% % % % % % G.f @ @ @ @ @ @ @ @ # . . . . '.$.& % % % % l.}.p @ @ . . ",
". + H.% % % % % % I.g.. . . . . . . . . . . . . . . . . . . . . . . . . . / 1.& % % % % % r t @ @ @ @ @ @ @ @ @ # . . . . D o % % % % % i U @ @ # # . . ",
". . . J.% % % % % % ) T q . . . . . . . . . . . . . . . . . . . . . . . k u.% % % % % K.L.= @ @ @ @ @ @ @ @ # . . . . f M.% % % % % % ) N.@ @ @ # . . . ",
". . . . F % % % % % % % ) G = . . . . . . . . . . . . . . . . . . . ( | S % % % % % A.^.@ @ @ @ @ @ @ @ # # . . . / m.x % % % % % % o 5 @ @ @ . . . . . ",
". . . . . . |.% % % % % % % a &.c . . . . . . . . . . . . . . . . . ( 5.% % % % < i.# @ @ @ @ @ @ @ # . . . . . j.Q % % % % % % ) E * @ @ # . . . . . . ",
". . . . . . . . O.% % % % % % % u.j.. . . . . . . . . . . . . . . . # O % % % w.p @ @ @ @ @ @ @ [ . . . . . U G.% % % % % % % !.t.@ @ @ # . . . . . . . ",
". . . . . . . . . B P.% % % % % % % W  .. . . . . . . . . . . . . . . . W r t @ @ @ @ @ @ @ # [ . . . . / ).x % % % % % % - &.@ @ @ @ # . . . . . . . . ",
". . . . . . . . . . . Q.% % % % % % % ) M.$ . . . . . . . . . . . . . . R./ @ @ @ @ @ @ @ c . . . . . *.S.% % % % % % % !.# @ @ @ # . . . . . . . . . . ",
". . . . . . . . . . . . . T.% % % % % % % l.k.:.. . . . . . . . . . # @ @ @ @ @ @ @ @ [ c . . . . q w.% % % % % % % h U.# @ @ # . . . . . . . . . . . . ",
". . . . . . . . . . . . . . . k % % % % % % % {.j [ . . . . . . . # @ @ @ @ @ @ @ @ = . . . . / V.l.% % % % % % % y.# @ @ @ # . . . . . . . . . . . . . ",
". . . . . . . . . . . . . . . . . C.% % % % % % % W.X.. . . . . # @ @ @ @ @ @ B c [ . . . . X.y.% % % % % % % 8 # @ @ @ # . . . . . . . . . . . . . . . ",
". . . . . . . . . . . . . . . . . . [ % % % % % % % % V { . . . # @ @ @ @ @ [ . . . . . D.Y.% % % % % % % 8 >.# @ @ @ # . . . . . . . . . . . . . . . . ",
". . . . . . . . . . . . . . . . . . . . Z.% % % % % % % S T ( . . # # # . . . . . . B L < % % % % % % W.3.@ @ @ @ # . . . . . . . . . . . . . . . . . . ",
". . . . . . . . . . . . . . . . . . . . . . `.% % % % % % % Z ).'.. . . . . . . . *.u.% % % % % %  +~ @ @ @ @ # . . . . . . . . . . . . . . . . . . . . ",
". . . . . . . . . . . . . . . . . . . . . . . . .+% % % % % % % r r.. . . . . $ a.% % % % % % - j @ @ @ @ # . . . . . . . . . . . . . . . . . . . . . . ",
". . . . . . . . . . . . . . . . . . . . . . . . . [ ++% % % % % % % h.k . B n.Z % % % % % % @+D.@ @ @ # . . . . . . . . . . . . . . . . . . . . . . . . ",
". . . . . . . . . . . . . . . . . . . . . . . . . . . :.% % % % % % % % G.#+% % % % % % 8 4.# @ @ # . . . . . . . . . . . . . . . . . . . . . . . . . . ",
". . . . . . . . . . . . . . . . . . . . . . . . . . . . . $+% % % % % % y.} % % % % l.N.# @ @ @ # . . . . . . . . . . . . . . . . . . . . . . . . . . . ",
". . . . . . . . . . . . . . . . . . . . . . . . . . . . . . . I.% % % % g % % % & R f @ @ @ # . . . . . . . . . . . . . . . . . . . . . . . . . . . . . ",
". . . . . . . . . . . . . . . . . . . . . . . . . . . . . . . . + % % % % % % @+t.@ @ @ # # . . . . . . . . . . . . . . . . . . . . . . . . . . . . . . ",
". . . . . . . . . . . . . . . . . . . . . . . . . . . . . . . . . . %+% % ` 6 # @ @ # # . . . . . . . . . . . . . . . . . . . . . . . . . . . . . . . . ",
". . . . . . . . . . . . . . . . . . . . . . . . . . . . . . . . . . . . k @ @ @ @ # . . . . . . . . . . . . . . . . . . . . . . . . . . . . . . . . . . ",
". . . . . . . . . . . . . . . . . . . . . . . . . . . . . . . . . . . . # # # # . . . . . . . . . . . . . . . . . . . . . . . . . . . . . . . . . . . . "};
