/* XPM */
static char * sp2_5_2_xpm[] = {
"68 69 205 2",
"  	c None",
". 	c #C0C0C0",
"+ 	c #A8A8A8",
"@ 	c #A0A0A4",
"# 	c #80A080",
"$ 	c #A5A5A5",
"% 	c #646464",
"& 	c #1E1E1E",
"* 	c #000000",
"= 	c #A0C0C0",
"- 	c #A7A7A7",
"; 	c #676767",
"> 	c #202020",
", 	c #0B0B0B",
"' 	c #B6B6B6",
") 	c #6C6C6C",
"! 	c #212122",
"~ 	c #111111",
"{ 	c #0A0A0A",
"] 	c #1B1B36",
"^ 	c #AAAAAA",
"/ 	c #6A6A6A",
"( 	c #232324",
"_ 	c #020202",
": 	c #7B7B7B",
"< 	c #ACACAC",
"[ 	c #6D6D6D",
"} 	c #252525",
"| 	c #303030",
"1 	c #717171",
"2 	c #AFAFAF",
"3 	c #6E6E6E",
"4 	c #C0DCC0",
"5 	c #666666",
"6 	c #262627",
"7 	c #010101",
"8 	c #2E2E2E",
"9 	c #6F6F6F",
"0 	c #ADADAD",
"a 	c #424242",
"b 	c #282829",
"c 	c #2C2C2C",
"d 	c #B8B8B8",
"e 	c #343434",
"f 	c #B0B0B0",
"g 	c #737373",
"h 	c #2A2A2B",
"i 	c #2A2A2A",
"j 	c #9F9F9F",
"k 	c #080808",
"l 	c #97979A",
"m 	c #757575",
"n 	c #2A1F2A",
"o 	c #272727",
"p 	c #686868",
"q 	c #797979",
"r 	c #B3B3B3",
"s 	c #777777",
"t 	c #1B1B24",
"u 	c #262626",
"v 	c #4C4C4C",
"w 	c #B4B4B4",
"x 	c #1C1C26",
"y 	c #242424",
"z 	c #A4A4A4",
"A 	c #8C8C8C",
"B 	c #B2B2B2",
"C 	c #BABABA",
"D 	c #222222",
"E 	c #4A3131",
"F 	c #555572",
"G 	c #212121",
"H 	c #626262",
"I 	c #A3A3A3",
"J 	c #BFBFBF",
"K 	c #B9B9B9",
"L 	c #A6A6A6",
"M 	c #0C0C0C",
"N 	c #B7B7B7",
"O 	c #0E0E09",
"P 	c #1B1B1B",
"Q 	c #606060",
"R 	c #A2A2A2",
"S 	c #4A4A4A",
"T 	c #848484",
"U 	c #BEBEBE",
"V 	c #787878",
"W 	c #232323",
"X 	c #1D1D1D",
"Y 	c #5E5E5E",
"Z 	c #9E9E9E",
"` 	c #3B3B3B",
" .	c #585858",
"..	c #102000",
"+.	c #3A3A3A",
"@.	c #5C5C5C",
"#.	c #9C9C9C",
"$.	c #B5B5B5",
"%.	c #050505",
"&.	c #969696",
"*.	c #BCBCBC",
"=.	c #2D2D2D",
"-.	c #5D5D5D",
";.	c #464646",
">.	c #A0A0A0",
",.	c #090909",
"'.	c #141414",
").	c #808080",
"!.	c #2F2F2F",
"~.	c #8E8E8E",
"{.	c #7A7A7A",
"].	c #454545",
"^.	c #181818",
"/.	c #555555",
"(.	c #636363",
"_.	c #1C1C1C",
":.	c #444444",
"<.	c #BDBDBD",
"[.	c #323232",
"}.	c #7D7D7D",
"|.	c #353535",
"1.	c #6C6C6F",
"2.	c #7C7C7C",
"3.	c #434343",
"4.	c #161616",
"5.	c #B1B1B1",
"6.	c #171717",
"7.	c #989898",
"8.	c #060606",
"9.	c #1A1A1A",
"0.	c #979797",
"a.	c #040404",
"b.	c #767676",
"c.	c #383838",
"d.	c #313131",
"e.	c #4E4E4E",
"f.	c #5F5F5F",
"g.	c #778977",
"h.	c #7E7E7E",
"i.	c #414141",
"j.	c #BBBBBB",
"k.	c #868686",
"l.	c #9D9D9D",
"m.	c #7F7F7F",
"n.	c #404040",
"o.	c #ABABAB",
"p.	c #040409",
"q.	c #909090",
"r.	c #030303",
"s.	c #3F3F3F",
"t.	c #6B6B6B",
"u.	c #959595",
"v.	c #818181",
"w.	c #3E3E3E",
"x.	c #8F8F8F",
"y.	c #070707",
"z.	c #828282",
"A.	c #3D3D3D",
"B.	c #101010",
"C.	c #2C2C2D",
"D.	c #838383",
"E.	c #3C3C3C",
"F.	c #888888",
"G.	c #535353",
"H.	c #616161",
"I.	c #07070E",
"J.	c #858585",
"K.	c #A7BFA7",
"L.	c #393939",
"M.	c #363649",
"N.	c #878787",
"O.	c #AEAEAE",
"P.	c #373737",
"Q.	c #494949",
"R.	c #877087",
"S.	c #898989",
"T.	c #363636",
"U.	c #0D0D0D",
"V.	c #9CB39C",
"W.	c #8A8A8A",
"X.	c #8B8B8B",
"Y.	c #9A9A9A",
"Z.	c #080811",
"`.	c #333333",
" +	c #4D4D4D",
".+	c #839683",
"++	c #262619",
"@+	c #8D8D8D",
"#+	c #0F0F0F",
"$+	c #999999",
"%+	c #555557",
"&+	c #2B2B2B",
"*+	c #080810",
"=+	c #0F0F1F",
"-+	c #202040",
";+	c #515151",
">+	c #040408",
",+	c #16160F",
"'+	c #39393A",
")+	c #555538",
"!+	c #929292",
"~+	c #5E6C5E",
"{+	c #565639",
"]+	c #608080",
"^+	c #606040",
". . . . . . . . . . . . . . . . . . . . . . . . . . . . . . . . . . . . . . . . . . . . . . . . . . . . . . . . . . . . . . . . . . . . ",
". . . . . . . . . . . . . . . . . . . . . . . . . . . . . . . . . . . . . + . @ # . . . . . . . . . . . . . . . . . . . . . . . . . . . ",
". . . . . . . . . . . . . . . . . . . . . . . . . . . . . . . . . . $ % & * * * * = . . . . . . . . . . . . . . . . . . . . . . . . . . ",
". . . . . . . . . . . . . . . . . . . . . . . . . . . . . . . - ; > * * * * * * , * . . . . . . . . . . . . . . . . . . . . . . . . . . ",
". . . . . . . . . . . . . . . . . . . . . . . . . . . . ' ) ! * * * * * * * ~ { * * ] . . . . . . . . . . . . . . . . . . . . . . . . . ",
". . . . . . . . . . . . . . . . . . . . . . . . . ^ / ( * * * * * * * * * * _ * * * * : . . . . . . . . . . . . . . . . . . . . . . . . ",
". . . . . . . . . . . . . . . . . . . . . . < [ } * * * * * * * * * _ | 1 2 3 * * * * * 4 . . . . . . . . . . . . . . . . . . . . . . . ",
". . . . . . . . . . . . . . . . . . . ' 5 6 * * * * * * * * * 7 8 9 0 . . . . a * * * * * . . . . . . . . . . . . . . . . . . . . . . . ",
". . . . . . . . . . . . . . . . 2 1 b * * * * * * * * * * c 3 d . . . . . . . ' & * * * * e . . . . . . . . . . . . . . . . . . . . . . ",
". . . . . . . . . . . . . f g h * * * * * * * * * * i / ^ . . . . . . . . . . . j k * * * * l . . . . . . . . . . . . . . . . . . . . . ",
". . . . . . . . . . ' m n * * * * * * * * * * o p + . . . . . . . . . . . . . . . q * * * * * . . . . . . . . . . . . . . . . . . . . . ",
". . . . . . . r s t * * * * * * * * * * u ; - . . . . . . . . . . . . . . . . . . . v * * * * * . . . . . . . . . . . . . . . . . . . . ",
". . . . w q x * * * * * * * * * * y % z . . . . . . . . . . . . . . . . A B . . . . C D * * * * E . . . . . . . . . . . . . . . . . . . ",
". . . F * * * * * * * * * * G H I . . . . . . . . . . . . . . . . . J % _ o K . . . . L M * * * * f . . . . . . . . . . . . . . . . . . ",
"N * * * O * * * * * * P Q R . . . . . . . . . . . . . . . . . . . K e * * * S . . . . . T * * * * * U . . . . . . . . . . . . . . . . . ",
"V * * * W * * * X Y Z . . . . . . . . . . . . . . . . . . . . . . J ` * * * * g . . . . .  .* * * * ... . . . . . . . . . . . . . . . . ",
"q * * * +.P @.#.. . . . . . . . . . . . . . . . . . . . . . . . . . $.X * * * %.&.. . . . *.=.* * * * -.. . . . . . . . . . . . . . . . ",
"q * * * ;.. . . . . . . . . . . . . . . . . . . . . . . . . . . . . . >.,.* * * '.' . . . . < ~ * * * * < . . . . . . . . . . . . . . . ",
"q * * * ;.. . . . . . . . . . . . . . . . . . . . . . . . . . . . . . . ).* * * * !.*.. . . . ~._ * * * * *.. . . . . . . . . . . . . . ",
"{.* * * ].. . . . . ^.* * * - . . . . . . . . . . . . . . . . . . . . . .  .* * * * /.. . . . . (.* * * * _.. . . . . . . . . . . . . . ",
": * * * :.. . . . . ^.* * * - . . . . . . . . . . . . . . . . . . . . . . <.[.* * * * }.. . . . J |.* * * * 1.. . . . . . . . . . . . . ",
"2.* * * 3.. . . . . ^.* * * - . . . . . . . . . . . . . . . . . . . . . . . f 4.* * * k Z . . . . 5.6.* * * * z . . . . . . . . . . . . ",
"2.* * * 3.. . . . . ^.* * * - . . . . . . . . . . . . . . . . . . . . . . . . 7.8.* * * 9.K . . . . 0.a.* * * * K . . . . . . . . . . . ",
"2.* * * 3.. . . . . ^.* * * - . . . . . . . . . . . . . . . . . . . . . . . . . b.* * * * c.U . . . . 3 * * * * d.. . . . . . . . . . . ",
"}.* * * a . . . . . ^.* * * - . . . . . . . . . . . . . . . . . . . . . . . . . . e.* * * * f.. . . . . a * * * * g.. . . . . . . . . . ",
"h.* * * i.. . . . . ^.* * * - . . . . . . . . . . . . . . . . . . . . . . . . . . j.i * * * 7 k.. . . . ' & * * * * l.. . . . . . . . . ",
"m.* * * n.. . . . . ^.* * * - . . . . . . . . . . . . . . . . . . . . . . . . . . . o.~ * * * M z . . . . j k * * * p.$.. . . . . . . . ",
").* * * n.. . . . . ^.* * * - . . . . . . . . . . . . . . . . . . . . . . . . . . . . q.r.* * * > j.. . . . 2.* * * * i . . . . . . . . ",
").* * * s.. . . . . ^.* * * - . . . . . . . . . . . . . . . . . . . . . . . . . . . . . t.* * * * a . . . . . v * * * * ) . . . . . . . ",
").* * * s.. . . . . ^.* * * - . . . . . . . . . . . . . . . . . . . . . . . . . . . . . . n.* * * * / . . . . K } * * * * u.. . . . . . ",
"v.* * * w.. . . . . ^.* * * - . . . . . . . . . . . . . . . . . . . . . . . . . . . . . . N D * * * r.x.. . . . L M * * * y.f . . . . . ",
"z.* * * A.. . . . . ^.* * * - . . . . . . . . . . . . . . . . . . . . . . . . . . . . . . . $ M * * * B.^ . . . . T * * * * C.U . . . . ",
"D.* * * E.. . . . . ^.* * * - . . . . . . . . . . . . . . . . . . . . . . . . . . . . . . . . F.7 * * * G.. . . . .  .* * * * / . . . . ",
"D.* * * E.. . . . . ^.* * * - . . . . . . . . . . . . . . . . . . . . . . . . . . . . . . . . . H.* * /.*.. . . . . *.=.* * I.* . . . . ",
"T * * * ` . . . . . ^.* * * - . . . . . . . . . . . . . . . . . . . . . . . . . . . . . . . . . U i.h.. . . . . . . . 9 _ S * * ).. . . ",
"T * * * ` . . . . . ^.* * * - . . . . . . . . . . . . . . . . . . . . . . . . . . . . . . . . . . . . . . . . . . . + M * a.n.* . . . . ",
"J.* * * +.. . . . . ^.* * * - . . . . . . . . . . . . . . . . . . . . . . . . . . . . . . . . . . . . . . . . . . <.=.* * * * K.. . . . ",
"k.* * * L.. . . . . ^.* * * - . . . . . . . . . . . . . . . . . . . . . . . . . . . . . . . . . . . . . . . . . . (.* * * * M.. . . . . ",
"k.* * * L.. . . . . ^.* * * - . . . . . . . . . . . . . . . . . . . . . . . . . . . . . . . . . . . . . . . . . 0.r.* * * * J . . . . . ",
"N.* * * c.. . . . . ^.* * * - . . . . . . . . . . . . . . . . . . . . . . . . . . . . . . . . . . . . . . . . ' P * * * * O.. . . . . . ",
"F.* * * P.. . . . . ^.* * * - . . . . . . . . . . . . . . . . . . . . . . . . . . . . . . . . . . . . . . . . Q.* * * * R.. . . . . . . ",
"F.* * * P.. . . . . ^.* * * - . . . . . . . . . . . . . . . . . . . . . . . . . . . . . . . . . . . . . . . T * * * * 9.. . . . . . . . ",
"S.* * * T.. . . . . ^.* * * - . . . . . . . . . . . . . . . . . . . . . . . . . . . . . . . . . . . . . . ^ U.* * * * K . . . . . . . . ",
"S.* * * T.. . . . . ^.* * * - . . . . . . . . . . . . . . . . . . . . . . . . . . . . . . . . . . . . . U d.* * * * V.. . . . . . . . . ",
"W.* * * |.. . . . . ^.* * * - . . . . . . . . . . . . . . . . . . . . . . . . . . . . . . . . . . . . . ; * * * * ;.. . . . . . . . . . ",
"X.* * * e . . . . . ^.* * * - . . . . . . . . . . . . . . . . . . . . . . . . . . . . . . . . . . . . Y.a.* * * Z.J . . . . . . . . . . ",
"X.* * * e . . . . . ^.* * * - . . . . . . . . . . . . . . . . . . . . . . . . . . . . . . . . . . . d & * * * * < . . . . . . . . . . . ",
"A * * * `.. . . . . =.^.^.^.^ . . . . . . . . . . . . . . . . . . . . . . . . . . . . . . . . . . .  +* * * * .+. . . . . . . . . . . . ",
"A * * * `.. . . . . . . . . . . . . . . . . . . . . . . . . . . . . . . . . . . . . . . . . . . . A * * * * ++. . . . . . . . . . . . . ",
"@+* * * [.. . . . . . . . . . . . . . . . . . . . . . . . . . . . . . . . . . . . . . . . . . . 0 #+* * * * N . . . . . . . . . . . . . ",
"~.* * * d.. . . . . . . . . . . . . . . . . . . . . . . . . . . . . . . . . . . . . . . . . . J e * * * * $+. . . . . . . . . . . . . . ",
"x.* * * | b.w . . . . . . . . . . . . . . . . . . . . . . . . . . . . . . . . . . . . . . . . t.* * * * %+. . . . . . . . . . . . . . . ",
"x.* * * &+_ * i / ^ . . . . . . . . . . . . . . . . . . . . . . . . . . . . . . . . . . . . l.%.* * * *+U . . . . . . . . . . . . . . . ",
"- =+=+Q ;.* * * * * i / ^ . . . . . . . . . . . . . . . . . . . . . . . . . . . . . . . . K > * * * * ^ . . . . . . . . . . . . . . . . ",
". -+* n.b * * * * * * * * A./ B . . . . . . . . . . . . . . . . . . . . . . . . . . . . . ;+* * * * ).. . . . . . . . . . . . . . . . . ",
". 4 @ * * * * * * * * * * * * * i / ^ . . . . . . . . . . . . . . . . . . . . . . . . . F.* * * * | . . . . . . . . . . . . . . . . . . ",
". . . . . # * * * * * * * * * * * * * i / ^ . . . . . . . . . . . . . . . . . . . . . r B.* * * >+' . . . . . . . . . . . . . . . . . . ",
". . . . . . . . @ * * * * * * * * * * * * * |./ f . . . . . . . . . . . . . . . . . J c.* * * * &.. . . . . . . . . . . . . . . . . . . ",
". . . . . . . . . . . @ * * * * * * * * * * * * * i / ^ . . . . . . . . . . . . . . 9 * * * * H.. . . . . . . . . . . . . . . . . . . . ",
". . . . . . . . . . . . . . @ c.* * * * * * * * * * * * i / ^ . . . . . . . . . . >.8.* * * ,+<.. . . . . . . . . . . . . . . . . . . . ",
". . . . . . . . . . . . . . . . . @ c.* * * * * * * * * * * * =./ O.. . . . . . C W * * * * - . . . . . . . . . . . . . . . . . . . . . ",
". . . . . . . . . . . . . . . . . . . . @ c.* * * * * * * * * * * * i / ^ . . . /.* * * * : . . . . . . . . . . . . . . . . . . . . . . ",
". . . . . . . . . . . . . . . . . . . . . . . @ c.* * * * * * * * * * * * i / 2.* * * * '+. . . . . . . . . . . . . . . . . . . . . . . ",
". . . . . . . . . . . . . . . . . . . . . . . . . . @ c.* * * * * * * * * * * * * * * k w . . . . . . . . . . . . . . . . . . . . . . . ",
". . . . . . . . . . . . . . . . . . . . . . . . . . . . . 4 )+* * * * * * * * `._.* * !+. . . . . . . . . . . . . . . . . . . . . . . . ",
". . . . . . . . . . . . . . . . . . . . . . . . . . . . . . . . 4 )+* * * * * ^.* * ~+. . . . . . . . . . . . . . . . . . . . . . . . . ",
". . . . . . . . . . . . . . . . . . . . . . . . . . . . . . . . . . . 4 {+* * * * ]+. . . . . . . . . . . . . . . . . . . . . . . . . . ",
". . . . . . . . . . . . . . . . . . . . . . . . . . . . . . . . . . . . . . 4 ^+n.. . . . . . . . . . . . . . . . . . . . . . . . . . . ",
". . . . . . . . . . . . . . . . . . . . . . . . . . . . . . . . . . . . . . . . . . . . . . . . . . . . . . . . . . . . . . . . . . . . "};
