/* XPM */
static char * sp3_6_xpm[] = {
"76 85 171 2",
"  	c None",
". 	c #C0C0C0",
"+ 	c #C0DCC0",
"@ 	c #C2C2C2",
"# 	c #C1C1C1",
"$ 	c #B0B0B0",
"% 	c #000000",
"& 	c #080808",
"* 	c #C1C4C1",
"= 	c #BABABA",
"- 	c #111111",
"; 	c #949494",
"> 	c #868686",
", 	c #121212",
"' 	c #272727",
") 	c #020202",
"! 	c #2F2F2F",
"~ 	c #A6A6A6",
"{ 	c #A4A4A4",
"] 	c #404040",
"^ 	c #3F3F3F",
"/ 	c #BCBCBC",
"( 	c #B6B6B6",
"_ 	c #0F0F0F",
": 	c #717171",
"< 	c #0C0C0C",
"[ 	c #BFBFBF",
"} 	c #030303",
"| 	c #515151",
"1 	c #B3B3B3",
"2 	c #A7A7A7",
"3 	c #7E7E7E",
"4 	c #9C9C9C",
"5 	c #9D9D9D",
"6 	c #919191",
"7 	c #252525",
"8 	c #171717",
"9 	c #B5B5B6",
"0 	c #B2B2B2",
"a 	c #151515",
"b 	c #7D7D7D",
"c 	c #BEBEBE",
"d 	c #757575",
"e 	c #616161",
"f 	c #B5B5B5",
"g 	c #585858",
"h 	c #050505",
"i 	c #0E0E0E",
"j 	c #7C7C7C",
"k 	c #979797",
"l 	c #383838",
"m 	c #A5A5A5",
"n 	c #3C3C3C",
"o 	c #1D1D1D",
"p 	c #B1B1B1",
"q 	c #ADADAD",
"r 	c #1B1B1B",
"s 	c #878787",
"t 	c #8E8E8E",
"u 	c #222222",
"v 	c #606060",
"w 	c #C0C1C1",
"x 	c #090909",
"y 	c #646464",
"z 	c #BDBDBD",
"A 	c #C1C3C1",
"B 	c #8C8C8C",
"C 	c #424242",
"D 	c #AAAAAA",
"E 	c #555555",
"F 	c #909090",
"G 	c #363636",
"H 	c #B1B9B1",
"I 	c #6E6E6E",
"J 	c #8A8A8A",
"K 	c #1F1F1F",
"L 	c #484848",
"M 	c #828282",
"N 	c #010101",
"O 	c #4C4C4C",
"P 	c #6D6D6D",
"Q 	c #0D0D0D",
"R 	c #5D5D5D",
"S 	c #A1A1A1",
"T 	c #2A2A2A",
"U 	c #999999",
"V 	c #869898",
"W 	c #787878",
"X 	c #A0A0A0",
"Y 	c #343434",
"Z 	c #202020",
"` 	c #727272",
" .	c #333333",
"..	c #BBBBBB",
"+.	c #6A6A6A",
"@.	c #2C2C2C",
"#.	c #BBBDBB",
"$.	c #181818",
"%.	c #4D4D4D",
"&.	c #060606",
"*.	c #5F5F5F",
"=.	c #B9B9B9",
"-.	c #313131",
";.	c #9B9B9B",
">.	c #636363",
",.	c #131313",
"'.	c #616F61",
").	c #626262",
"!.	c #656565",
"~.	c #666666",
"{.	c #0B0B0B",
"].	c #676767",
"^.	c #696969",
"/.	c #6B6B6B",
"(.	c #707070",
"_.	c #141414",
":.	c #737373",
"<.	c #767676",
"[.	c #777777",
"}.	c #797979",
"|.	c #7A7A7A",
"1.	c #808080",
"2.	c #818181",
"3.	c #838383",
"4.	c #858585",
"5.	c #888888",
"6.	c #898989",
"7.	c #8D8D8D",
"8.	c #8F8F8F",
"9.	c #565656",
"0.	c #AFAFAF",
"a.	c #A9A9A9",
"b.	c #3D3D3D",
"c.	c #242424",
"d.	c #070707",
"e.	c #212121",
"f.	c #202040",
"g.	c #353535",
"h.	c #9E9E9E",
"i.	c #ACACAC",
"j.	c #5C5C5E",
"k.	c #505050",
"l.	c #545454",
"m.	c #869986",
"n.	c #434343",
"o.	c #A3A3A3",
"p.	c #5C4A4A",
"q.	c #393939",
"r.	c #B4B4B4",
"s.	c #959595",
"t.	c #1E1E1E",
"u.	c #A7C0A7",
"v.	c #454545",
"w.	c #4E4E4E",
"x.	c #6C6C6C",
"y.	c #232323",
"z.	c #292929",
"A.	c #929292",
"B.	c #3E3E3E",
"C.	c #474747",
"D.	c #B2CCB2",
"E.	c #89898C",
"F.	c #323232",
"G.	c #494930",
"H.	c #494949",
"I.	c #141429",
"J.	c #2D2D2D",
"K.	c #262626",
"L.	c #595959",
"M.	c #929275",
"N.	c #C0A0C0",
". . . . . . . . . . . . . . . . . . . . . . . . . . . . . . . . . . . . . . . . . . . . . . . . . . . . . . . . . . . . . . . . . . . . . . . . . . . . ",
". . . . . . . . . . . . . . . . . . . . . . . . . . . . . . . . . . . . + . @ @ # . . . . . . . . . . . . . . . . . . . . . . . . . . . . . . . . . . . ",
". . . . . . . . . . . . . . . . . . . . . . . . . . . . . . . . . $ % % % & * @ @ @ # . . . . . . . . . . . . . . . . . . . . . . . . . . . . . . . . . ",
". . . . . . . . . . . . . . . . . . . . . . . . . . . . . . . = % % % % % % - ; @ @ @ @ # . . . . . . . . . . . . . . . . . . . . . . . . . . . . . . . ",
". . . . . . . . . . . . . . . . . . . . . . . . . . . . . . > % % % % , ' % % ) ! ~ @ @ @ @ # . . . . . . . . . . . . . . . . . . . . . . . . . . . . . ",
". . . . . . . . . . . . . . . . . . . . . . . . . . . . { % % % % % % % ] % % % % % ^ / @ @ @ # . . . . . . . . . . . . . . . . . . . . . . . . . . . . ",
". . . . . . . . . . . . . . . . . . . . . . . . . . ( % % % % % % % _ : < % % % % % % ) ^ # @ @ @ # . . . . . . . . . . . . . . . . . . . . . . . . . . ",
". . . . . . . . . . . . . . . . . . . . . . . . [ % % % % % % % } | 1 . 2 ] % % % % % % % ) 3 # @ @ @ # . . . . . . . . . . . . . . . . . . . . . . . . ",
". . . . . . . . . . . . . . . . . . . . . . . 4 % % % % % % % ! 5 . . . . . 6 7 % % % % % % % 8 9 @ @ @ # . . . . . . . . . . . . . . . . . . . . . . . ",
". . . . . . . . . . . . . . . . . . . . . 0 % % % % % % % a b [ . . . . . . . c d - % % % % % % % ^ * @ @ @ # . . . . . . . . . . . . . . . . . . . . . ",
". . . . . . . . . . . . . . . . . . . c % % % % % % % } e / . . . . . . . c # # . f g h % % % % % % i j @ @ @ # . . . . . . . . . . . . . . . . . . . . ",
". . . . . . . . . . . . . . . . . . k % % % % % % % l { . . . . . . . . # @ @ @ # # . m n % % % % % % % o p @ @ @ # # . . . . . . . . . . . . . . . . . ",
". . . . . . . . . . . . . . . . q % % % % % % % r s . . . . . . . . . @ @ @ . @ @ @ @ . . t u % % % % % % ) v w @ @ @ # . . . . . . . . . . . . . . . . ",
". . . . . . . . . . . . . . / % % % % % % % x y = . . . . . . . . . . @ @ @ @ @ @ @ @ # # . z : _ % % % % % % - v A @ @ @ # . . . . . . . . . . . . . . ",
". . . . . . . . . . . . . B % % % % % % % C D . . . . . . . . . . . # @ @ @ @ @ @ @ @ @ @ # . . 1 E } % % % % % % - F # @ @ @ # . . . . . . . . . . . . ",
". . . . . . . . . . . 2 % % % % % % % o ; . . . . . . . . . . . . . @ @ @ @ @ @ @ @ @ @ @ @ @ # . . { G % % % % % % % 8 H @ @ @ @ # . . . . . . . . . . ",
". . . . . . . . . / % % % % % % % < I / . . . . . . . . . . . . . # @ @ # @ @ @ @ @ @ @ . @ @ @ # # . . J K % % % % % % ) L # @ @ @ # . . . . . . . . . ",
". . . . . . . . M % % % % % % N O $ . . . . . . . . . . . . . . . . # @ @ @ @ @ @ @ @ @ @ @ @ @ @ @ @ . . / P Q % % % % % % % R # @ @ @ # . . . . . . . ",
". . . . . . S % % % % % % % T U . . . . . . . . . . . . . . . . . . . # # @ @ @ @ @ @ @ @ @ @ @ @ @ @ . @ . . 0 | } % % % % % % ) V # @ @ # . . . . . . ",
". . . . f % % % % % % % - W [ . . . . . . . . . . . . . . . . . . . . . . . # @ @ @ @ @ @ @ @ @ @ @ @ @ @ @ . . . X Y % % % % % % % Z / @ @ @ # . . . . ",
". . [ W % % % % % % } E f . . . . . . . . . . . . . . . . . . . . . . . . . . . # @ @ @ @ @ @ @ @ @ @ @ @ @ @ @ . . . ` i % % % % % % & 6 @ @ @ # . . . ",
". . % % % % % % %  .S . . . . . . . . . . . . . . . . . . . . . . . . . . . . . . . # @ @ @ @ @ @ @ @ @ @ @ @ @ @ # . . ..+.< % % % % % % @.#.@ @ . . . ",
". % % % % % % $.M . . . . . . . . . . . . . . . . . . . . . . . . . . . . . . . . . . . # @ @ @ @ @ @ @ @ @ @ # @ @ # . . . $ %.) % % % % % 5 @ @ . . . ",
". % % % Q &.*.=.. . . . . . . . . . . . . . . . . . . . . . . . . . . . . . . . . . . . . @ @ @ @ @ @ @ @ @ @ @ @ # @ [ # . . . 5 -.% % < ) ;.@ @ . . . ",
". % % % > p . . . # . . . . . . . . . . . . . . . . . . . . . . . . . . . . . . . . . . . . # # # @ @ @ @ @ @ @ @ @ @ @ @ @ . . . . >.Q ,.@.@ @ @ . . . ",
". % % % . . . . @ @ # # . . . . . . . . . . . . . . . . . . . . . . . . . . . . . . . . . . . . . . # @ @ @ @ @ @ @ @ @ @ @ . . . . '.% % o [ @ @ # . . ",
". % % % . . . . @ @ # @ # . . . . . . . . . . . . . . . . . . . . . . . . . . . . . . . . . . . . . . # @ @ @ @ @ @ @ @ @ . . . . . ).% % % -.@ @ . . . ",
". % % % . . . . # @ @ @ # . . . . . . . . . . . . . . . . . . . . . . . . . . . . . . . . . . . . . . . . # @ @ @ @ @ @ @ # . . . . y % % % 8 @ @ . . . ",
". % % % . . . . # @ @ @ # . . . . . . . . . . . . . . . . . . . . . . . . . . . . . . . . . . . . . . . . . # # @ @ @ @ @ # . . . . !.% % % 8 @ @ . . . ",
". % % % . . . . # @ @ @ . . . . . . . . . . . . . . . . . . . . . . . . . . . . . . . . . . . . . . . . . . . # @ @ @ @ @ . . . . . ~.% % % {.@ @ # . . ",
". % % % . . . . # @ @ @ . . . . . . . . . . . . . . . . . . . . . . . . . . . . . . . . . # # # . . . . . . . @ @ # # @ @ . . . . . ].% % % % @ @ # . . ",
". % % % . . . . # @ @ @ . . . . . . . . . . . . . . . . . . . . . . . . . . . . . . . . . @ @ @ @ @ @ # # # # @ @ # @ @ # . . . . . ^.% % % % @ @ # . . ",
". % % % . . . . # @ @ @ . . . . . . . . . . . . . . . . . . . . . . . . . . . . . . . . . # # @ @ @ @ @ @ @ @ @ @ @ @ # . . . . . . +.% % % % @ @ # . . ",
". % % % . . . . # @ @ # . . . . . . . . . . . . . . . . . . . . . . . . . . . . . . . . . . . . . . # # @ @ @ @ @ # # . . . . . . . /.% % % & @ @ # . . ",
". % % % . . . . # @ @ # . . . . . . . . . . . . . . . . . . . . . . . . . . . . . . . . . . . . . . . . . . # @ # . . . . . . . . . P % % % 8 @ @ . . . ",
". % % % . . . . # @ @ # . . . . . . . . . . . . . . . . . . . . . . . . . . . . . . . . . . . . . . . . . . # @ # . . . . . . . . . I % % % 8 @ @ . . . ",
". % % % . . . . # @ @ # . . . . . . . . . . . . . . . . . . . . . . . . . . . . . . . . . . . . . . . . . . @ @ . . . . . . . . . . (.% % % 8 @ @ . . . ",
". % % % . . . . # @ @ # . . . . . . . . . . . . . . . . . . . . . . . . . . . . . . . . . . . . . . . . . # @ # . . . . . . . . . . : % % % , @ @ # . . ",
". % % % . . . . # @ @ # . . . . . . . . . . . . . . . . . . . . . . . . . . . . . . . . . . . . . . . . . # @ # . . . . . . . . . . ` % % % _.@ @ # . . ",
". % % % . . . . # @ @ # . . . . . . . . . . . . . . . . . . . . . . . . . . . . . . . . . . . . . . . . . # @ . . . . . . . . . . . :.% % % % . @ # . . ",
". % % % . . . . # @ @ # . . . . . . . . . . . . . . . . . . . . . . . . . . . . . . . . . . . . . . . . . @ @ . . . . . . . . . . . d % % % % ..@ # . . ",
". % % % . . . . @ @ @ # . . . . . . . . . . . . . . . . . . . . . . . . . . . . . . . . . . . . . . . . . @ @ . . . . . . . . . . . <.% % % % @ @ # . . ",
". % % % . . . . @ @ @ # . . . . . . . . . . . . . . . . . . . . . . . . . . . . . . . . . . . . . . . . . @ @ . . . . . . . . . . . [.% % % % @ @ @ . . ",
". % % % . . . . @ @ @ @ . . . . . . . . . . . . . . . . . . . . . . . . . . . . . . . . . . . . . . . . . @ # . . . . . . . . . . . }.% % % % @ @ # . . ",
". % % % . . . . @ @ @ @ . . . . . . . . . . . . . . . . . . . . . . . . . . . . . . . . . . . . . . . . # @ # . . . . . . . . . . . |.% % % % @ @ @ . . ",
". % % % . . . . @ @ @ @ . . . . . . . . . . . . . . . . . . . . . . . . . . . . . . . . . . . . . . . . @ @ . . . . . . . . . . . . j % % % % @ @ @ . . ",
". % % % . . . . @ @ @ @ . . . . . . . . . . . . . . . . . . . . . . . . . . . . . . . . . . . . . . . # @ # . . . . . . . . . . . . b % % % % @ @ @ . . ",
". % % % . . . . # @ @ @ . . . . . . . . . . . . . . . . . . . . . . . . . . . . . . . . . . . . . . . @ @ # . . . . . . . . . . . . 3 % % % % ..@ @ . . ",
". % % % . . . . . @ @ @ . . . . . . . . . . . . . . . . . . . . . . . . . . . . . . . . . . . . . . # @ @ . . . . . . . . . . . . . 1.% % % % ( @ @ . . ",
". % % % . . . . # @ @ @ . . . . . . . . . . . . . . . . . . . . . . . . . . . . . . . . . . . . . . # @ # . . . . . . . . . . . . . 2.% % % % = @ # . . ",
". % % % . . . . # @ @ @ . . . . . . . . . . . . . . . . . . . . . . . . . . . . . . . . . . . . . # @ @ . . . . . . . . . . . . . . 3.% % % % @ @ # . . ",
". % % % . . . . # @ @ @ . . . . . . . . . . . . . . . . . . . . . . . . . . . . . . . . . . . . . # @ # . . . . . . . . . . . . . . 3.% % % % @ @ # . . ",
". % % % . . . . # @ @ # . . . . . . . . . . . . . . . . . . . . . . . . . . . . . . . . . . . . # @ @ . . . . . . . . . . . . . . . 4.% % % % @ @ # . . ",
". % % % . . . . # @ @ @ . . . . . . . . . . . . . . . . . . . . . . . . . . . . . . . . . . . . # @ # . . . . # # # . . . . . . . . > % % % % @ @ # . . ",
". % % % . . . . # @ @ # . . . . . . . . . . . . . . . . . . . . . . . . . . . . . . . . . . . # @ @ . . . . # @ @ @ @ @ # # . . . . 5.% % % % @ @ @ . . ",
". % % % . . . . @ @ @ # . . . . . . . . . . . . . . . . . . . . . . . . . . . . . . . . . . . @ @ # . . . # @ @ @ @ @ @ @ @ # . . . 6.% % % % @ @ @ . . ",
". % % % . . . . @ @ @ . . . . . . . . . . . . . . . . . . . . . . . . . . . . . . . . . . . # @ @ . . . . # @ @ @ @ @ @ @ @ # . . . J % % % % @ @ @ . . ",
". % % % . . . . @ @ @ # . . . . . . . . . . . . . . . . . . . . . . . . . . . . . . . . . # @ @ # . . # @ @ @ @ @ @ @ @ @ @ . . . . B % % % % @ @ @ . . ",
". % % % . . . . # @ @ # . . . . . . . . . . . . . . . . . . . . . . . . . . . . . . . . # @ @ # . . # @ @ @ @ @ @ @ @ @ @ # . . . . 7.% % % % @ @ @ . . ",
". % % % . . . . . . . . . . . . . . . . . . . . . . . . . . . . . . . . . . . . . . . # @ @ # . . . # @ @ @ @ @ @ @ @ @ # . . . . . 8.% % % % @ @ @ . . ",
". % % % ..z . . . . . . . . . . . . . . . . . . . . . . . . . . . . . . . . . . . . . @ @ # . . # @ @ @ @ @ @ @ @ @ @ # . . . . . . j , 9.h % 0.@ @ . . ",
". % % % +., :.z . . . . . . . . . . . . . . . . . . . . . . . . . . . . . . . . . . # @ # . # @ @ @ @ @ @ @ @ @ @ @ @ . . . . . a.b.% % c.d.% 0.@ @ . . ",
". % % % Q % % e.J . . . . . . . . . . . . . . . . . . . . . . . . . . . . . . . . # @ @ # @ @ @ @ @ @ @ @ @ @ @ @ # . . . . ..!.& % % % % {.-.p @ @ . . ",
". + f.% % % % % % g.h.. . . . . . . . . . . . . . . . . . . . . . . . . . . . . # @ @ @ @ @ @ @ @ @ @ @ @ @ @ @ # . . . . B o % % % % % i i.@ @ # # . . ",
". . . j.% % % % % % ) O q . . . . . . . . . . . . . . . . . . . . . . . . . # # @ @ @ @ @ # @ @ @ @ @ @ @ @ # . . . . f k.% % % % % % ) l.@ @ @ # . . . ",
". . . . D % % % % % % % ) E = . . . . . . . . . . . . . . . . . . . . # # @ @ @ @ @ # [ @ @ @ @ @ @ @ @ # # . . . / ].x % % % % % % o 5 @ @ @ . . . . . ",
". . . . . . ;.% % % % % % % a W c . . . . . . . . . . . . . . . . . # @ @ @ @ @ @ @ @ @ @ @ @ @ @ @ # . . . . . 8.K % % % % % % ) C * @ @ # . . . . . . ",
". . . . . . . . m.% % % % % % % c.8.. . . . . . . . . . . . . . . . # @ @ @ @ @ @ @ @ @ @ @ @ @ [ . . . . . i.n.% % % % % % % @.o.@ @ @ # . . . . . . . ",
". . . . . . . . . z p.% % % % % % % q.S . . . . . . . . . . . . . . . . . # @ @ @ @ @ @ @ @ # [ . . . . / +.x % % % % % % - W @ @ @ @ # . . . . . . . . ",
". . . . . . . . . . . r.% % % % % % % ) k.$ . . . . . . . . . . . . . . . [ @ @ @ @ @ @ @ c . . . . . s.t.% % % % % % % @.# @ @ @ # . . . . . . . . . . ",
". . . . . . . . . . . . . u.% % % % % % % {.~.=.. . . . . . . . . . # @ @ @ @ @ @ @ @ [ c . . . . q v.% % % % % % % h w.# @ @ # . . . . . . . . . . . . ",
". . . . . . . . . . . . . . . k % % % % % % % $.j [ . . . . . . . # @ @ @ @ @ @ @ @ = . . . . / x.{.% % % % % % % y.# @ @ @ # . . . . . . . . . . . . . ",
". . . . . . . . . . . . . . . . . 9.% % % % % % % z.A.. . . . . # @ @ @ @ @ @ z c [ . . . . A.y.% % % % % % % 8 # @ @ @ # . . . . . . . . . . . . . . . ",
". . . . . . . . . . . . . . . . . . [ % % % % % % % % B.{ . . . # @ @ @ @ @ [ . . . . . 0.C.% % % % % % % 8 ` # @ @ @ # . . . . . . . . . . . . . . . . ",
". . . . . . . . . . . . . . . . . . . . D.% % % % % % % N O ( . . # # # . . . . . . z I < % % % % % % z.4.@ @ @ @ # . . . . . . . . . . . . . . . . . . ",
". . . . . . . . . . . . . . . . . . . . . . E.% % % % % % % Q +.... . . . . . . . s.c.% % % % % % F.~ @ @ @ @ # . . . . . . . . . . . . . . . . . . . . ",
". . . . . . . . . . . . . . . . . . . . . . . . G.% % % % % % % r 2.. . . . . $ H.% % % % % % - j @ @ @ @ # . . . . . . . . . . . . . . . . . . . . . . ",
". . . . . . . . . . . . . . . . . . . . . . . . . [ I.% % % % % % % J.k . z (.Q % % % % % % K.0.@ @ @ # . . . . . . . . . . . . . . . . . . . . . . . . ",
". . . . . . . . . . . . . . . . . . . . . . . . . . . =.% % % % % % % % n.L.% % % % % % 8 >.# @ @ # . . . . . . . . . . . . . . . . . . . . . . . . . . ",
". . . . . . . . . . . . . . . . . . . . . . . . . . . . . M.% % % % % % y.} % % % % {.l.# @ @ @ # . . . . . . . . . . . . . . . . . . . . . . . . . . . ",
". . . . . . . . . . . . . . . . . . . . . . . . . . . . . . . g.% % % % g % % % & L f @ @ @ # . . . . . . . . . . . . . . . . . . . . . . . . . . . . . ",
". . . . . . . . . . . . . . . . . . . . . . . . . . . . . . . . + % % % % % % K.o.@ @ @ # # . . . . . . . . . . . . . . . . . . . . . . . . . . . . . . ",
". . . . . . . . . . . . . . . . . . . . . . . . . . . . . . . . . . N.% % R 6 # @ @ # # . . . . . . . . . . . . . . . . . . . . . . . . . . . . . . . . ",
". . . . . . . . . . . . . . . . . . . . . . . . . . . . . . . . . . . . k @ @ @ @ # . . . . . . . . . . . . . . . . . . . . . . . . . . . . . . . . . . ",
". . . . . . . . . . . . . . . . . . . . . . . . . . . . . . . . . . . . # # # # . . . . . . . . . . . . . . . . . . . . . . . . . . . . . . . . . . . . "};
