/* XPM */
static char * sp3_5_2_xpm[] = {
"68 69 194 2",
"  	c None",
". 	c #C0C0C0",
"+ 	c #A8A8A8",
"@ 	c #A0A0A4",
"# 	c #80A080",
"$ 	c #A5A5A5",
"% 	c #646464",
"& 	c #1E1E1E",
"* 	c #000000",
"= 	c #A0C0C0",
"- 	c #A7A7A7",
"; 	c #676767",
"> 	c #202020",
", 	c #0B0B0B",
"' 	c #B6B6B6",
") 	c #6C6C6C",
"! 	c #212122",
"~ 	c #111111",
"{ 	c #0A0A0A",
"] 	c #1B1B36",
"^ 	c #AAAAAA",
"/ 	c #6A6A6A",
"( 	c #232324",
"_ 	c #020202",
": 	c #7B7B7B",
"< 	c #ACACAC",
"[ 	c #6D6D6D",
"} 	c #252525",
"| 	c #303030",
"1 	c #717171",
"2 	c #AFAFAF",
"3 	c #6E6E6E",
"4 	c #C0DCC0",
"5 	c #666666",
"6 	c #262627",
"7 	c #010101",
"8 	c #2E2E2E",
"9 	c #6F6F6F",
"0 	c #ADADAD",
"a 	c #424242",
"b 	c #282829",
"c 	c #2C2C2C",
"d 	c #B8B8B8",
"e 	c #343434",
"f 	c #B0B0B0",
"g 	c #737373",
"h 	c #2A2A2B",
"i 	c #2A2A2A",
"j 	c #9F9F9F",
"k 	c #080808",
"l 	c #97979A",
"m 	c #757575",
"n 	c #2A1F2A",
"o 	c #272727",
"p 	c #686868",
"q 	c #797979",
"r 	c #B3B3B3",
"s 	c #777777",
"t 	c #1B1B24",
"u 	c #262626",
"v 	c #4C4C4C",
"w 	c #B4B4B4",
"x 	c #1C1C26",
"y 	c #242424",
"z 	c #A4A4A4",
"A 	c #BABABA",
"B 	c #222222",
"C 	c #4A3131",
"D 	c #555572",
"E 	c #212121",
"F 	c #626262",
"G 	c #A3A3A3",
"H 	c #A6A6A6",
"I 	c #0C0C0C",
"J 	c #B7B7B7",
"K 	c #0E0E09",
"L 	c #1B1B1B",
"M 	c #606060",
"N 	c #A2A2A2",
"O 	c #848484",
"P 	c #BEBEBE",
"Q 	c #787878",
"R 	c #232323",
"S 	c #1D1D1D",
"T 	c #5E5E5E",
"U 	c #9E9E9E",
"V 	c #585858",
"W 	c #102000",
"X 	c #3A3A3A",
"Y 	c #5C5C5C",
"Z 	c #9C9C9C",
"` 	c #BCBCBC",
" .	c #2D2D2D",
"..	c #5D5D5D",
"+.	c #464646",
"@.	c #8E8E8E",
"#.	c #7A7A7A",
"$.	c #454545",
"%.	c #636363",
"&.	c #1C1C1C",
"*.	c #444444",
"=.	c #BFBFBF",
"-.	c #353535",
";.	c #6C6C6F",
">.	c #7C7C7C",
",.	c #434343",
"'.	c #B1B1B1",
").	c #171717",
"!.	c #979797",
"~.	c #040404",
"{.	c #B9B9B9",
"].	c #313131",
"^.	c #7D7D7D",
"/.	c #778977",
"(.	c #7E7E7E",
"_.	c #414141",
":.	c #9D9D9D",
"<.	c #7F7F7F",
"[.	c #404040",
"}.	c #040409",
"|.	c #B5B5B5",
"1.	c #808080",
"2.	c #3F3F3F",
"3.	c #959595",
"4.	c #818181",
"5.	c #3E3E3E",
"6.	c #070707",
"7.	c #828282",
"8.	c #3D3D3D",
"9.	c #2C2C2D",
"0.	c #838383",
"a.	c #3C3C3C",
"b.	c #07070E",
"c.	c #3B3B3B",
"d.	c #4A4A4A",
"e.	c #858585",
"f.	c #BDBDBD",
"g.	c #A7BFA7",
"h.	c #868686",
"i.	c #393939",
"j.	c #363649",
"k.	c #030303",
"l.	c #878787",
"m.	c #383838",
"n.	c #AEAEAE",
"o.	c #888888",
"p.	c #373737",
"q.	c #494949",
"r.	c #877087",
"s.	c #1A1A1A",
"t.	c #898989",
"u.	c #363636",
"v.	c #0D0D0D",
"w.	c #9CB39C",
"x.	c #8A8A8A",
"y.	c #8B8B8B",
"z.	c #9A9A9A",
"A.	c #080811",
"B.	c #8C8C8C",
"C.	c #333333",
"D.	c #4D4D4D",
"E.	c #839683",
"F.	c #262619",
"G.	c #8D8D8D",
"H.	c #323232",
"I.	c #0F0F0F",
"J.	c #999999",
"K.	c #8F8F8F",
"L.	c #767676",
"M.	c #6B6B6B",
"N.	c #555557",
"O.	c #2B2B2B",
"P.	c #050505",
"Q.	c #080810",
"R.	c #0F0F1F",
"S.	c #202040",
"T.	c #B2B2B2",
"U.	c #515151",
"V.	c #101010",
"W.	c #040408",
"X.	c #969696",
"Y.	c #616161",
"Z.	c #A0A0A0",
"`.	c #060606",
" +	c #16160F",
".+	c #555555",
"++	c #39393A",
"@+	c #555538",
"#+	c #929292",
"$+	c #181818",
"%+	c #5E6C5E",
"&+	c #565639",
"*+	c #608080",
"=+	c #606040",
". . . . . . . . . . . . . . . . . . . . . . . . . . . . . . . . . . . . . . . . . . . . . . . . . . . . . . . . . . . . . . . . . . . . ",
". . . . . . . . . . . . . . . . . . . . . . . . . . . . . . . . . . . . . + . @ # . . . . . . . . . . . . . . . . . . . . . . . . . . . ",
". . . . . . . . . . . . . . . . . . . . . . . . . . . . . . . . . . $ % & * * * * = . . . . . . . . . . . . . . . . . . . . . . . . . . ",
". . . . . . . . . . . . . . . . . . . . . . . . . . . . . . . - ; > * * * * * * , * . . . . . . . . . . . . . . . . . . . . . . . . . . ",
". . . . . . . . . . . . . . . . . . . . . . . . . . . . ' ) ! * * * * * * * ~ { * * ] . . . . . . . . . . . . . . . . . . . . . . . . . ",
". . . . . . . . . . . . . . . . . . . . . . . . . ^ / ( * * * * * * * * * * _ * * * * : . . . . . . . . . . . . . . . . . . . . . . . . ",
". . . . . . . . . . . . . . . . . . . . . . < [ } * * * * * * * * * _ | 1 2 3 * * * * * 4 . . . . . . . . . . . . . . . . . . . . . . . ",
". . . . . . . . . . . . . . . . . . . ' 5 6 * * * * * * * * * 7 8 9 0 . . . . a * * * * * . . . . . . . . . . . . . . . . . . . . . . . ",
". . . . . . . . . . . . . . . . 2 1 b * * * * * * * * * * c 3 d . . . . . . . ' & * * * * e . . . . . . . . . . . . . . . . . . . . . . ",
". . . . . . . . . . . . . f g h * * * * * * * * * * i / ^ . . . . . . . . . . . j k * * * * l . . . . . . . . . . . . . . . . . . . . . ",
". . . . . . . . . . ' m n * * * * * * * * * * o p + . . . . . . . . . . . . . . . q * * * * * . . . . . . . . . . . . . . . . . . . . . ",
". . . . . . . r s t * * * * * * * * * * u ; - . . . . . . . . . . . . . . . . . . . v * * * * * . . . . . . . . . . . . . . . . . . . . ",
". . . . w q x * * * * * * * * * * y % z . . . . . . . . . . . . . . . . . . . . . . A B * * * * C . . . . . . . . . . . . . . . . . . . ",
". . . D * * * * * * * * * * E F G . . . . . . . . . . . . . . . . . . . . . . . . . . H I * * * * f . . . . . . . . . . . . . . . . . . ",
"J * * * K * * * * * * L M N . . . . . . . . . . . . . . . . . . . . . . . . . . . . . . O * * * * * P . . . . . . . . . . . . . . . . . ",
"Q * * * R * * * S T U . . . . . . . . . . . . . . . . . . . . . . . . . . . . . . . . . . V * * * * W . . . . . . . . . . . . . . . . . ",
"q * * * X L Y Z . . . . . . . . . . . . . . . . . . . . . . . . . . . . . . . . . . . . . `  .* * * * ... . . . . . . . . . . . . . . . ",
"q * * * +.. . . . . . . . . . . . . . . . . . . . . . . . . . . . . . . . . . . . . . . . . < ~ * * * * < . . . . . . . . . . . . . . . ",
"q * * * +.. . . . . . . . . . . . . . . . . . . . . . . . . . . . . . . . . . . . . . . . . . @._ * * * * ` . . . . . . . . . . . . . . ",
"#.* * * $.. . . . . . . . . . . . . . . . . . . . . . . . . . . . . . . . . . . . . . . . . . . %.* * * * &.. . . . . . . . . . . . . . ",
": * * * *.. . . . . . . . . . . . . . . . . . . . . . . . . . . . . . . . . . . . . . . . . . . =.-.* * * * ;.. . . . . . . . . . . . . ",
">.* * * ,.. . . . . . . . . . . . . . . . . . . . . . . . . . . . . . . . . . . . . . . . . . . . '.).* * * * z . . . . . . . . . . . . ",
">.* * * ,.. . . . . . . . . . . . . . . . . . . . . . . . . . . . . . . . . . . . . . . . . . . . . !.~.* * * * {.. . . . . . . . . . . ",
">.* * * ,.. . . . . . . . . . . . . . . . . . . . . . . . . . . . . . . . . . . . . . . . . . . . . . 3 * * * * ].. . . . . . . . . . . ",
"^.* * * a . . . . . . . . . . . . . . . . . . . . . . . . . . . . . . . . . . . . . . . . . . . . . . . a * * * * /.. . . . . . . . . . ",
"(.* * * _.. . . . . . . . . . . . . . . . . . . . . . . . . . . . . . . . . . . . . . . . . . . . . . . ' & * * * * :.. . . . . . . . . ",
"<.* * * [.. . . . . . . . . . . . . . . . . . . . . . . . . . . . . . . . . . . . . . . . . . . . . . . . j k * * * }.|.. . . . . . . . ",
"1.* * * [.. . . . . . . . . . . . . . . . . . . . . . . . . . . . . . . . . . . . . . . . . . . . . . . . . >.* * * * i . . . . . . . . ",
"1.* * * 2.. . . . . . . . . . . . . . . . . . . . . . . . . . . . . . . . . . . . . . . . . . . . . . . . . . v * * * * ) . . . . . . . ",
"1.* * * 2.. . . . . . . . . . . . . . . . . . . . . . . . . . . . . . . . . . . . . . . . . . . . . . . . . . {.} * * * * 3.. . . . . . ",
"4.* * * 5.. . . . . . . . . . . . . . . . . . . . . . . . . . . . . . . . . . . . . . . . . . . . . . . . . . . H I * * * 6.f . . . . . ",
"7.* * * 8.. . . . . . . . . . . . . . . . . . . . . . . . . . . . . . . . . . . . . . . . . . . . . . . . . . . . O * * * * 9.P . . . . ",
"0.* * * a.. . . . . . . . . . . . . . . . . . . . . . . . . . . . . . . . . . . . . . . . . . . . . . . . . . . . . V * * * * / . . . . ",
"0.* * * a.. . . . . . . . . . . . . . . . . . . . . . . . . . . . . . . . . . . . . . . . . . . . . . . . . . . . . `  .* * b.* . . . . ",
"O * * * c.. . . . . . . . . . . . . . . . . . . . . . . . . . . . . . . . . . . . . . . . . . . . . . . . . . . . . . 9 _ d.* * 1.. . . ",
"O * * * c.. . . . . . . . . . . . . . . . . . . . . . . . . . . . . . . . . . . . . . . . . . . . . . . . . . . . . + I * ~.[.* . . . . ",
"e.* * * X . . . . . . . . . . . . . . . . . . . . . . . . . . . . . . . . . . . . . . . . . . . . . . . . . . . . f. .* * * * g.. . . . ",
"h.* * * i.. . . . . . . . . . . . . . . . . . . . . . . . . . . . . . . . . . . . . . . . . . . . . . . . . . . . %.* * * * j.. . . . . ",
"h.* * * i.. . . . . . . . . . . . . . . . . . . . . . . . . . . . . . . . . . . . . . . . . . . . . . . . . . . !.k.* * * * =.. . . . . ",
"l.* * * m.. . . . . . . . . . . . . . . . . . . . . . . . . . . . . . . . . . . . . . . . . . . . . . . . . . ' L * * * * n.. . . . . . ",
"o.* * * p.. . . . . . . . . . . . . . . . . . . . . . . . . . . . . . . . . . . . . . . . . . . . . . . . . . q.* * * * r.. . . . . . . ",
"o.* * * p.. . . . . . . . . . . . . . . . . . . . . . . . . . . . . . . . . . . . . . . . . . . . . . . . . O * * * * s.. . . . . . . . ",
"t.* * * u.. . . . . . . . . . . . . . . . . . . . . . . . . . . . . . . . . . . . . . . . . . . . . . . . ^ v.* * * * {.. . . . . . . . ",
"t.* * * u.. . . . . . . . . . . . . . . . . . . . . . . . . . . . . . . . . . . . . . . . . . . . . . . P ].* * * * w.. . . . . . . . . ",
"x.* * * -.. . . . . . . . . . . . . . . . . . . . . . . . . . . . . . . . . . . . . . . . . . . . . . . ; * * * * +.. . . . . . . . . . ",
"y.* * * e . . . . . . . . . . . . . . . . . . . . . . . . . . . . . . . . . . . . . . . . . . . . . . z.~.* * * A.=.. . . . . . . . . . ",
"y.* * * e . . . . . . . . . . . . . . . . . . . . . . . . . . . . . . . . . . . . . . . . . . . . . d & * * * * < . . . . . . . . . . . ",
"B.* * * C.. . . . . . . . . . . . . . . . . . . . . . . . . . . . . . . . . . . . . . . . . . . . . D.* * * * E.. . . . . . . . . . . . ",
"B.* * * C.. . . . . . . . . . . . . . . . . . . . . . . . . . . . . . . . . . . . . . . . . . . . B.* * * * F.. . . . . . . . . . . . . ",
"G.* * * H.. . . . . . . . . . . . . . . . . . . . . . . . . . . . . . . . . . . . . . . . . . . 0 I.* * * * J . . . . . . . . . . . . . ",
"@.* * * ].. . . . . . . . . . . . . . . . . . . . . . . . . . . . . . . . . . . . . . . . . . =.e * * * * J.. . . . . . . . . . . . . . ",
"K.* * * | L.w . . . . . . . . . . . . . . . . . . . . . . . . . . . . . . . . . . . . . . . . M.* * * * N.. . . . . . . . . . . . . . . ",
"K.* * * O._ * i / ^ . . . . . . . . . . . . . . . . . . . . . . . . . . . . . . . . . . . . :.P.* * * Q.P . . . . . . . . . . . . . . . ",
"- R.R.M +.* * * * * i / ^ . . . . . . . . . . . . . . . . . . . . . . . . . . . . . . . . {.> * * * * ^ . . . . . . . . . . . . . . . . ",
". S.* [.b * * * * * * * * 8./ T.. . . . . . . . . . . . . . . . . . . . . . . . . . . . . U.* * * * 1.. . . . . . . . . . . . . . . . . ",
". 4 @ * * * * * * * * * * * * * i / ^ . . . . . . . . . . . . . . . . . . . . . . . . . o.* * * * | . . . . . . . . . . . . . . . . . . ",
". . . . . # * * * * * * * * * * * * * i / ^ . . . . . . . . . . . . . . . . . . . . . r V.* * * W.' . . . . . . . . . . . . . . . . . . ",
". . . . . . . . @ * * * * * * * * * * * * * -./ f . . . . . . . . . . . . . . . . . =.m.* * * * X.. . . . . . . . . . . . . . . . . . . ",
". . . . . . . . . . . @ * * * * * * * * * * * * * i / ^ . . . . . . . . . . . . . . 9 * * * * Y.. . . . . . . . . . . . . . . . . . . . ",
". . . . . . . . . . . . . . @ m.* * * * * * * * * * * * i / ^ . . . . . . . . . . Z.`.* * *  +f.. . . . . . . . . . . . . . . . . . . . ",
". . . . . . . . . . . . . . . . . @ m.* * * * * * * * * * * *  ./ n.. . . . . . A R * * * * - . . . . . . . . . . . . . . . . . . . . . ",
". . . . . . . . . . . . . . . . . . . . @ m.* * * * * * * * * * * * i / ^ . . . .+* * * * : . . . . . . . . . . . . . . . . . . . . . . ",
". . . . . . . . . . . . . . . . . . . . . . . @ m.* * * * * * * * * * * * i / >.* * * * ++. . . . . . . . . . . . . . . . . . . . . . . ",
". . . . . . . . . . . . . . . . . . . . . . . . . . @ m.* * * * * * * * * * * * * * * k w . . . . . . . . . . . . . . . . . . . . . . . ",
". . . . . . . . . . . . . . . . . . . . . . . . . . . . . 4 @+* * * * * * * * C.&.* * #+. . . . . . . . . . . . . . . . . . . . . . . . ",
". . . . . . . . . . . . . . . . . . . . . . . . . . . . . . . . 4 @+* * * * * $+* * %+. . . . . . . . . . . . . . . . . . . . . . . . . ",
". . . . . . . . . . . . . . . . . . . . . . . . . . . . . . . . . . . 4 &+* * * * *+. . . . . . . . . . . . . . . . . . . . . . . . . . ",
". . . . . . . . . . . . . . . . . . . . . . . . . . . . . . . . . . . . . . 4 =+[.. . . . . . . . . . . . . . . . . . . . . . . . . . . ",
". . . . . . . . . . . . . . . . . . . . . . . . . . . . . . . . . . . . . . . . . . . . . . . . . . . . . . . . . . . . . . . . . . . . "};
