/* XPM */
static const char * cpk_xpm[] = {
"25 22 135 2",
"  	c None",
". 	c #7B7B7B",
"+ 	c #979797",
"@ 	c #7E7E7E",
"# 	c #B9B9B9",
"$ 	c #E5E5E5",
"% 	c #F0F0F0",
"& 	c #E6E6E6",
"* 	c #BCBCBC",
"= 	c #9C9C9C",
"- 	c #E9E9E9",
"; 	c #FEFEFE",
"> 	c #FFFFFF",
", 	c #EBEBEB",
"' 	c #A2A2A2",
") 	c #8D8D8D",
"! 	c #BABABA",
"~ 	c #C4C4C4",
"{ 	c #BBBBBB",
"] 	c #909090",
"^ 	c #8B8B8B",
"/ 	c #C2C2C2",
"( 	c #CBCBCB",
"_ 	c #8C8C8C",
": 	c #656565",
"< 	c #787878",
"[ 	c #878787",
"} 	c #8F8F8F",
"| 	c #929292",
"1 	c #797979",
"2 	c #C3C3C3",
"3 	c #E1E1E1",
"4 	c #F9F9F9",
"5 	c #F1F1F1",
"6 	c #828282",
"7 	c #858585",
"8 	c #A9A9A9",
"9 	c #C1C1C1",
"0 	c #ABABAB",
"a 	c #838383",
"b 	c #EFEFEF",
"c 	c #E3E3E3",
"d 	c #989898",
"e 	c #C6C6C6",
"f 	c #F8F8F8",
"g 	c #B8B8B8",
"h 	c #919191",
"i 	c #969696",
"j 	c #D3D3D3",
"k 	c #FCFCFC",
"l 	c #D7D7D7",
"m 	c #B2B2B2",
"n 	c #C9C9C9",
"o 	c #CECECE",
"p 	c #FAFAFA",
"q 	c #E7E7E7",
"r 	c #9A9A9A",
"s 	c #BEBEBE",
"t 	c #E2E2E2",
"u 	c #9B9B9B",
"v 	c #B7B7B7",
"w 	c #D1D1D1",
"x 	c #EDEDED",
"y 	c #A0A0A0",
"z 	c #AFAFAF",
"A 	c #F5F5F5",
"B 	c #F3F3F3",
"C 	c #ACACAC",
"D 	c #939393",
"E 	c #949494",
"F 	c #F6F6F6",
"G 	c #B3B3B3",
"H 	c #8E8E8E",
"I 	c #737373",
"J 	c #A7A7A7",
"K 	c #7C7C7C",
"L 	c #A4A4A4",
"M 	c #DDDDDD",
"N 	c #DBDBDB",
"O 	c #8A8A8A",
"P 	c #9F9F9F",
"Q 	c #D9D9D9",
"R 	c #DEDEDE",
"S 	c #A5A5A5",
"T 	c #7A7A7A",
"U 	c #525252",
"V 	c #747474",
"W 	c #999999",
"X 	c #848484",
"Y 	c #757575",
"Z 	c #545454",
"` 	c #595959",
" .	c #B6B6B6",
"..	c #B5B5B5",
"+.	c #898989",
"@.	c #888888",
"#.	c #B4B4B4",
"$.	c #5B5B5B",
"%.	c #F4F4F4",
"&.	c #A8A8A8",
"*.	c #E0E0E0",
"=.	c #DFDFDF",
"-.	c #A1A1A1",
";.	c #DCDCDC",
">.	c #9D9D9D",
",.	c #D4D4D4",
"'.	c #868686",
").	c #E4E4E4",
"!.	c #FBFBFB",
"~.	c #D2D2D2",
"{.	c #BDBDBD",
"].	c #E8E8E8",
"^.	c #C7C7C7",
"/.	c #B0B0B0",
"(.	c #F2F2F2",
"_.	c #C0C0C0",
":.	c #818181",
"<.	c #767676",
"[.	c #7D7D7D",
"}.	c #959595",
"|.	c #EAEAEA",
"1.	c #D0D0D0",
"2.	c #A6A6A6",
"3.	c #AEAEAE",
"4.	c #777777",
"5.	c #565656",
"6.	c #6F6F6F",
"7.	c #707070",
"8.	c #575757",
"9.	c #C5C5C5",
"0.	c #F7F7F7",
"a.	c #FDFDFD",
"b.	c #CFCFCF",
"c.	c #616161",
"d.	c #646464",
"                      . + @                       ",
"                    # $ % & *                     ",
"                  = - ; > ; , '                   ",
"                  ) ! ~ ~ ~ { ]                   ",
"        ^ / ( _ : < [ } | } [ 1 : [ ( 2 ]         ",
"      | 3 4 5 [ 6 7 ] 8 9 0 ] 7 a 7 b 4 c d       ",
"      e f > g ^ h h i j k l d ] h _ m > 4 n       ",
"      o p q ^ r # g = s t / u v { = ^ c p w       ",
"      g x y ) z A B C D u E 8 5 F G H u x *       ",
"      I J K ^ L M N ' ^ [ O P Q R J _ K S T       ",
"        U V 7 } r W } X < a H d r } 7 Y Z         ",
"        ` 1 O W  ...d +.6 @.+ #.v u O T $.        ",
"      X g @ ) z %.5 C } ] } &.b A m H @ ..^       ",
"      / F ' ^ S *.=.L S ! J -.;.t 8 _ >.F e       ",
"      o p - [ } u u + w p ,.W r = ] '.).!.~.      ",
"      {.5 ;  .6 [ @.D 2 ].^.E @.[ a /.; (._.      ",
"      :.o - $ K <.[.O }.y i ^ @ <.1 c |.1.[       ",
"        I 2.3.4.5.6.@ '.@.'.@ 7.8.I 3.J 4.        ",
"                  @.v 9.~ 9.# ^                   ",
"                  } ;.0.a.f R }.                  ",
"                    ' o Q b.S                     ",
"                      c.. d.                      "};
