/* XPM */
static const char *filenew[] = {
"22 22 59 1",
" 	g None",
".	g #808080",
"+	g #FEFEFE",
"@	g #FDFDFD",
"#	g #F4F4F4",
"$	g #D6D6D6",
"%	g #909090",
"&	g #FCFCFC",
"*	g #F3F3F3",
"=	g #A7A7A7",
"-	g #BABABA",
";	g #FBFBFB",
">	g #FAFAFA",
",	g #F2F2F2",
"'	g #D5D5D5",
")	g #A6A6A6",
"!	g #EEEEEE",
"~	g #B7B7B7",
"{	g #F9F9F9",
"]	g #F0F0F0",
"^	g #D3D3D3",
"/	g #E8E8E8",
"(	g #B4B4B4",
"_	g #F8F8F8",
":	g #F7F7F7",
"<	g #E2E2E2",
"[	g #B1B1B1",
"}	g #F6F6F6",
"|	g #F5F5F5",
"1	g #D4D4D4",
"2	g #ABABAB",
"3	g #D1D1D1",
"4	g #A8A8A8",
"5	g #DBDBDB",
"6	g #9F9F9F",
"7	g #959595",
"8	g #929292",
"9	g #8E8E8E",
"0	g #E7E7E7",
"a	g #DADADA",
"b	g #CFCFCF",
"c	g #CECECE",
"d	g #BBBBBB",
"e	g #F1F1F1",
"f	g #EFEFEF",
"g	g #EAEAEA",
"h	g #EDEDED",
"i	g #D2D2D2",
"j	g #ECECEC",
"k	g #E6E6E6",
"l	g #CDCDCD",
"m	g #E4E4E4",
"n	g #CBCBCB",
"o	g #E5E5E5",
"p	g #E3E3E3",
"q	g #CACACA",
"r	g #E1E1E1",
"s	g #C9C9C9",
"t	g #C1C1C1",
"                      ",
"                      ",
"    .........         ",
"    .++++@#$%.        ",
"    .@@@@&*$=-.       ",
"    .&;;;>,')!~.      ",
"    .>>>>{]^)//(.     ",
"    .____:!^)<<<[.    ",
"    .:}}}|!1233334.   ",
"    .|####!5678889.   ",
"    .*,,,,]0a3bccd.   ",
"    .e]]]]f!g/000c.   ",
"    .]!!!!!!!hhhhi.   ",
"    .hjjjjjjjjjjj3.   ",
"    .jgggggggggggb.   ",
"    .g///////////c.   ",
"    ./kkkkkkkkkkkl.   ",
"    .kmmmmmmmmmmmn.   ",
"    .opppppppppppq.   ",
"    .rssssssssssst.   ",
"    ...............   ",
"                      "};





































