/* XPM */
static const char * fileopen_xpm[] = {
"64 64 496 2",
"  	c None",
". 	c #000000",
"+ 	c #0F0F0F",
"@ 	c #6E675C",
"# 	c #7B6B4C",
"$ 	c #7C6B4C",
"% 	c #7C6C4C",
"& 	c #7C6C4D",
"* 	c #7D6C4D",
"= 	c #7D6D4D",
"- 	c #7D6D4E",
"; 	c #7E6D4E",
"> 	c #7E6E4F",
", 	c #7F6E4F",
"' 	c #7F6E50",
") 	c #6E6045",
"! 	c #1F1B13",
"~ 	c #CFCFCF",
"{ 	c #FEF7EC",
"] 	c #F9D89A",
"^ 	c #FAD99B",
"/ 	c #FADA9B",
"( 	c #FBDA9C",
"_ 	c #FCDB9D",
": 	c #FDDC9E",
"< 	c #FEDD9F",
"[ 	c #FDDC9F",
"} 	c #FCDB9E",
"| 	c #FBDA9D",
"1 	c #EBCC93",
"2 	c #FFFFFF",
"3 	c #FDECCD",
"4 	c #FBD99D",
"5 	c #FAD99C",
"6 	c #FAD89C",
"7 	c #F9D89B",
"8 	c #F9D79B",
"9 	c #5D503A",
"0 	c #FEEECF",
"a 	c #F8D79B",
"b 	c #F8D69A",
"c 	c #F7D69A",
"d 	c #F7D599",
"e 	c #D7BA86",
"f 	c #0F0D09",
"g 	c #BFBFBF",
"h 	c #FEF4E1",
"i 	c #F6D499",
"j 	c #F5D398",
"k 	c #F4D297",
"l 	c #A89068",
"m 	c #FEF5E6",
"n 	c #F3D197",
"o 	c #F3D196",
"p 	c #F3D096",
"q 	c #F2D096",
"r 	c #C4A879",
"s 	c #4B402E",
"t 	c #AFAFAE",
"u 	c #FDF5E5",
"v 	c #F2CF95",
"w 	c #F1CF95",
"x 	c #F1CE95",
"y 	c #F0CE94",
"z 	c #F0CD94",
"A 	c #EFCD94",
"B 	c #EFCC93",
"C 	c #EECB93",
"D 	c #EECB92",
"E 	c #EDCB92",
"F 	c #EDCA92",
"G 	c #EDCA91",
"H 	c #ECC991",
"I 	c #EBC890",
"J 	c #EAC790",
"K 	c #EAC78F",
"L 	c #E9C68F",
"M 	c #E9C68E",
"N 	c #E9C58E",
"O 	c #E8C58E",
"P 	c #E8C48D",
"Q 	c #E7C48D",
"R 	c #E7C38D",
"S 	c #816D4F",
"T 	c #7F7F7F",
"U 	c #FFFFFE",
"V 	c #ECCA91",
"W 	c #E7C38C",
"X 	c #E6C38C",
"Y 	c #E6C28C",
"Z 	c #E5C28C",
"` 	c #816C4E",
" .	c #FFFFFD",
"..	c #E5C18B",
"+.	c #E4C18B",
"@.	c #E4C08B",
"#.	c #E4C08A",
"$.	c #0E0C08",
"%.	c #7F7F7E",
"&.	c #E5C28B",
"*.	c #E3C08A",
"=.	c #E3BF8A",
"-.	c #554733",
";.	c #E2BF89",
">.	c #E2BE89",
",.	c #8D7655",
"'.	c #5F5F5E",
").	c #FFFFFC",
"!.	c #B79A6F",
"~.	c #3F3F3F",
"{.	c #F2D8AC",
"].	c #E4C288",
"^.	c #D1B171",
"/.	c #C3A562",
"(.	c #C1A35F",
"_.	c #F1D6AC",
":.	c #E3C187",
"<.	c #BB9B57",
"[.	c #B59450",
"}.	c #B4934F",
"|.	c #B3924F",
"1.	c #B2924E",
"2.	c #B2914E",
"3.	c #B1914E",
"4.	c #B1904E",
"5.	c #B0904D",
"6.	c #B08F4D",
"7.	c #AF8F4D",
"8.	c #AE8E4C",
"9.	c #AD8D4C",
"0.	c #AD8C4C",
"a.	c #AC8C4B",
"b.	c #AC8B4B",
"c.	c #AB8B4B",
"d.	c #AA8A4A",
"e.	c #060400",
"f.	c #3F3F3E",
"g.	c #FFFEFB",
"h.	c #EFD5AA",
"i.	c #CDAE6E",
"j.	c #B89753",
"k.	c #A07A35",
"l.	c #926823",
"m.	c #916723",
"n.	c #8F6522",
"o.	c #8D6320",
"p.	c #8B611F",
"q.	c #885F1E",
"r.	c #865D1D",
"s.	c #835B1C",
"t.	c #81591B",
"u.	c #7F5719",
"v.	c #7D5518",
"w.	c #7A5217",
"x.	c #785116",
"y.	c #764F15",
"z.	c #744C13",
"A.	c #714A12",
"B.	c #6F4811",
"C.	c #6C4610",
"D.	c #6A440F",
"E.	c #68420E",
"F.	c #191003",
"G.	c #3F3C37",
"H.	c #3F3F3D",
"I.	c #2F2F2E",
"J.	c #EED4A9",
"K.	c #E6C38B",
"L.	c #C0A25E",
"M.	c #AF8C48",
"N.	c #C1A36F",
"O.	c #E3D6BE",
"P.	c #E3D8C4",
"Q.	c #E3D8C3",
"R.	c #FFFEF9",
"S.	c #FFFEF8",
"T.	c #FFFEF7",
"U.	c #FFFEF6",
"V.	c #FFFEF5",
"W.	c #AEABA2",
"X.	c #EDD2A9",
"Y.	c #D9B77D",
"Z.	c #BD9F5B",
"`.	c #BA9A56",
" +	c #946B26",
".+	c #C8AE82",
"++	c #FFFEFA",
"@+	c #FDF4E2",
"#+	c #FDF4E1",
"$+	c #FDF3E1",
"%+	c #FCF3E0",
"&+	c #FBEDD4",
"*+	c #F9E8C8",
"=+	c #F9E8C7",
"-+	c #F9E7C7",
";+	c #F9E7C6",
">+	c #F8E7C6",
",+	c #F8E6C6",
"'+	c #F8E6C5",
")+	c #F7E6C5",
"!+	c #F7E5C5",
"~+	c #F7E5C4",
"{+	c #F6E5C4",
"]+	c #2C261B",
"^+	c #ECD1A8",
"/+	c #CFAE71",
"(+	c #B99B57",
"_+	c #9F7A36",
":+	c #AC8C58",
"<+	c #FDF6E8",
"[+	c #F8DBA6",
"}+	c #F7D59A",
"|+	c #F6D498",
"1+	c #F5D298",
"2+	c #F4D197",
"3+	c #F2CF96",
"4+	c #EECC93",
"5+	c #3B3224",
"6+	c #EBD0A7",
"7+	c #C09F5F",
"8+	c #B59753",
"9+	c #8E6523",
"0+	c #D4C4A8",
"a+	c #F7DBAA",
"b+	c #F1CE94",
"c+	c #EFCD93",
"d+	c #EBC790",
"e+	c #DCBB87",
"f+	c #EACFA6",
"g+	c #B99958",
"h+	c #A78542",
"i+	c #F7F4EB",
"j+	c #FCF2E0",
"k+	c #ECC891",
"l+	c #EAC68F",
"m+	c #826E4F",
"n+	c #EACFA5",
"o+	c #AB8C48",
"p+	c #987433",
"q+	c #A38453",
"r+	c #F6E0BA",
"s+	c #ECC890",
"t+	c #2B241A",
"u+	c #E9CEA5",
"v+	c #DAB780",
"w+	c #A78844",
"x+	c #8B6425",
"y+	c #C0AB89",
"z+	c #F1D2A0",
"A+	c #E8C48E",
"B+	c #C7A879",
"C+	c #D2AF76",
"D+	c #A38340",
"E+	c #80581B",
"F+	c #DED4C0",
"G+	c #FCF7EB",
"H+	c #E3BF89",
"I+	c #7F6B4D",
"J+	c #E9CEA4",
"K+	c #D1AD75",
"L+	c #9B7937",
"M+	c #F6F3EA",
"N+	c #F8EDD7",
"O+	c #463B2A",
"P+	c #7F7F7C",
"Q+	c #E3C18F",
"R+	c #C19F64",
"S+	c #906D2D",
"T+	c #805B24",
"U+	c #F3E1C2",
"V+	c #D3B280",
"W+	c #E1BD87",
"X+	c #BB995D",
"Y+	c #856123",
"Z+	c #97794C",
"`+	c #ECD1A7",
" @	c #E1BD88",
".@	c #9B825D",
"+@	c #7F7F7B",
"@@	c #E0BD87",
"#@	c #B9965A",
"$@	c #7B561B",
"%@	c #B8A484",
"&@	c #E5C391",
"*@	c #E2BE88",
"=@	c #62523B",
"-@	c #E0BC86",
";@	c #A78546",
">@	c #755017",
",@	c #BFAE92",
"'@	c #FDFAEF",
")@	c #E0BC87",
"!@	c #2A2319",
"~@	c #DFBC86",
"{@	c #9F7D3E",
"]@	c #6A430F",
"^@	c #DACFBC",
"/@	c #F7EEDA",
"(@	c #DFBB86",
"_@	c #D1AF7D",
":@	c #9F9E99",
"<@	c #DFBB85",
"[@	c #8E6C2C",
"}@	c #67410D",
"|@	c #ECE6D9",
"1@	c #F4E6CD",
"2@	c #DEBA85",
"3@	c #DEBA84",
"4@	c #98805B",
"5@	c #BFBEB8",
"6@	c #F6EDD9",
"7@	c #DEBB84",
"8@	c #7A5618",
"9@	c #643E0C",
"0@	c #F0DDBE",
"a@	c #DDB984",
"b@	c #DDB983",
"c@	c #DCB883",
"d@	c #605039",
"e@	c #D1AE76",
"f@	c #745014",
"g@	c #7E6036",
"h@	c #EAD1AA",
"i@	c #DCB882",
"j@	c #DBB782",
"k@	c #DBB781",
"l@	c #DAB681",
"m@	c #362D20",
"n@	c #BFBEB7",
"o@	c #F6EDD8",
"p@	c #C3A067",
"q@	c #6B470E",
"r@	c #866A43",
"s@	c #E7CCA2",
"t@	c #DAB680",
"u@	c #D9B57F",
"v@	c #D8B47E",
"w@	c #F2E4C9",
"x@	c #AF8B4F",
"y@	c #643F0A",
"z@	c #A28D6E",
"A@	c #FFFDF4",
"B@	c #D7B37D",
"C@	c #D7B37C",
"D@	c #D6B27C",
"E@	c #D6B27B",
"F@	c #BB9B6C",
"G@	c #EDDBBB",
"H@	c #9F7B3E",
"I@	c #5D3906",
"J@	c #AB987C",
"K@	c #D9B580",
"L@	c #D5B17B",
"M@	c #D5B17A",
"N@	c #D4B07A",
"O@	c #D4B079",
"P@	c #D3AF79",
"Q@	c #D3AF78",
"R@	c #9E835A",
"S@	c #EDDABA",
"T@	c #8A6627",
"U@	c #553104",
"V@	c #D4C9B8",
"W@	c #F6EBD7",
"X@	c #D8B47D",
"Y@	c #D2AE78",
"Z@	c #D2AE77",
"`@	c #D1AD77",
" #	c #D1AD76",
".#	c #D0AC76",
"+#	c #D0AC75",
"@#	c #CFAB74",
"##	c #67553A",
"$#	c #E6CDA4",
"%#	c #6F4B0A",
"&#	c #543004",
"*#	c #DED6C6",
"=#	c #F5EBD6",
"-#	c #CEAA73",
";#	c #CDA972",
">#	c #CCA871",
",#	c #CCA870",
"'#	c #594931",
")#	c #FFFDF3",
"!#	c #C8AD7E",
"~#	c #684408",
"{#	c #EBD8B8",
"]#	c #CEAA72",
"^#	c #CBA770",
"/#	c #CBA76F",
"(#	c #CAA66F",
"_#	c #CAA66E",
":#	c #C9A56E",
"<#	c #C9A56D",
"[#	c #C8A46D",
"}#	c #C8A46C",
"|#	c #C7A36C",
"1#	c #31281A",
"2#	c #3F3F3C",
"3#	c #A08552",
"4#	c #644007",
"5#	c #745630",
"6#	c #EAD7B6",
"7#	c #CDA971",
"8#	c #C7A36B",
"9#	c #C6A26A",
"0#	c #C5A169",
"a#	c #C4A068",
"b#	c #C39F67",
"c#	c #18140D",
"d#	c #937744",
"e#	c #5F3B06",
"f#	c #947C5D",
"g#	c #FFFDF2",
"h#	c #DDC296",
"i#	c #C4A067",
"j#	c #C39F66",
"k#	c #C29E66",
"l#	c #C29E65",
"m#	c #C19D65",
"n#	c #C09C64",
"o#	c #C09C63",
"p#	c #BF9B63",
"q#	c #BF9B62",
"r#	c #BE9A62",
"s#	c #B2905B",
"t#	c #2F2F2D",
"u#	c #A38C60",
"v#	c #573304",
"w#	c #BEB098",
"x#	c #D4B483",
"y#	c #C6A26B",
"z#	c #C5A168",
"A#	c #C19D64",
"B#	c #BE9A61",
"C#	c #BD9960",
"D#	c #BC985F",
"E#	c #BB975E",
"F#	c #BB975D",
"G#	c #BA965D",
"H#	c #B9955C",
"I#	c #B9955B",
"J#	c #8A6F44",
"K#	c #DFDDD3",
"L#	c #E9E3D4",
"M#	c #89704E",
"N#	c #F4F0E3",
"O#	c #F8F2E1",
"P#	c #B8945B",
"Q#	c #B8945A",
"R#	c #B7935A",
"S#	c #B79359",
"T#	c #B69258",
"U#	c #B59158",
"V#	c #B59157",
"W#	c #B49056",
"X#	c #B38F55",
"Y#	c #4E3E25",
"Z#	c #4F4F4B",
"`#	c #FFFDF1",
" $	c #D8BE94",
".$	c #B69259",
"+$	c #B49057",
"@$	c #B28E54",
"#$	c #B18D53",
"$$	c #B08C52",
"%$	c #B08C51",
"&$	c #AF8B51",
"*$	c #AE8A50",
"=$	c #AE8A4F",
"-$	c #AD894E",
";$	c #AC884E",
">$	c #151109",
",$	c #7F7E78",
"'$	c #4C4942",
")$	c #302719",
"!$	c #302718",
"~$	c #2F2618",
"{$	c #2F2617",
"]$	c #2E2517",
"^$	c #453722",
"/$	c #5C4A2D",
"($	c #5B492D",
"_$	c #5B492C",
":$	c #5A482B",
"<$	c #59472A",
"[$	c #584629",
"}$	c #574528",
"|$	c #574527",
"1$	c #564427",
"2$	c #564426",
"3$	c #554326",
"4$	c #554325",
"5$	c #544225",
"6$	c #544224",
"7$	c #342916",
"                                                                                                                                ",
"                                                                                                                                ",
"                                                                                                                                ",
"                                                                                                                                ",
"                                                                                                                                ",
"                                                                                                                                ",
"                                                                                                                                ",
"                                                                                                                                ",
"                                                                                                                                ",
"        . . . . . . . . . . . . . . . . . . . . .                                                                               ",
"        . + @ # $ % & * = - ; ; > > , ' , > ) ! . .                                                                             ",
"      . . ~ { ] ^ / ( _ _ : : < < < [ : } _ | 1 . .                                                                             ",
"      . . 2 3 _ _ : : < < < [ : } _ | 4 5 6 7 8 9 . .                                                                           ",
"      . . 2 0 < < < [ : } _ | 4 5 6 7 8 a b c d e f .                                                                           ",
"      . . g h : } _ | 4 5 6 7 8 a b c d i i j j k l f . . . . . . . . . . . . . . . . . . . . . . . .                           ",
"      . . g m 4 5 6 7 8 a b c d i i j j k k n o p q r s . . . . . . . . . . . . . . . . . . . . . . . .                         ",
"      . . t u 8 a b c d i i j j k k n o p q v w x y z A B B C D E F G H H I I J K K L M N O O P Q R S . .                       ",
"        . T U d i i j j k k n o p q v w x y z A B B C D E F V H H I I J K K L M N O O P Q R W X Y Y Z ` . .                     ",
"        . T  .j k k n o p q v w x y z A B B C D E F V H H I I J K K L M N O O P Q R W X Y Y Z ....+.@.#.$..                     ",
"        . %. .o p q v w x y z A B B C D E F V H H I I J K K L M N O O P Q R W X Y Y &.....+.@.#.#.*.=.=.-..                     ",
"        . %. .w x y z A B B C D E F V H H I I J K K L M N O O P Q R W X Y Y &.....+.@.#.#.=.=.=.=.;.>.>.,.. .                   ",
"        . '.).A B B C D E F V H H I I J K K L M N O O P Q R W X Y Y &.....+.@.#.#.=.=.=.=.;.>.>.>.>.>.>.!.. .                   ",
"        . ~.).{.E F V ].^./.(.(.(.(.(.(.(.(.(.(.(.(.(.(.(.(.(.(.(.(.(.(.(.(.(.(.(.(.(.(.(.(.(.(.(.(.(.(.(.. .                   ",
"        . ~.)._.H I :./.(.(.(.(.(.(.(.(.(.(.(.(.(.(.(.(.(.<.[.[.[.[.[.}.}.|.1.2.3.4.5.6.7.8.8.9.0.a.b.c.d.e.. . . . . .         ",
"        . f.g.h.K K i.(.(.j.k.l.l.l.l.l.l.l.l.l.l.l.l.l.l.l.l.l.l.l.m.n.o.p.q.r.s.t.u.v.w.x.y.z.A.B.C.D.E.F.G.H.H.H.I.. .       ",
"        . f.g.J.N K.L.(.M.l.N.O.P.P.P.P.P.Q.Q.Q.Q.Q.Q.R.R.R.S.S.S.S.S.S.S.S.S.T.T.T.T.T.T.T.T.T.T.U.U.U.U.U.U.U.U.U.V.W.. .     ",
"        . f.g.X.Q Y.Z.`. +.+++++@+@+@+#+#+#+#+#+$+$+$+%+%+%+%+%+%+%+&+*+=+=+-+-+-+;+;+>+>+,+,+,+'+'+'+)+)+!+!+!+~+~+~+{+]+.     ",
"        . f.++^+Y /+(+_+:+++<+[+}+}+d d i i i |+j j j 1+k k k 2+n n o p q q 3+v w w x x y y z z A B B B 4+C D D E F F G 5+.     ",
"        . f.++6+..7+8+9+0+R.a+j j j 1+k k k 2+n o p p q q v v w w x b+y z z z c+B B B 4+C D D F F F G H H H H I I I d+e+. .     ",
"        . f.++f+#.g+h+q.i+j+n o p p q q v v w x x y y z z A c+B B B C D D D F F G G H H H k+I I I d+J K K l+L L N N O m+. .     ",
"        . f.R.n+=.o+p+q+R.r+x x y y z z A B B B 4+C D D E F F G H H H H s+I I I J K K l+L L M N O O O P P Q R R W X Y t+.       ",
"        . f.R.u+v+w+x+y+S.z+B 4+C D D F F F G H H H H I I I d+J K K l+L L M N O O A+P Q Q R R X X Y Y Z ......+.@.@.B+. .       ",
"        . f.R.u+C+D+E+F+G+G H H H k+I I I d+J K K l+L L N N O O A+P Q Q R R X Y Y Y Z ......+.@.#.#.=.=.=.H+>.>.>.>.I+. .       ",
"        . f.S.J+K+L+w.M+N+K K l+L L M N O O O P P Q R R W X Y Y Y Z ....+.@.@.#.#.=.=.=.H+>.>.>.>.>.>.>.>.>.>.>.>.>.O+.         ",
"        . P+S.Q+R+S+T+T.U+A+P Q Q R R X X Y Y Z ......+.@.@.#.*.=.=.=.>.>.>.>.>.>.>.>.>.>.>.>.>.>.>.>.>.>.>.>.>.>.V+. .         ",
"        . P+T.W+X+Y+Z+T.`+Y Z ......+.@.#.#.=.=.=.H+>.>.>.>.>.>.>.>.>.>.>.>.>.>.>.>.>.>.>.>.>.>.>.>.>.>.>. @ @ @ @.@. .         ",
"        . +@T.@@#@$@%@T.&@=.=.=.H+>.>.>.>.>.>.>.>.>.>.>.>.>.>.>.>.>.>.>.>.>.>.>.>.>.>.*@ @ @ @ @ @ @ @ @ @ @ @ @ @=@.           ",
"        . +@T.-@;@>@,@'@>.>.>.>.>.>.>.>.>.>.>.>.>.>.>.>.>.>.>.>.>.>.*@ @ @ @ @ @ @ @ @ @ @ @ @ @ @W+)@)@)@)@)@)@)@!@.           ",
"        . +@U.~@{@]@^@/@>.>.>.>.>.>.>.>.>.>.>.>.>. @ @ @ @ @ @ @ @ @ @ @ @ @ @ @W+)@)@)@)@)@)@)@)@-@-@(@(@(@(@(@_@. .           ",
"        . :@U.<@[@}@|@1@>.>.>.*@ @ @ @ @ @ @ @ @ @ @ @ @ @ @W+W+)@)@)@)@)@)@)@-@-@-@(@(@(@(@(@<@<@<@2@2@2@2@3@3@4@. .           ",
"        . 5@6@7@8@9@V.0@ @ @ @ @ @ @ @ @ @W+)@)@)@)@)@)@)@)@-@-@(@(@(@(@(@(@<@<@2@2@2@2@2@3@3@a@a@a@a@b@b@b@c@c@d@.             ",
"        . 5@6@e@f@g@V.h@W+)@)@)@)@)@)@)@)@-@-@(@(@(@(@(@(@<@<@2@2@2@2@2@3@3@a@a@a@a@b@b@c@c@c@i@i@i@j@j@k@k@k@l@m@.             ",
"      . . n@o@p@q@r@V.s@-@-@(@(@(@(@(@<@<@<@2@2@2@2@3@3@3@a@a@a@b@b@b@c@c@c@i@i@j@j@j@k@k@k@l@t@t@t@u@u@u@u@v@v@. .             ",
"      . . V.w@x@y@z@A@<@2@2@2@2@2@3@3@a@a@a@a@b@b@b@c@c@i@i@i@j@j@k@k@k@l@t@t@t@t@u@u@u@u@v@v@v@B@B@B@C@D@D@E@F@. .             ",
"      . . A@G@H@I@J@A@a@a@a@b@b@c@c@c@i@i@i@j@j@k@k@k@l@t@t@t@K@u@u@u@v@v@v@v@B@B@B@C@D@D@E@L@L@M@N@N@O@P@P@Q@R@. .             ",
"      . . A@S@T@U@V@W@i@j@j@j@k@k@k@l@t@t@t@u@u@u@u@v@v@v@X@B@B@C@D@D@D@E@L@L@M@N@N@O@P@Q@Q@Y@Z@Z@`@ #.#+#+#@###. .             ",
"      . H.A@$#%#&#*#=#t@t@u@u@u@u@v@v@v@B@B@B@C@D@D@E@L@L@M@N@N@O@O@P@Q@Q@Y@Z@`@ # #.#+#+#@#@#-#-#-#;#;#>#>#,#'#.               ",
"      . H.)#!#~#&#)#{#B@B@B@C@D@D@E@L@L@M@N@N@O@P@P@Q@Y@Z@Z@`@ # #+#+#+#@#@#-#-#]#;#;#>#>#^#^#/#(#_#:#<#[#}#|#1#.               ",
"      . 2#)#3#4#5#)#6#M@N@N@O@P@Q@Q@Y@Z@Z@`@ #.#+#+#@#@#@#-#-#;#;#7#>#,#^#^#(#(#_#:#<#[#}#8#8#9#9#0#0#a#a#b#b#c#.               ",
"      . 2#)#d#e#f#g#h#`@ # #.#+#+#@#@#-#-#-#;#;#>#>#,#^#/#(#_#:#<#[#}#}#8#8#9#9#0#0#a#i#b#j#k#l#m#n#o#p#q#r#s#. .               ",
"      . t#g#u#v#w#g#x#-#]#;#;#>#>#^#^#/#(#_#:#<#[#}#|#8#y#9#0#0#z#a#b#b#k#k#m#A#n#o#p#q#B#B#C#D#D#E#F#G#H#I#J#. .               ",
"      . . K#L#M#N#O#(#(#_#:#<#[#}#8#8#9#9#0#0#a#a#b#b#k#l#m#A#n#o#q#r#B#C#C#D#D#E#G#G#H#P#Q#R#S#T#U#V#W#X#X#Y#.                 ",
"        . Z#g#`#`# $9#9#0#0#a#i#b#j#k#l#m#n#o#p#q#r#B#C#C#D#E#E#G#H#H#P#Q#R#.$T#V#+$W#X#@$@$#$$$%$&$*$=$-$;$>$.                 ",
"        . . 2#,$'$1#)$)$)$)$)$)$)$!$~$~$~$~$~${${$]$]$]$^$/$($_$_$:$:$:$<$<$<$[$[$[$}$}$|$1$1$2$3$4$5$5$6$7$. .                 ",
"          . . . . . . . . . . . . . . . . . . . . . . . . . . . . . . . . . . . . . . . . . . . . . . . . . .                   ",
"                                                                                                    . . .                       ",
"                                                                                                                                ",
"                                                                                                                                ",
"                                                                                                                                ",
"                                                                                                                                ",
"                                                                                                                                ",
"                                                                                                                                ",
"                                                                                                                                ",
"                                                                                                                                "};
