/* XPM */
static const char * filesave_xpm[] = {
"64 64 275 2",
"  	c None",
". 	c #000000",
"+ 	c #202020",
"@ 	c #696969",
"# 	c #555555",
"$ 	c #3C3C3C",
"% 	c #252525",
"& 	c #161616",
"* 	c #0A0A0A",
"= 	c #2F2F2F",
"- 	c #CECECE",
"; 	c #B0B0B0",
"> 	c #8B8B8B",
", 	c #868686",
"' 	c #7E7E7E",
") 	c #6F6F6F",
"! 	c #606060",
"~ 	c #464646",
"{ 	c #080808",
"] 	c #DEDEDE",
"^ 	c #FFFFFF",
"/ 	c #EAEAEA",
"( 	c #9E9E9E",
"_ 	c #7A7A7A",
": 	c #747474",
"< 	c #6A6A6A",
"[ 	c #676767",
"} 	c #444444",
"| 	c #070707",
"1 	c #D7D7D7",
"2 	c #C5C5C5",
"3 	c #E1E1E1",
"4 	c #FCFCFC",
"5 	c #E6E6E6",
"6 	c #949494",
"7 	c #6D6D6D",
"8 	c #686868",
"9 	c #626262",
"0 	c #5C5C5C",
"a 	c #585858",
"b 	c #3B3B3B",
"c 	c #060606",
"d 	c #010101",
"e 	c #D8D8D8",
"f 	c #BBBBBB",
"g 	c #828282",
"h 	c #919191",
"i 	c #DFDFDF",
"j 	c #F9F8F8",
"k 	c #616161",
"l 	c #5B5B5B",
"m 	c #4F4F4F",
"n 	c #4C4C4C",
"o 	c #343434",
"p 	c #090909",
"q 	c #050505",
"r 	c #848484",
"s 	c #818181",
"t 	c #787878",
"u 	c #858585",
"v 	c #D9D9D9",
"w 	c #F4F4F4",
"x 	c #DCDCDC",
"y 	c #838383",
"z 	c #565656",
"A 	c #515151",
"B 	c #4D4D4D",
"C 	c #484848",
"D 	c #454545",
"E 	c #313131",
"F 	c #111111",
"G 	c #0E0E0E",
"H 	c #2E2E2E",
"I 	c #BABABA",
"J 	c #7B7B7B",
"K 	c #D3D3D3",
"L 	c #F0F0F0",
"M 	c #7D7D7D",
"N 	c #4E4E4E",
"O 	c #494949",
"P 	c #404040",
"Q 	c #3F3F3F",
"R 	c #303030",
"S 	c #181818",
"T 	c #0F0F0F",
"U 	c #A6A6A6",
"V 	c #5D5D5D",
"W 	c #6E6E6E",
"X 	c #CCCCCC",
"Y 	c #D2D2D2",
"Z 	c #474747",
"` 	c #424242",
" .	c #3E3E3E",
"..	c #3A3A3A",
"+.	c #373737",
"@.	c #2C2C2C",
"#.	c #1E1E1E",
"$.	c #131313",
"%.	c #DBDBDB",
"&.	c #F8F8F8",
"*.	c #EEEEEE",
"=.	c #9D9D9D",
"-.	c #505050",
";.	c #C4C4C4",
">.	c #E3E3E3",
",.	c #CDCDCD",
"'.	c #414141",
").	c #393939",
"!.	c #292929",
"~.	c #232323",
"{.	c #262626",
"].	c #F7F7F7",
"^.	c #F5F5F5",
"/.	c #929292",
"(.	c #545454",
"_.	c #434343",
":.	c #BCBCBC",
"<.	c #C7C7C7",
"[.	c #717171",
"}.	c #3D3D3D",
"|.	c #2B2B2B",
"1.	c #1C1C1C",
"2.	c #F3F3F3",
"3.	c #F1F1F1",
"4.	c #E5E5E5",
"5.	c #888888",
"6.	c #363636",
"7.	c #B2B2B2",
"8.	c #D4D3D3",
"9.	c #C1C1C1",
"0.	c #333333",
"a.	c #282828",
"b.	c #2A2A2A",
"c.	c #323232",
"d.	c #EFEEEE",
"e.	c #ECECEC",
"f.	c #EDEDED",
"g.	c #E0DFDF",
"h.	c #A7A7A7",
"i.	c #C9C9C9",
"j.	c #BBBABA",
"k.	c #636363",
"l.	c #383838",
"m.	c #242424",
"n.	c #E7E7E7",
"o.	c #E7E6E6",
"p.	c #727272",
"q.	c #2D2D2D",
"r.	c #9A9999",
"s.	c #C3C2C2",
"t.	c #999898",
"u.	c #F6F6F6",
"v.	c #E4E4E4",
"w.	c #E1E0E0",
"x.	c #E0E0E0",
"y.	c #D2D1D1",
"z.	c #666666",
"A.	c #979696",
"B.	c #C4C3C3",
"C.	c #969696",
"D.	c #DEDDDD",
"E.	c #979797",
"F.	c #C6C5C5",
"G.	c #959595",
"H.	c #020202",
"I.	c #E4E3E3",
"J.	c #DDDDDD",
"K.	c #D5D5D5",
"L.	c #D1D1D1",
"M.	c #D1D0D0",
"N.	c #BFBFBF",
"O.	c #5E5E5E",
"P.	c #949393",
"Q.	c #939292",
"R.	c #878787",
"S.	c #7C7C7C",
"T.	c #4A4A4A",
"U.	c #D0D0D0",
"V.	c #5F5F5F",
"W.	c #909090",
"X.	c #B4B4B4",
"Y.	c #ADADAD",
"Z.	c #EAE9E9",
"`.	c #BDBCBC",
" +	c #EFEFEF",
".+	c #B5B5B5",
"++	c #4B4B4B",
"@+	c #595959",
"#+	c #353535",
"$+	c #939393",
"%+	c #9C9C9C",
"&+	c #E8E8E8",
"*+	c #F4F3F3",
"=+	c #8A8A8A",
"-+	c #999999",
";+	c #FAFAFA",
">+	c #F2F2F2",
",+	c #777777",
"'+	c #898989",
")+	c #FDFDFD",
"!+	c #FBFBFB",
"~+	c #B3B3B3",
"{+	c #535353",
"]+	c #656565",
"^+	c #F9F9F9",
"/+	c #E2E2E2",
"(+	c #1B1B1B",
"_+	c #D8D7D7",
":+	c #BCBBBB",
"<+	c #525252",
"[+	c #9F9F9F",
"}+	c #B1B1B1",
"|+	c #646464",
"1+	c #5A5A5A",
"2+	c #DDDCDC",
"3+	c #A0A0A0",
"4+	c #A8A8A8",
"5+	c #E9E9E9",
"6+	c #767676",
"7+	c #707070",
"8+	c #6C6C6C",
"9+	c #747373",
"0+	c #CACACA",
"a+	c #575757",
"b+	c #A1A1A1",
"c+	c #EBEBEB",
"d+	c #A9A9A9",
"e+	c #CFCFCF",
"f+	c #DADADA",
"g+	c #BDBDBD",
"h+	c #737373",
"i+	c #1F1F1F",
"j+	c #C2C2C2",
"k+	c #CDCCCC",
"l+	c #AFAFAF",
"m+	c #CBCBCB",
"n+	c #D4D4D4",
"o+	c #040404",
"p+	c #7F7F7F",
"q+	c #A2A2A2",
"r+	c #D6D6D6",
"s+	c #B9B9B9",
"t+	c #0D0D0D",
"u+	c #656464",
"v+	c #AEAEAE",
"w+	c #7E7D7D",
"x+	c #B8B8B8",
"y+	c #B6B6B6",
"z+	c #808080",
"A+	c #8F8F8F",
"B+	c #151515",
"C+	c #171717",
"D+	c #BEBEBE",
"E+	c #C6C6C6",
"F+	c #A3A3A3",
"G+	c #6B6B6B",
"H+	c #191919",
"I+	c #1A1A1A",
"J+	c #9B9B9B",
"K+	c #ACACAC",
"L+	c #B7B7B7",
"M+	c #222222",
"N+	c #C0C0C0",
"O+	c #AAAAAA",
"P+	c #212121",
"Q+	c #272727",
"R+	c #C3C3C3",
"S+	c #C8C8C8",
"T+	c #FEFEFE",
"U+	c #9A9A9A",
"V+	c #030303",
"W+	c #A5A5A5",
"X+	c #797979",
"Y+	c #141414",
"Z+	c #0B0B0B",
"                                                                                                                                ",
"                                                        . . . . . .                                                             ",
"                                                      . . . . . . . . . . .                                                     ",
"                                                    . + @ # $ % & * . . . . .                                                   ",
"                                                  . = - ; > , ' ) ! ~ { . . . .                                                 ",
"                                                . = ] ^ / ( _ : ) < [ } | . . . .                                               ",
"                                              . = 1 2 3 4 5 6 7 8 9 0 a b c . d . .                                             ",
"                                            . = e f g h i j 3 > k l # m n o p c q . .                                           ",
"                                          . = e f r s t u v w x y z A B C D E F G * . .                                         ",
"                                        . H 1 I r s J : < _ K L 1 M N O D P Q R S & T d .                                       ",
"                                      . H x 4 U M J : 7 8 V W X / Y t Z `  ...+.@.#.#.$.d .                                     ",
"                                    . H %.^ &.*.=.) 7 8 9 l -.9 ;.>.,.: '.$ ).o R !.~.{.S . .                                   ",
"                                  . H %.^ ].^.^./ /.9 k l (.N _.z :.x <.[.}.+.o = |.% % @.1.d .                                 ",
"                                . H %.^ ].^.2.3.3.4.5.z (.N C '.6.O 7.8.9.W ).0.R |.!.a.b.c.+ d .                               ",
"                              . H %.^ ].^.2.3.d.e.f.g.M O Z '.b o !.}.h.i.j.k.0.R H H = H = l.m.d .                             ",
"                            . H %.^ ].^.2.3.d.e./ n.o.v p.b b o q.m.@.r.s.t.k o c.0.o o o 0.o  .a.d .                           ",
"                          . H %.^ u.^.2.3.d.e./ n.v.w.x.y.z.H H m.H A.B.C.! Q 6.l.).).....).l...D |.d .                         ",
"                        . H %.^ u.^.2.3.d.e./ n.v.w.D.v v i.l #.H E.F.G.! ` ..$ }...+.). .Q  .}.} n H H..                       ",
"                      . = %.^ u.^.2.3.d.e./ n.I.w.J.v K.L.M.N.O.P.B.Q.k D }.P '.Q k.R.S.T.'.} ` _.B A E d .                     ",
"                    . #.U.^ u.^.2.3.d.e./ o.I.w.J.v K.L.,.i.<.s.N.> V.C '.} D ` W.e.&.w X.m ~ C ~ B # # 0.H..                   ",
"                  . 1.s Y.f.].2.3.d.e.Z.o.I.w.J.v K.L.,.i.2 9.`.> V.T.} Z O ~ G.u.^. +f.L .+(.++n n a @+@+#+H..                 ",
"                . 1.y $+r %+&+*+d.e.Z.o.I.w.J.v K.L.,.i.2 9.`.=+V.n ~ T.n T.-+;+&.>+ + +e.e..+a -.-.@+k 0 0 +.H..               ",
"              . 1.y 6 5.g ,+h >. +Z.o.I.w.J.v K.L.,.i.2 9.`.'+O.B O B m B %+)+!+u.>+>+x.K.&+&+~+0 {+a ]+9 V.V.l.d .             ",
"            . 1.y 6 5.s J : @ R.] Z.I.w.J.v K.L.,.i.2 9.:.5.0 m ++m A m ( ^ ^ ^+u.^./+U ,.&+>.v.~+V.a 8 @ ]+k k ).H..           ",
"          . (+g 6 5.g J : 7 @ k s _+I.J.v K.L.,.i.2 9.:+, l m n A <+<+[+^ ^ )+^+&.v.h.X e.5 /+i x.}+k [ W < [ k.9 ..H..         ",
"        . 1.g 6 5.g J : 7 8 |+k 1+_ y.2+K.L.,.i.2 9.:+u @+m B A (.{+3+^ ^ ^ )+4 n.4+-  +5+5 /+3 J.J.7.6+p.7+8+8 |+! l.H..       ",
"      . (+g $+5.g J : 7 [ k.! V l {+9+0+K.,.i.2 9.:+y a+N B <+# (.b+^ ^ ^ ^ ^ c+d+e+>+e.5+5 4.<.i.f+v g+s h+[.7 8 C.,+6.H..     ",
"    . i+y $+5.g J : 7 [ 9 O.l @+a+(.B W j+k+2 9.:.s {+N B <+# # b+^ ^ ^ ^ ^  +l+Y ^. +e.5+5+<.( m+f+K.n+f g : p.U  +1 : l.o+.   ",
"  . . '.6 '+g J : W [ k 0 @+a+# <+A m O @ j.;.:+p+A n n A (.# q+^ ^ ^ ^ ^ >+~+r+^+>+ +e.e.i.( - ] e K.L.L.s+s t N.^.v.g {+t+.   ",
"  . . . } r S.: W 8 k l a+# {+-.N n ++T.D u+v+w+n T.++-.{+(.b+^ ^ ^ ^ ^ >+x+%.4 u.>+ +L m+[+U.3 %.e K.Y X ,.y+z+S.x+A+a B+. .   ",
"  . . . . }.6+W 8 9 l z <+-.N n T.O C Z ~ _.{+n Z O N <+{+b+^ ^ ^ ^ ^ 2.g+i ^ ^+u.>+2.,.3+Y 4.i %.e r+~+; X 0+~+p+6+9 C+. .     ",
"    . . . . +.@ 9 l # -.N n T.C ~ D } _._.D ~ D Z n -.A 3+^ ^ ^ ^ ^  +D+3 ^ 4 ^+u.u.e+3+K.&+/+i x v .+[+E+m+<.<.F+G+H+. .       ",
"      . . . . E 0 # N ++O Z D _.` '.P '.P ` ` } O B m [+^ ^ ^ ^ ^ L 9.>.^ ^ 4 ^+^+L.3+e e.5 /+i J.y+3+0+e+0+<.0+[+I+. .         ",
"        . . . . b.m O ~ } ` P Q  . .}.}. . .'.~ T.n =.^ ^ ^ ^ ^ 3.E+5 ^ ^ ^ 4 4 K.b+%. +5+5 /+x.x+b+,.K - 0+X }+b.. .           ",
"          . . . . ~.} ` Q }.$ b ..).....b  ._.Z O J+^ ^ ^ ^ ^ 2.m+&+^ ^ ^ ^ ^ v U J.>+e.5+5 >.I q+U.r+L.- U.X.|.. .             ",
"            . . . . +  .b l.+.6.6.6.6.+...Q _.D -+^ ^ ^ ^ ^ w U./ ^ ^ ^ ^ ^ J.K+3 ^. +e.5+n.f F+K f+n+L.K L+|.. .               ",
"              . . . o+M++.0.c.c.c.c.0.6.b Q '.E.^ ^ ^ ^ ^ ^.K.e.^ ^ ^ ^ ^ 3 }+v.&.>+ +f.c+g+F+r+J.1 n+r+I @.. .                 ",
"                . . o+t+~.= H H q.H E 6.$ }.$+^ ^ ^ ^ ^ ].f+*.^ ^ ^ ^ ^ >.y+&+!+^.>+L  +N.F+e 3 %.1 f+g+q.. .                   ",
"                  . . p B+M+!.!.b.q.c.+...a 3.^ ^ ^ ^ &.i L ^ ^ ^ ^ ^ 4.f e.^ &.^.>+3.N+O+J.v.] %.J.N+q.. .                     ",
"                    . . T 1.P+% Q+q.c.+.l.7 !+^ ^ ^ ^+v.>+^ ^ ^ ^ ^ n.N+f.^ 4 &.u.2.9.K+>.n./+] 3 R+H . .                       ",
"                      . d $.P+M+a.q.c.l.b (.e.^ ^ 4 5+w ^ ^ ^ ^ ^ 5+2  +^ ^ 4 ^+].R+Y.5 / 4./+v.E+= . .                         ",
"                        . d S {.Q+q.c.+.}.Q u ;+^ )+;+^ ^ ^ ^ ^ / 0+L ^ ^ ^ )+;+S+; &+f.&+4.&+i.= . .                           ",
"                          . d (+|.@.c.+.}.` '.'+;+^ ^ ^ ^ ^ ^ e.U.>+^ ^ ^ ^ T+,..+e.L e.&+c+X E . .                             ",
"                            . H.i+R E +.$ ` Z ~ > !+^ ^ ^ ^  +1 ^.^ ^ ^ ^ ^ L.I  +2.*.e.*.e+E . .                               ",
"                              . H.~.6.#+$ '.~ ++++A+;+^ ^ u.J.&.^ ^ ^ ^ ^ K.N.2.].3.*.>+Y c.. .                                 ",
"                                . H.Q+ .b Q D T.m m h ;+^ !+!+^ ^ ^ ^ ^ e ;.u.;+^.3.^.K.c.. .                                   ",
"                                  . H.@.~ } } O N {+<+$+!+^ ^ ^ ^ ^ ^ %.i.^+)+&.^.&.1 0.. .                                     ",
"                                    . H.= N m m m A # (.6 ;+^ ^ ^ ^ ] ,.;+^ !+&.!+f+o . .                                       ",
"                                      . H.c.{+a+l V O.V.0 U+4 ^ ^ ].1 ;+^ T+!+T+J.o . .                                         ",
"                                        . H.o z 1+V.]+G+7+[.h.4 ^ ^ ^ ^ ^ T+^ x.#+. .                                           ",
"                                          . H.6.@+0 k [ 7 p.h+4+4 ^ ^ ^ ^ ^ >.6.. .                                             ",
"                                            . V++.l O.k.8 W p.7+h.4 ^ ^ ^ 5 +.. .                                               ",
"                                              . V+).V ! |+@ [.E.,+W+w ^ n.+.. .                                                 ",
"                                                . V+..V.! G+;  +g+,+W.( R . .                                                   ",
"                                                  . V+b V X+x.u.%.z+z.B+. .                                                     ",
"                                                    . V+b O.> 0+s O.S . .                                                       ",
"                                                      . V+).0 ]+a+& . .                                                         ",
"                                                        . H.o -.Y+. .                                                           ",
"                                                          . H.Z+. .                                                             ",
"                                                            . . .                                                               ",
"                                                                                                                                ",
"                                                                                                                                ",
"                                                                                                                                ",
"                                                                                                                                "};
