/* XPM */
static const char * help_xpm[] = {
"22 22 282 2",
"  	c None",
". 	c #000000",
"+ 	c #040700",
"@ 	c #070E00",
"# 	c #0E1900",
"$ 	c #142400",
"% 	c #192E00",
"& 	c #162700",
"* 	c #101D00",
"= 	c #0A0E00",
"- 	c #000400",
"; 	c #304118",
"> 	c #748958",
", 	c #A5B78A",
"' 	c #BDCDA7",
") 	c #BFCEA7",
"! 	c #9BB471",
"~ 	c #749340",
"{ 	c #50761B",
"] 	c #37560A",
"^ 	c #1D2D04",
"/ 	c #0A0C00",
"( 	c #040400",
"_ 	c #0C1600",
": 	c #6C7E50",
"< 	c #C5D1B4",
"[ 	c #E2E9DA",
"} 	c #D0DCC1",
"| 	c #B3C19B",
"1 	c #899B6C",
"2 	c #7F9B57",
"3 	c #789B43",
"4 	c #6B922D",
"5 	c #5C8818",
"6 	c #4E7A0C",
"7 	c #314C07",
"8 	c #101804",
"9 	c #7F9365",
"0 	c #EDF2E9",
"a 	c #E4EADA",
"b 	c #C1CAB1",
"c 	c #798469",
"d 	c #545D45",
"e 	c #6E775C",
"f 	c #4D5C35",
"g 	c #3C5319",
"h 	c #4B6C16",
"i 	c #5A8614",
"j 	c #5A890E",
"k 	c #59880A",
"l 	c #3F5F0A",
"m 	c #0E1407",
"n 	c #6D7F50",
"o 	c #EFF3EA",
"p 	c #E6ECDC",
"q 	c #C9D4B9",
"r 	c #7A8469",
"s 	c #A4AA9C",
"t 	c #FFFFFF",
"u 	c #C1C7B4",
"v 	c #354A14",
"w 	c #4B700E",
"x 	c #5B8810",
"y 	c #608F10",
"z 	c #649510",
"A 	c #3B5112",
"B 	c #0A0A0A",
"C 	c #C7D4B7",
"D 	c #E7EDDE",
"E 	c #D4DEC3",
"F 	c #899375",
"G 	c #989D8E",
"H 	c #F0F2ED",
"I 	c #889374",
"J 	c #D0D5C5",
"K 	c #A0AA8B",
"L 	c #39540A",
"M 	c #58820E",
"N 	c #628F14",
"O 	c #679714",
"P 	c #719A23",
"Q 	c #1E260E",
"R 	c #758957",
"S 	c #E9EFDE",
"T 	c #D7E2C5",
"U 	c #BFD0A5",
"V 	c #707F57",
"W 	c #9FA793",
"X 	c #5F6E45",
"Y 	c #354E0C",
"Z 	c #586B39",
"` 	c #BFC7AE",
" .	c #314B07",
"..	c #557F0E",
"+.	c #628D14",
"@.	c #679716",
"#.	c #7BAA26",
"$.	c #475921",
"%.	c #0E0E0E",
"&.	c #A7B78B",
"*.	c #D7E4C7",
"=.	c #C3D5A8",
"-.	c #A9C183",
";.	c #829D56",
">.	c #4F682A",
",.	c #304512",
"'.	c #37510C",
").	c #2B4504",
"!.	c #BDC5AE",
"~.	c #A0AA89",
"{.	c #345004",
"].	c #547D0E",
"^.	c #608D14",
"/.	c #679719",
"(.	c #73A720",
"_.	c #718A37",
":.	c #0C0C0C",
"<.	c #C1D0A9",
"[.	c #C5D5A9",
"}.	c #ACC384",
"|.	c #92B162",
"1.	c #799D40",
"2.	c #638A26",
"3.	c #4F7812",
"4.	c #324F04",
"5.	c #808F64",
"6.	c #EFF0EA",
"7.	c #3F5416",
"8.	c #3F6304",
"9.	c #507D0C",
"0.	c #5E8D14",
"a.	c #66981B",
"b.	c #6BA11E",
"c.	c #92B147",
"d.	c #1B2E00",
"e.	c #C1D1A7",
"f.	c #ADC586",
"g.	c #93B363",
"h.	c #7EA444",
"i.	c #6C9427",
"j.	c #5A8714",
"k.	c #436707",
"l.	c #485C24",
"m.	c #647741",
"n.	c #2E4D00",
"o.	c #456F04",
"p.	c #517F0C",
"q.	c #5E8F16",
"r.	c #669B1E",
"s.	c #6BA021",
"t.	c #A9CD58",
"u.	c #9CB771",
"v.	c #94B463",
"w.	c #7FA545",
"x.	c #709B2B",
"y.	c #639119",
"z.	c #56870C",
"A.	c #304E04",
"B.	c #AEB79B",
"C.	c #9FAA87",
"D.	c #2D4C00",
"E.	c #406900",
"F.	c #4A7604",
"G.	c #51840E",
"H.	c #5D9218",
"I.	c #669D21",
"J.	c #71A827",
"K.	c #A0BF5B",
"L.	c #121212",
"M.	c #75953F",
"N.	c #709C2B",
"O.	c #66941D",
"P.	c #5D8D10",
"Q.	c #558707",
"R.	c #304C00",
"S.	c #BFC5AE",
"T.	c #576B30",
"U.	c #395D00",
"V.	c #447104",
"W.	c #4B7D07",
"X.	c #578912",
"Y.	c #63971D",
"Z.	c #68A023",
"`.	c #80B530",
" +	c #869C4E",
".+	c #141414",
"++	c #53771B",
"@+	c #6F9A2B",
"#+	c #66941E",
"$+	c #639316",
"%+	c #5E8F0E",
"&+	c #598A0A",
"*+	c #406504",
"=+	c #748453",
"-+	c #809263",
";+	c #3E5416",
">+	c #406804",
",+	c #4A7707",
"'+	c #50830E",
")+	c #5B9118",
"!+	c #659D23",
"~+	c #6BA429",
"{+	c #95C341",
"]+	c #626F3E",
"^+	c #161616",
"/+	c #395707",
"(+	c #608E16",
"_+	c #639312",
":+	c #639310",
"<+	c #5E8D0C",
"[+	c #58880A",
"}+	c #406304",
"|+	c #395C04",
"1+	c #3A5D04",
"2+	c #477607",
"3+	c #4D7E0C",
"4+	c #568916",
"5+	c #629820",
"6+	c #68A027",
"7+	c #7DB330",
"8+	c #A4C55D",
"9+	c #353B27",
"0+	c #181818",
"a+	c #507E0A",
"b+	c #5F910E",
"c+	c #649412",
"d+	c #669512",
"e+	c #486D0C",
"f+	c #778759",
"g+	c #849369",
"h+	c #758759",
"i+	c #3F640C",
"j+	c #538416",
"k+	c #5D921E",
"l+	c #659C26",
"m+	c #71A92B",
"n+	c #9FCA4B",
"o+	c #6F7D4B",
"p+	c #324D07",
"q+	c #5D8B0C",
"r+	c #659710",
"s+	c #699B14",
"t+	c #669516",
"u+	c #3B560C",
"v+	c #C1C7B3",
"w+	c #345110",
"x+	c #598A1E",
"y+	c #629526",
"z+	c #6DA22A",
"A+	c #98C545",
"B+	c #8B9D5C",
"C+	c #292B20",
"D+	c #191919",
"E+	c #40600A",
"F+	c #679A10",
"G+	c #689B14",
"H+	c #3B570E",
"I+	c #C1C7B5",
"J+	c #355414",
"K+	c #5D8E23",
"L+	c #71A22B",
"M+	c #9AC14A",
"N+	c #8A9D5B",
"O+	c #3C5012",
"P+	c #77A524",
"Q+	c #577D18",
"R+	c #3A5710",
"S+	c #2B430E",
"T+	c #3C5914",
"U+	c #5A7E21",
"V+	c #86AE3B",
"W+	c #97B456",
"X+	c #6B7847",
"Y+	c #455521",
"Z+	c #6B8332",
"`+	c #84A141",
" @	c #95B54D",
".@	c #8BA74F",
"+@	c #768946",
"@@	c #596539",
"#@	c #323724",
"$@	c #101010",
"                . . . . .                   ",
"          . + @ # $ % % & * = .             ",
"        - @ ; > , ' ) ! ~ { ] ^ /           ",
"      ( _ : < [ } | 1 2 3 4 5 6 7 8         ",
"    - _ 9 0 a b c d e f g h i j k l m       ",
"  . @ n o p q r s t t t u v w x y z A B     ",
"  + ; C D E F G t H I J t K L M N O P Q     ",
"  @ R S T U V W H X Y Z t `  ...+.@.#.$.%.  ",
". # &.*.=.-.;.>.,.'.).!.t ~.{.].^./.(._.:.  ",
". $ <.[.}.|.1.2.3.4.5.t 6.7.8.9.0.a.b.c.%.  ",
". d.e.f.g.h.i.j.k.l.6.t m.n.o.p.q.r.s.t.%.  ",
". % u.v.w.x.y.z.A.B.t C.D.E.F.G.H.I.J.K.L.  ",
". & M.w.N.O.P.Q.R.S.t T.U.V.W.X.Y.Z.`. +.+  ",
"  * ++@+#+$+%+&+*+=+-+;+>+,+'+)+!+~+{+]+^+  ",
"  = /+(+$+_+:+<+[+}+|+1+2+3+4+5+6+7+8+9+0+  ",
"  . ^ a+b+c+d+_+e+f+g+h+i+j+k+l+m+n+o+0+    ",
"    = p+q+r+s+t+u+v+t v+w+x+y+z+A+B+C+D+    ",
"      8 E+F+G+t+H+u t I+J+K+L+M+N+9+D+      ",
"        m O+P P+Q+R+S+T+U+V+W+X+C+D+        ",
"          B Q Y+Z+`+ @.@+@@@#@^+D+          ",
"              %.:.%.%.$@L..+^+              ",
"                                            "};





































