/* XPM */
static const char * light_xpm[] = {
"48 48 565 2",
"  	c None",
". 	c #525255",
"+ 	c #9A9AA0",
"@ 	c #BDBDC6",
"# 	c #D6D6E0",
"$ 	c #E1E1EE",
"% 	c #E4E4F2",
"& 	c #DFDFED",
"* 	c #D0D0DD",
"= 	c #B3B3BF",
"- 	c #86868F",
"; 	c #3B3B3E",
"> 	c #6D6D70",
", 	c #C1C1C7",
"' 	c #EBEBF5",
") 	c #F2F2F8",
"! 	c #F7F7FB",
"~ 	c #FBFBFD",
"{ 	c #FEFEFE",
"] 	c #FFFFFF",
"^ 	c #FDFDFE",
"/ 	c #FAFAFC",
"( 	c #F4F4FA",
"_ 	c #E0E0F0",
": 	c #ADADB9",
"< 	c #4B4B4F",
"[ 	c #000000",
"} 	c #AFAFB5",
"| 	c #EEEEF6",
"1 	c #F8F8FB",
"2 	c #F0F0F8",
"3 	c #DFE0F0",
"4 	c #9595A0",
"5 	c #4F4F51",
"6 	c #D4D4DA",
"7 	c #F5F5FA",
"8 	c #E9E9F5",
"9 	c #BDBECD",
"0 	c #262629",
"a 	c #505052",
"b 	c #DEDEE5",
"c 	c #EEEEF7",
"d 	c #C7C8D9",
"e 	c #252528",
"f 	c #D5D5DB",
"g 	c #F8F8FC",
"h 	c #EDEEF7",
"i 	c #BDBFCF",
"j 	c #B3B3B8",
"k 	c #FCFCFE",
"l 	c #FCFCFD",
"m 	c #E5E7F4",
"n 	c #9496A2",
"o 	c #737375",
"p 	c #F2F2F9",
"q 	c #FAFBFD",
"r 	c #F9FAFC",
"s 	c #F9F9FC",
"t 	c #F2F3F9",
"u 	c #D7DAEE",
"v 	c #3B3C41",
"w 	c #C5C5CA",
"x 	c #F5F6FB",
"y 	c #F4F5FA",
"z 	c #D6DBEE",
"A 	c #A8AAB8",
"B 	c #5B5B5D",
"C 	c #F1F1F8",
"D 	c #FDFDFD",
"E 	c #FAFAFD",
"F 	c #F6F6FA",
"G 	c #F1F2F8",
"H 	c #F0F1F8",
"I 	c #EEF0F7",
"J 	c #D6DAEE",
"K 	c #D6D9EE",
"L 	c #202124",
"M 	c #A3A3A7",
"N 	c #FFFEE7",
"O 	c #FFFEE5",
"P 	c #FBFCFD",
"Q 	c #FFFDD7",
"R 	c #FFFDD4",
"S 	c #F3F4FA",
"T 	c #EDEFF6",
"U 	c #ECEEF6",
"V 	c #E7EAF4",
"W 	c #D5DBED",
"X 	c #D5DAEE",
"Y 	c #73757F",
"Z 	c #C7C7CD",
"` 	c #FFFDDD",
" .	c #FFF3B5",
"..	c #FFF3B1",
"+.	c #FFFDCD",
"@.	c #FFEE93",
"#.	c #FFEE8E",
"$.	c #FFFDC6",
"%.	c #EBEDF6",
"&.	c #E9EDF4",
"*.	c #E8EBF4",
"=.	c #DEE3F0",
"-.	c #D5DCED",
";.	c #D5DBEE",
">.	c #A7AAB9",
",.	c #FFF1A2",
"'.	c #FFFDC8",
").	c #FFFDC4",
"!.	c #FFEC80",
"~.	c #FFE970",
"{.	c #FFFCB8",
"].	c #E8EBF5",
"^.	c #E6EAF3",
"/.	c #E3E8F1",
"(.	c #D6DEEB",
"_.	c #D5DCEC",
":.	c #C3C6D9",
"<.	c #EAEAF3",
"[.	c #FFFDCB",
"}.	c #FFEC84",
"|.	c #FFEA76",
"1.	c #FFE971",
"2.	c #FFE96C",
"3.	c #FFE762",
"4.	c #FFE65D",
"5.	c #FFE553",
"6.	c #FFFCAA",
"7.	c #E6E9F3",
"8.	c #DAE2ED",
"9.	c #D5DDEB",
"0.	c #D4DCEC",
"a.	c #D4DAEE",
"b.	c #D0D3E9",
"c.	c #EDEDF6",
"d.	c #FFFCC1",
"e.	c #FFEB7B",
"f.	c #FFFCB6",
"g.	c #FFE44F",
"h.	c #FFFCA7",
"i.	c #FFFCA6",
"j.	c #FFE23F",
"k.	c #FFE136",
"l.	c #FFFB9C",
"m.	c #DCE4EF",
"n.	c #D6E1EB",
"o.	c #D4DEEB",
"p.	c #D4DDEC",
"q.	c #D4D8EE",
"r.	c #E8E8F1",
"s.	c #F9F9FB",
"t.	c #FFE658",
"u.	c #FFFCAC",
"v.	c #FFE344",
"w.	c #FFE13B",
"x.	c #FFFB9E",
"y.	c #FFFB9A",
"z.	c #FFDE27",
"A.	c #FFDD1E",
"B.	c #FFFB8A",
"C.	c #D9E3EC",
"D.	c #D6E2EA",
"E.	c #D4E0EA",
"F.	c #D4DEEC",
"G.	c #D4DAED",
"H.	c #D0D4E9",
"I.	c #D9D9E2",
"J.	c #F3F3F9",
"K.	c #F4F4F9",
"L.	c #F5F5F9",
"M.	c #F7F7FA",
"N.	c #FFFCA8",
"O.	c #FFFB90",
"P.	c #FFDB13",
"Q.	c #FFDA08",
"R.	c #FFFB85",
"S.	c #DEE5EF",
"T.	c #D8E4EB",
"U.	c #D5E4EA",
"V.	c #D4E3EA",
"W.	c #D3DFEB",
"X.	c #D4DCED",
"Y.	c #C3C9DA",
"Z.	c #BFBFC6",
"`.	c #EAEAF5",
" +	c #ECECF5",
".+	c #FFFB95",
"++	c #FFFB92",
"@+	c #F1F2F9",
"#+	c #E0E4EF",
"$+	c #DCE5EC",
"%+	c #D7E7EA",
"&+	c #D5E7EA",
"*+	c #D4E5EA",
"=+	c #D3E0EB",
"-+	c #D3DDED",
";+	c #A8ADBC",
">+	c #94949A",
",+	c #E9E9F4",
"'+	c #EAEAF4",
")+	c #EAEBF4",
"!+	c #ECEDF4",
"~+	c #EEEFF6",
"{+	c #F0F0F7",
"]+	c #F2F3F8",
"^+	c #FFFB8B",
"/+	c #F3F3F8",
"(+	c #EFF0F7",
"_+	c #EEEFF7",
":+	c #ECEDF6",
"<+	c #E2E0DF",
"[+	c #E2E6F1",
"}+	c #DDE4ED",
"|+	c #DAE6EB",
"1+	c #D6E7EA",
"2+	c #D5E9E9",
"3+	c #D3E7EA",
"4+	c #D3DDEC",
"5+	c #747780",
"6+	c #49494B",
"7+	c #E6E7F3",
"8+	c #E8E8F3",
"9+	c #E5E8F0",
"0+	c #E8EBF2",
"a+	c #E9ECF2",
"b+	c #EAEDF4",
"c+	c #EBEDF4",
"d+	c #EDEEF5",
"e+	c #949E9B",
"f+	c #EDEEF6",
"g+	c #EBEDF5",
"h+	c #EAECF5",
"i+	c #E9EBF5",
"j+	c #E0E4EE",
"k+	c #DCE4EC",
"l+	c #DAE5EB",
"m+	c #D4E9E9",
"n+	c #D3EAE9",
"o+	c #D3E0EC",
"p+	c #D2DCED",
"q+	c #202023",
"r+	c #B8B8C1",
"s+	c #E6E6F2",
"t+	c #E3E7EF",
"u+	c #E3EBEF",
"v+	c #E4EBF0",
"w+	c #E6ECF1",
"x+	c #E6EAF1",
"y+	c #E6EBF2",
"z+	c #E7EBF3",
"A+	c #E7EAF3",
"B+	c #E5E9F3",
"C+	c #E4E7F3",
"D+	c #E2E7F0",
"E+	c #DCE2EC",
"F+	c #D9E4EA",
"G+	c #D7E6EA",
"H+	c #D5EAE9",
"I+	c #D4EBE9",
"J+	c #D3ECE9",
"K+	c #D3E3EA",
"L+	c #D2DEEC",
"M+	c #A8ADBB",
"N+	c #5A5A5E",
"O+	c #E4E5F1",
"P+	c #E4E6F2",
"Q+	c #E1E8EE",
"R+	c #E0EAED",
"S+	c #E1EAEE",
"T+	c #E1E9EE",
"U+	c #E1E9F0",
"V+	c #E3EAEF",
"W+	c #E1E8F1",
"X+	c #E1E7F0",
"Y+	c #E0E6F0",
"Z+	c #DEE5F0",
"`+	c #DDE4F0",
" @	c #DBE2EF",
".@	c #DEE4ED",
"+@	c #D7E2E9",
"@@	c #D6E5E9",
"#@	c #D4E9E8",
"$@	c #D4EDE9",
"%@	c #D3EEE9",
"&@	c #D3E7E9",
"*@	c #D3E1EC",
"=@	c #38383E",
"-@	c #A2A4AC",
";@	c #E3E4F1",
">@	c #E3E5F1",
",@	c #DEE8EC",
"'@	c #DEEAEC",
")@	c #DDE9EC",
"!@	c #DCE8EB",
"~@	c #DEE8EB",
"{@	c #DAE5EC",
"]@	c #DAE4EC",
"^@	c #D9E2EC",
"/@	c #D8E1EA",
"(@	c #D8DFEA",
"_@	c #D7DFEA",
":@	c #CACCC2",
"<@	c #D5E2E8",
"[@	c #D4E7E9",
"}@	c #D3E1EB",
"|@	c #D2DDEC",
"1@	c #9296A2",
"2@	c #C8CAD5",
"3@	c #E1E3F0",
"4@	c #DCE3EA",
"5@	c #DBE7EB",
"6@	c #DAE7EA",
"7@	c #DAE8EB",
"8@	c #D8E3EA",
"9@	c #D7E1E9",
"0@	c #D6DFE9",
"a@	c #D6DEE8",
"b@	c #DAE2E8",
"c@	c #D5E2E9",
"d@	c #D5E6E9",
"e@	c #D4EAE9",
"f@	c #D3E2EA",
"g@	c #D3DFEC",
"h@	c #BAC1D1",
"i@	c #2E2E31",
"j@	c #CFD0DE",
"k@	c #DEE0F0",
"l@	c #DBE2EA",
"m@	c #DAE5EA",
"n@	c #DAE4EA",
"o@	c #C9CFC1",
"p@	c #D8E2EA",
"q@	c #D7E3E9",
"r@	c #D6E1E9",
"s@	c #DCE7E9",
"t@	c #D5E5E9",
"u@	c #D3E8E9",
"v@	c #D2DFEC",
"w@	c #C5CCDC",
"x@	c #1D1D20",
"y@	c #2A2A2E",
"z@	c #C2C3D0",
"A@	c #DCDEEE",
"B@	c #DCDDEE",
"C@	c #D8DCE9",
"D@	c #D8DFE8",
"E@	c #D4DDE4",
"F@	c #D0D8D3",
"G@	c #CFD6D1",
"H@	c #CFD6CF",
"I@	c #D1D8CF",
"J@	c #DCE8E8",
"K@	c #D4E2E3",
"L@	c #D3E3E7",
"M@	c #D3E0E7",
"N@	c #D2DEE8",
"O@	c #BBC3D2",
"P@	c #1D1D1F",
"Q@	c #9999A4",
"R@	c #DBDCEE",
"S@	c #D3D4E5",
"T@	c #BDBABB",
"U@	c #B8B7B5",
"V@	c #C3C0B4",
"W@	c #C2C4B8",
"X@	c #C8C9B7",
"Y@	c #CECEB9",
"Z@	c #C6C5B3",
"`@	c #CBCAB6",
" #	c #CCCFCA",
".#	c #CFD7DB",
"+#	c #D3DEEC",
"@#	c #969BA6",
"##	c #3D3D42",
"$#	c #CBC1AB",
"%#	c #BAB6B8",
"&#	c #B4B4B6",
"*#	c #B6B4B6",
"=#	c #BDBBBB",
"-#	c #C0BEBB",
";#	c #C7C3BB",
">#	c #CEC9BC",
",#	c #CFCABC",
"'#	c #CDCABB",
")#	c #CAC8BA",
"!#	c #C8C6B9",
"~#	c #B5B197",
"{#	c #35383C",
"]#	c #ECE3C4",
"^#	c #D3C8A8",
"/#	c #CDC4A7",
"(#	c #CDC8BB",
"_#	c #CDCAC4",
":#	c #C8C5C2",
"<#	c #C9C6C1",
"[#	c #CCC7B9",
"}#	c #CFC7B2",
"|#	c #CDC3A4",
"1#	c #D5CCAF",
"2#	c #D2C69D",
"3#	c #9C8C53",
"4#	c #413A22",
"5#	c #F1DF9D",
"6#	c #F2E9C5",
"7#	c #F8F4E7",
"8#	c #F9F7EF",
"9#	c #F7F4EB",
"0#	c #EEE8D2",
"a#	c #EDE6CE",
"b#	c #F0EAD2",
"c#	c #F2ECD4",
"d#	c #E6DCB7",
"e#	c #DBCE9E",
"f#	c #BEAB66",
"g#	c #6F643A",
"h#	c #7B6C40",
"i#	c #F3E3AA",
"j#	c #E6D79F",
"k#	c #F3E3A8",
"l#	c #F3E4AD",
"m#	c #F0DE9C",
"n#	c #E9D488",
"o#	c #E0CB7B",
"p#	c #D9C374",
"q#	c #D0BB6F",
"r#	c #C7B36B",
"s#	c #A9985A",
"t#	c #8D7F4B",
"u#	c #6B5F37",
"v#	c #F8F3E1",
"w#	c #F8F0D5",
"x#	c #E6D69F",
"y#	c #D6C896",
"z#	c #D0C292",
"A#	c #CEBE86",
"B#	c #C5B474",
"C#	c #C2AF6A",
"D#	c #BBA864",
"E#	c #BFB07B",
"F#	c #C5BA8F",
"G#	c #CFC08E",
"H#	c #9E8E54",
"I#	c #F0DC96",
"J#	c #F6EBC5",
"K#	c #FBF8EE",
"L#	c #FCFBF5",
"M#	c #FDFBF6",
"N#	c #F9F4DE",
"O#	c #F3EAC7",
"P#	c #F1E6C1",
"Q#	c #ECE2BE",
"R#	c #EBE2C1",
"S#	c #DFD4AD",
"T#	c #BDAA64",
"U#	c #887C52",
"V#	c #F3E6B6",
"W#	c #E3D296",
"X#	c #F1E1A8",
"Y#	c #F4E7B9",
"Z#	c #F2E4B1",
"`#	c #EFDD9C",
" $	c #E7D288",
".$	c #DFC97A",
"+$	c #CCB76D",
"@$	c #C4B069",
"#$	c #A29565",
"$$	c #90855B",
"%$	c #F7EFD6",
"&$	c #F4EAC7",
"*$	c #E6D8AA",
"=$	c #D4C697",
"-$	c #D1C59C",
";$	c #CEC190",
">$	c #C4B275",
",$	c #BDAA67",
"'$	c #B6A361",
")$	c #AE9D5D",
"!$	c #C8BD9A",
"~$	c #D1C599",
"{$	c #998B52",
"]$	c #EBD792",
"^$	c #F1E5BA",
"/$	c #F9F5E6",
"($	c #FCFAF4",
"_$	c #FBF9EE",
":$	c #F9F6EA",
"<$	c #F5EED7",
"[$	c #ECE3C0",
"}$	c #EADFBC",
"|$	c #E8E0C3",
"1$	c #D2C492",
"2$	c #B8A462",
"3$	c #837646",
"4$	c #F0E6BE",
"5$	c #DFD099",
"6$	c #EDE0B1",
"7$	c #EEE2B3",
"8$	c #EBDCA7",
"9$	c #E6D597",
"0$	c #DDC982",
"a$	c #D3BF72",
"b$	c #CDB86D",
"c$	c #C9B46A",
"d$	c #BCAA65",
"e$	c #9F8F55",
"f$	c #72673C",
"g$	c #F6F1DE",
"h$	c #F1E9CB",
"i$	c #E6DCB9",
"j$	c #D4C9A3",
"k$	c #CCC19A",
"l$	c #C3B480",
"m$	c #B9A86C",
"n$	c #B2A060",
"o$	c #AC9B5C",
"p$	c #A59558",
"q$	c #BFB38B",
"r$	c #CCBF92",
"s$	c #92824E",
"t$	c #897F58",
"u$	c #E4D39B",
"v$	c #F1EACE",
"w$	c #F8F6EB",
"x$	c #F8F5E9",
"y$	c #EFE7CC",
"z$	c #EBE2C2",
"A$	c #E7DEBC",
"B$	c #E7DEC1",
"C$	c #D9D0A9",
"D$	c #C4B57F",
"E$	c #A19056",
"F$	c #13110A",
"G$	c #29271E",
"H$	c #D1C185",
"I$	c #E0D198",
"J$	c #E0D2A0",
"K$	c #E0D19D",
"L$	c #DAC98F",
"M$	c #D0BC7A",
"N$	c #C7B46C",
"O$	c #C3B068",
"P$	c #BEAA66",
"Q$	c #A79759",
"R$	c #3D361F",
"S$	c #050402",
"T$	c #030303",
"U$	c #454237",
"V$	c #9E9572",
"W$	c #AEA47F",
"X$	c #AA9E73",
"Y$	c #928553",
"Z$	c #847847",
"`$	c #6B6242",
" %	c #35301C",
".%	c #282415",
"+%	c #020201",
"@%	c #2A2A2A",
"#%	c #838383",
"$%	c #767676",
"%%	c #242424",
"&%	c #191919",
"*%	c #161616",
"=%	c #626262",
"-%	c #707070",
";%	c #1F1F1F",
">%	c #050505",
"                                                                                                ",
"                                                                                                ",
"                                    . + @ # $ % & * = - ;                                       ",
"                                > , ' ) ! ~ { ] ^ / ( ' _ : < [                                 ",
"                              } | 1 ] ] ] ] ] ] ] ] ] ] ] 2 3 4 [                               ",
"                          5 6 7 { ] ] ] ] ] ] ] ] ] ] ] ] ] ^ 8 9 0                             ",
"                        a b 1 ] ] ] ] ] ] ] ] ] ] ] ] ] ] ] ] ] c d e                           ",
"                        f g ] ] ] ] ] ] ] ] ] ] ] ] ] ] ] ] ] ] ] h i [                         ",
"                      j ! ] ] ] ] ] ] ] ] ] ] ] ] ] ] ] ] ] { ^ k l m n [                       ",
"                    o p { ] ] ] ] ] ] ] ] ] ] ] ] { { ^ l ~ q r s g t u v                       ",
"                    w s ] ] ] ] ] ] ] ] { { { ^ ^ l ~ ~ s g ! x y y t z A [                     ",
"                  B C ] ] ] ] { { { { { ^ ^ D l ~ E s g ! F ( t G H I J K L                     ",
"                  M F { { { { { ] { { N O l P ~ / s Q R 7 S G I T U V W X Y [                   ",
"                  Z s ^ ^ ^ ^ { { { `  ...Q ~ E / +.@.#.$.p I %.&.*.=.-.;.>.[                   ",
"                  b / l l l l ^ ^ R ,.] ] @.'.$.).!.] ] ~.{.h ].^./.(._.X :.[                   ",
"                  <.s E / ~ l l [.#.] }.!.] |.1.2.] 3.4.] 5.6.7./.8.9.0.a.b.[                   ",
"                  c.1 s s s ~ d.e.] 1.{.f.3.] ] ] g.h.i.j.] k.l.m.n.o.p.a.q.[                   ",
"                  r.F F ! ! s.f.3.] t.u.6.h.v.j.w.x.l.y.z.] A.B.C.D.E.F.G.H.[                   ",
"                  I.| J.K.L.M.1 N.v.] w.x.1 ] 1 ] L.O.P.] Q.R.S.T.U.V.W.X.Y.[                   ",
"                  Z.`. +| ) K.K.F y.z..+++L.K.J.J.@+R.R.R.R.#+$+%+&+*+=+-+;+[                   ",
"                  >+,+'+)+!+~+{+G ]+^+/+t ) C H (+_+:+<+R.[+}+|+1+2+3+=+4+5+[                   ",
"                  6+7+8+9+0+a+b+c+d+e+~+T f+:+g+h+i+)+e+j+k+l+%+m+n+3+o+p+q+                    ",
"                    r+s+t+u+v+w+x+y+e+z+z+A+^.B+C+[+D+e+E+F+G+H+I+J+K+L+M+[                     ",
"                    N+O+P+Q+R+S+T+U+V+e+W+X+Y+Z+`+ @.@e++@@@#@$@%@&@*@p+=@[                     ",
"                      -@;@>@,@'@)@!@~@e+{@]@^@/@(@_@:@e+<@[@I+%@J+}@|@1@[                       ",
"                      [ 2@3@4@5@6@7@!@e+8@+@9@0@a@b@e+c@d@e@$@J+f@g@h@[ [                       ",
"                        i@j@k@k@l@m@n@o@e+p@q@+@r@s@e+t@[@e@u@*@v@w@x@[                         ",
"                          y@z@A@B@C@D@E@e+F@G@H@I@J@e+K@L@M@N@g@O@P@[                           ",
"                            [ Q@R@S@T@U@V@e+W@X@Y@e+Z@`@ #.#+#@#[ [                             ",
"                              [ ##$#%#&#*#=#-#;#>#,#'#)#!#~#{#[ [                               ",
"                                  ]#^#/#(#_#:#<#[#}#|#1#2#3#4#                                  ",
"                                  5#6#7#8#9#0#a#b#c#d#e#f#g#h#                                  ",
"                                  i#j#k#l#i#m#n#o#p#q#r#s#t#u#                                  ",
"                                  v#w#x#y#z#A#B#C#D#E#F#G#H#[                                   ",
"                                  I#J#K#L#M#N#O#P#Q#R#S#T#U#[                                   ",
"                                  V#W#X#Y#Z#`# $.$p#+$@$#$$$[                                   ",
"                                  %$&$*$=$-$;$>$,$'$)$!$~${$[                                   ",
"                                  ]$^$/$($_$:$<$[$}$|$1$2$3$[                                   ",
"                                  4$5$6$7$8$9$0$a$b$c$d$e$f$[                                   ",
"                                  g$h$i$j$k$l$m$n$o$p$q$r$s$[                                   ",
"                                  t$u$v$w$x$y$z$A$B$C$D$E$F$[                                   ",
"                                  G$H$I$J$K$L$M$N$O$P$Q$R$S$                                    ",
"                                    T$U$V$W$X$Y$Z$`$ %.%+%[                                     ",
"                                        [ @%#%$%%%&%[ [                                         ",
"                                          *%=%-%;%>%[                                           ",
"                                            [ [ [ [                                             ",
"                                                                                                ",
"                                                                                                "};
