/* XPM */
static const char * lock_xpm[] = {
"22 22 157 2",
"  	c None",
". 	c #8F8FA9",
"+ 	c #9696AF",
"@ 	c #A9A9BD",
"# 	c #A8A8BC",
"$ 	c #9B9BB3",
"% 	c #8F8FAA",
"& 	c #9797AF",
"* 	c #D9D9E2",
"= 	c #FEFEFE",
"- 	c #FFFFFF",
"; 	c #FDFDFD",
"> 	c #DADAE1",
", 	c #9595AD",
"' 	c #9898B0",
") 	c #F6F6F8",
"! 	c #F3F3F3",
"~ 	c #EDEDED",
"{ 	c #EAEAEA",
"] 	c #ECECEC",
"^ 	c #FAFAFA",
"/ 	c #F5F5F7",
"( 	c #9999B0",
"_ 	c #81819D",
": 	c #F9F9F9",
"< 	c #E6E6E8",
"[ 	c #A9A9BA",
"} 	c #9393AA",
"| 	c #9292A9",
"1 	c #9D9DB0",
"2 	c #D1D1D3",
"3 	c #F6F6F6",
"4 	c #F0F0F2",
"5 	c #7E7E9A",
"6 	c #B7B7C6",
"7 	c #E4E4E6",
"8 	c #8888A1",
"9 	c #747492",
"0 	c #787895",
"a 	c #C7C7C9",
"b 	c #FBFBFB",
"c 	c #B1B1C0",
"d 	c #6B6B8B",
"e 	c #E1E1E7",
"f 	c #F0F0F0",
"g 	c #B0B0BD",
"h 	c #8B8B9F",
"i 	c #DFDFDF",
"j 	c #DBDBE1",
"k 	c #636384",
"l 	c #E7E7E7",
"m 	c #8A8AA1",
"n 	c #797992",
"o 	c #CACACA",
"p 	c #5C5C7E",
"q 	c #DCDCDC",
"r 	c #7B7B95",
"s 	c #72728C",
"t 	c #C7C7C7",
"u 	c #E8E8E8",
"v 	c #555578",
"w 	c #D6D6D6",
"x 	c #75758F",
"y 	c #6D6D88",
"z 	c #C4C4C4",
"A 	c #E0E0E0",
"B 	c #7E6860",
"C 	c #E0CFB4",
"D 	c #D4C2A7",
"E 	c #8D7B74",
"F 	c #897770",
"G 	c #C9B79C",
"H 	c #DAC8AE",
"I 	c #D08C2A",
"J 	c #D79632",
"K 	c #E0AC48",
"L 	c #BF7F2A",
"M 	c #FCF592",
"N 	c #FFFA6F",
"O 	c #FFFA5D",
"P 	c #FFFA57",
"Q 	c #FCEF6B",
"R 	c #AB7029",
"S 	c #FFF25E",
"T 	c #FFEF39",
"U 	c #FFEB37",
"V 	c #FFBA1D",
"W 	c #986028",
"X 	c #FFE74D",
"Y 	c #FFE434",
"Z 	c #FFE132",
"` 	c #FFB61B",
" .	c #FFA814",
"..	c #855127",
"+.	c #FFDD48",
"@.	c #FFD92E",
"#.	c #FFD62C",
"$.	c #FFB319",
"%.	c #FFA613",
"&.	c #FFA311",
"*.	c #754526",
"=.	c #FFD443",
"-.	c #FFCD28",
";.	c #FFC322",
">.	c #FFAB15",
",.	c #FFA512",
"'.	c #FFA110",
").	c #FF9E0E",
"!.	c #744426",
"~.	c #FFCA3D",
"{.	c #FFC222",
"].	c #FFC121",
"^.	c #FFC021",
"/.	c #FFBF20",
"(.	c #FFB118",
"_.	c #FFA713",
":.	c #FFA00F",
"<.	c #FF9C0D",
"[.	c #FF990C",
"}.	c #FFC138",
"|.	c #FFB91D",
"1.	c #FFBE1F",
"2.	c #FFBD1F",
"3.	c #FFB31A",
"4.	c #FFAF18",
"5.	c #FFAC16",
"6.	c #FFA210",
"7.	c #FF9B0D",
"8.	c #FF970B",
"9.	c #FF9409",
"0.	c #FFBB36",
"a.	c #FFBC1E",
"b.	c #FFB81C",
"c.	c #FFB51B",
"d.	c #FFB119",
"e.	c #FFAE17",
"f.	c #FFAA15",
"g.	c #FF9C0E",
"h.	c #FF960A",
"i.	c #FF9208",
"j.	c #FF8F06",
"k.	c #FFC43A",
"l.	c #FFB71C",
"m.	c #FFB018",
"n.	c #FFA914",
"o.	c #FF9E0F",
"p.	c #FF9007",
"q.	c #FF8D05",
"r.	c #FF8A03",
"s.	c #E5B250",
"t.	c #FFB219",
"u.	c #FFA411",
"v.	c #FFA010",
"w.	c #FF9D0E",
"x.	c #FF8B04",
"y.	c #FF8803",
"z.	c #E57908",
"                . + @ # $ %                 ",
"              & * = - - ; > ,               ",
"            ' ) ; ! ~ { ] ^ / (             ",
"          _ ) : < [ } | 1 2 3 4 5           ",
"          6 ; 7 8 9       0 a b c           ",
"        d e f g d           h i j d         ",
"        k ^ l m             n o ~ k         ",
"        p ! q r             s t u p         ",
"        v { w x             y z A v         ",
"        B C D E             F G H B         ",
"    I J K K K K K K K K K K K K K K J I     ",
"    L M N O P P P P P P P P P P P P Q L     ",
"    R S T T T T T T T T T T T T T U V R     ",
"    W X Y Y Y Y Y Y Y Y Y Y Y Y Z `  .W     ",
"    ..+.@.@.@.@.@.@.@.@.@.@.@.#.$.%.&...    ",
"    *.=.-.-.-.-.-.-.-.-.-.-.;.>.,.'.).*.    ",
"    !.~.{.{.{.{.].^././.V (._.&.:.<.[.!.    ",
"    !.}.|.1.2.V ` 3.4.5. .,.6.).7.8.9.!.    ",
"    !.0.1.a.b.c.d.e.f._.&.:.g.[.h.i.j.!.    ",
"    !.k.V l.3.m.5.n.,.6.o.7.8.9.p.q.r.!.    ",
"    !.s.c.t.e.>._.u.v.w.[.h.i.j.x.y.z.!.    ",
"    !.!.!.!.!.!.!.!.!.!.!.!.!.!.!.!.!.!.    "};
