/* XPM */
static const char *script_xpm[] = {
"22 22 98 2",
"  	c None",
". 	c #000000",
"+ 	c #1C1C1C",
"@ 	c #C7C7C7",
"# 	c #C2C2C2",
"$ 	c #202020",
"% 	c #9F9F9F",
"& 	c #FFFFFF",
"* 	c #EFEFEF",
"= 	c #303030",
"- 	c #555555",
"; 	c #727272",
"> 	c #3C3C3C",
", 	c #2A2A2A",
"' 	c #0D0D0D",
") 	c #CBCBCB",
"! 	c #666666",
"~ 	c #5F5F5F",
"{ 	c #585858",
"] 	c #808080",
"^ 	c #404040",
"/ 	c #616161",
"( 	c #5A5A5A",
"_ 	c #474747",
": 	c #2C2C2C",
"< 	c #141414",
"[ 	c #343434",
"} 	c #313131",
"| 	c #0A0A0A",
"1 	c #545454",
"2 	c #232323",
"3 	c #333333",
"4 	c #797979",
"5 	c #646464",
"6 	c #090909",
"7 	c #828282",
"8 	c #757575",
"9 	c #747474",
"0 	c #606060",
"a 	c #151515",
"b 	c #4C4C4C",
"c 	c #898989",
"d 	c #868686",
"e 	c #818181",
"f 	c #070707",
"g 	c #80807F",
"h 	c #979796",
"i 	c #8F8F8E",
"j 	c #505050",
"k 	c #1F1F1F",
"l 	c #9B9B9B",
"m 	c #A5A5A5",
"n 	c #A6A6A6",
"o 	c #9E9E9E",
"p 	c #4F4F4F",
"q 	c #222222",
"r 	c #B5B5B5",
"s 	c #B3B3B3",
"t 	c #B4B4B4",
"u 	c #2B2B2B",
"v 	c #656565",
"w 	c #C3C3C3",
"x 	c #C0C0C0",
"y 	c #BBBBBB",
"z 	c #6E6E6E",
"A 	c #1B1B1B",
"B 	c #D3D3D3",
"C 	c #C8C8C8",
"D 	c #7F7F7F",
"E 	c #161616",
"F 	c #BFBFBF",
"G 	c #CDCDCD",
"H 	c #CCCCCC",
"I 	c #B1B1B1",
"J 	c #777777",
"K 	c #191919",
"L 	c #CECECE",
"M 	c #B0B0B0",
"N 	c #A3A3A3",
"O 	c #0B0B0B",
"P 	c #989898",
"Q 	c #6D6D6D",
"R 	c #494949",
"S 	c #B6B6B6",
"T 	c #8F8F8F",
"U 	c #4D4D4D",
"V 	c #969696",
"W 	c #878787",
"X 	c #6A6A6A",
"Y 	c #686868",
"Z 	c #525252",
"` 	c #080808",
" .	c #1D1D1D",
"..	c #444444",
"+.	c #3D3D3D",
"@.	c #282828",
"#.	c #262626",
"$.	c #252525",
"      . . . . . . . . . . . . . .           ",
"    + @ # $ % & & & & & & & & * =           ",
"  . - ; > , ' ) ) ) ) ) ) ) ) ) ! .         ",
"  . ~ { > > . ] ] ] ] ] ] ] ] ] ^ .         ",
"  . / ( _ : < [ [ [ [ [ [ [ [ } | .         ",
"  . ( ! 1 1 2 . . . . . . . . . .           ",
"    3 4 5 5 5 5 5 5 5 5 ~ [ .               ",
"    6 7 8 9 9 9 9 9 9 9 9 0 a .             ",
"    . b c d d d d d d d d e { f             ",
"      | g h h h h h h h h h i j .           ",
"        k l m n n n n n n n n o p .         ",
"        . q r s t t t t t t t s % u .       ",
"          . v w x x x x x x x x y z .       ",
"            A B C C C C C C C C C D E .     ",
"            . F G H H H H H H H H e A .     ",
"      . . . . I ) @ @ @ @ @ @ @ @ J K .     ",
"      j & & . L t M M M M M M M N { O       ",
"    . P ) Q R S T T T T T T T T v u .       ",
"    . { U O V W X X X X X X Y Z = ` .       ",
"      f  ...+.@.#.#.#.#.#.#.$. .6 .         ",
"        . . . . . . . . . . . . .           ",
"                                            "};





































