/* XPM */
static const char * surfIcon_xpm[] = {
"32 22 357 2",
"  	c None",
". 	c #D20000",
"+ 	c #E30000",
"@ 	c #E20000",
"# 	c #DB0000",
"$ 	c #F60000",
"% 	c #FF0000",
"& 	c #FE0000",
"* 	c #FB0000",
"= 	c #EB0000",
"- 	c #CC0000",
"; 	c #B90000",
"> 	c #A70000",
", 	c #8E0000",
"' 	c #BD0000",
") 	c #FF0404",
"! 	c #FF0202",
"~ 	c #FA0000",
"{ 	c #F10000",
"] 	c #F70000",
"^ 	c #E80000",
"/ 	c #B50000",
"( 	c #B10000",
"_ 	c #C00000",
": 	c #CB0000",
"< 	c #F20000",
"[ 	c #FF0101",
"} 	c #FD0000",
"| 	c #ED0000",
"1 	c #BF0000",
"2 	c #D30000",
"3 	c #D50000",
"4 	c #D60000",
"5 	c #E50000",
"6 	c #FC0000",
"7 	c #DC0000",
"8 	c #B40000",
"9 	c #AE0000",
"0 	c #C10000",
"a 	c #D70000",
"b 	c #E70000",
"c 	c #E90000",
"d 	c #D10000",
"e 	c #A50000",
"f 	c #AC0000",
"g 	c #A20000",
"h 	c #A40000",
"i 	c #BFBFBF",
"j 	c #CECECE",
"k 	c #C4C4C4",
"l 	c #BB9E9E",
"m 	c #930909",
"n 	c #B20000",
"o 	c #E40000",
"p 	c #9D0000",
"q 	c #860000",
"r 	c #AA0000",
"s 	c #B00000",
"t 	c #920000",
"u 	c #D00000",
"v 	c #EE0000",
"w 	c #EF0000",
"x 	c #B6B6B6",
"y 	c #C7C7C7",
"z 	c #D9D9D9",
"A 	c #E5E5E5",
"B 	c #ECECEC",
"C 	c #EBB9B9",
"D 	c #D90C0C",
"E 	c #C80000",
"F 	c #CF0000",
"G 	c #820000",
"H 	c #EC0000",
"I 	c #E60000",
"J 	c #CA0000",
"K 	c #A10000",
"L 	c #FF1C1C",
"M 	c #FF1515",
"N 	c #F90000",
"O 	c #DE0000",
"P 	c #C50000",
"Q 	c #B60000",
"R 	c #C0C0C0",
"S 	c #CFCFCF",
"T 	c #E1E1E1",
"U 	c #E6E6E6",
"V 	c #E6E1E1",
"W 	c #E24141",
"X 	c #D90000",
"Y 	c #DA0000",
"Z 	c #BC0000",
"` 	c #7C0000",
" .	c #A60000",
"..	c #FD0505",
"+.	c #FF0E0E",
"@.	c #FF0505",
"#.	c #FF4646",
"$.	c #FF4D4D",
"%.	c #FE0101",
"&.	c #A80000",
"*.	c #D5D5D5",
"=.	c #D8D8D8",
"-.	c #E3E3E3",
";.	c #F1F1F1",
">.	c #F5F5F5",
",.	c #F0F0F0",
"'.	c #E0BFBF",
").	c #E11010",
"!.	c #990000",
"~.	c #FA0101",
"{.	c #FF3030",
"].	c #FF7171",
"^.	c #FF2E2E",
"/.	c #F50202",
"(.	c #FF1111",
"_.	c #FF0C0C",
":.	c #DADADA",
"<.	c #EFEFEF",
"[.	c #FDFDFD",
"}.	c #FFFFFF",
"|.	c #EAEAEA",
"1.	c #F3A7A7",
"2.	c #EA0808",
"3.	c #D80000",
"4.	c #C20000",
"5.	c #DF0000",
"6.	c #FB0101",
"7.	c #FF2626",
"8.	c #FF5C5C",
"9.	c #FB1414",
"0.	c #EA3030",
"a.	c #E43030",
"b.	c #ED0E0E",
"c.	c #FB0A0A",
"d.	c #FF0D0D",
"e.	c #FF0606",
"f.	c #FF0A0A",
"g.	c #FD0101",
"h.	c #D7D7D7",
"i.	c #D3D3D3",
"j.	c #F7F7F7",
"k.	c #FEF7F7",
"l.	c #FD5858",
"m.	c #F90505",
"n.	c #E30606",
"o.	c #EA0606",
"p.	c #FD0202",
"q.	c #FF1B1B",
"r.	c #FD5D5D",
"s.	c #EFAFAF",
"t.	c #EAE2E2",
"u.	c #F7D7D7",
"v.	c #FEE1E1",
"w.	c #FFD5D5",
"x.	c #FF3838",
"y.	c #FF2C2C",
"z.	c #FF1A1A",
"A.	c #FF4C4C",
"B.	c #F80000",
"C.	c #C60000",
"D.	c #CBCBCB",
"E.	c #CACACA",
"F.	c #D2D2D2",
"G.	c #EDEDED",
"H.	c #FEFEFE",
"I.	c #FAFAFF",
"J.	c #BAA8EE",
"K.	c #C198D6",
"L.	c #DEA3B6",
"M.	c #F3BCBC",
"N.	c #FEAAAA",
"O.	c #FEE2E2",
"P.	c #F7EBEB",
"Q.	c #EEEEEE",
"R.	c #F6F6F6",
"S.	c #FFF1F1",
"T.	c #FFC3C3",
"U.	c #FF9494",
"V.	c #FF1717",
"W.	c #BABABA",
"X.	c #C2C2C2",
"Y.	c #DDDDDD",
"Z.	c #F3F3F3",
"`.	c #F2F2F2",
" +	c #FCFCFD",
".+	c #8989FF",
"++	c #2222FF",
"@+	c #1212FD",
"#+	c #1C1CEB",
"$+	c #7777F2",
"%+	c #AFAFF9",
"&+	c #ECECF9",
"*+	c #ECECFA",
"=+	c #D5D5FA",
"-+	c #F5F5FE",
";+	c #F1F1FF",
">+	c #F0F0FF",
",+	c #BCBCFF",
"'+	c #FFDDDD",
")+	c #FF2828",
"!+	c #FF3333",
"~+	c #FF4141",
"{+	c #FD6060",
"]+	c #E56C6C",
"^+	c #BF7979",
"/+	c #AB2626",
"(+	c #B5B5B5",
"_+	c #C5C5C5",
":+	c #E7E7E7",
"<+	c #E5E5FE",
"[+	c #1111FF",
"}+	c #0505FF",
"|+	c #0101F4",
"1+	c #0000E3",
"2+	c #0101ED",
"3+	c #0606F1",
"4+	c #1C1CF6",
"5+	c #2626FE",
"6+	c #2727FF",
"7+	c #5C5CFF",
"8+	c #C2C2FF",
"9+	c #6A6AFF",
"0+	c #B1B1FD",
"a+	c #6464FB",
"b+	c #FDFDFF",
"c+	c #FEE9E9",
"d+	c #FFE7E7",
"e+	c #FFF6F6",
"f+	c #E4E4E4",
"g+	c #B9B9B9",
"h+	c #AE9292",
"i+	c #C6C6C6",
"j+	c #E0E0E0",
"k+	c #FBFBFB",
"l+	c #FCFCFC",
"m+	c #D7D7FF",
"n+	c #1111FD",
"o+	c #0000F9",
"p+	c #0000E1",
"q+	c #0000D6",
"r+	c #0000E0",
"s+	c #0000E8",
"t+	c #0000F7",
"u+	c #0000FF",
"v+	c #5757FF",
"w+	c #3232FF",
"x+	c #0606FD",
"y+	c #6060F6",
"z+	c #6363F5",
"A+	c #FDFDFE",
"B+	c #FAFAFA",
"C+	c #F4F4F4",
"D+	c #ADADAD",
"E+	c #AEACAC",
"F+	c #E2E2E2",
"G+	c #F8F8F8",
"H+	c #B8B8FF",
"I+	c #C3C3FF",
"J+	c #5050FF",
"K+	c #0404FC",
"L+	c #0000F0",
"M+	c #0000CC",
"N+	c #0000C1",
"O+	c #0000CD",
"P+	c #0000E2",
"Q+	c #0000FB",
"R+	c #1616FF",
"S+	c #3131FF",
"T+	c #1F1FFF",
"U+	c #0A0AFF",
"V+	c #0303F3",
"W+	c #8989F8",
"X+	c #E8E8E8",
"Y+	c #B3B3B3",
"Z+	c #A2A2A2",
"`+	c #D1D1D1",
" @	c #EDEDFF",
".@	c #0404FD",
"+@	c #0202FC",
"@@	c #0000FD",
"#@	c #0000F1",
"$@	c #0000C4",
"%@	c #0000A5",
"&@	c #0000B7",
"*@	c #0000D8",
"=@	c #0101F9",
"-@	c #3434FF",
";@	c #6060FF",
">@	c #0909FF",
",@	c #0000FA",
"'@	c #0000F3",
")@	c #5D5DF5",
"!@	c #BEBEBE",
"~@	c #A9A9A9",
"{@	c #999999",
"]@	c #9D9D9D",
"^@	c #CCCCCC",
"/@	c #CDCDCD",
"(@	c #DBDBFF",
"_@	c #1717FF",
":@	c #0000F4",
"<@	c #0000EA",
"[@	c #0000F5",
"}@	c #0000DB",
"|@	c #000094",
"1@	c #00009A",
"2@	c #0000C2",
"3@	c #0707FC",
"4@	c #1313FE",
"5@	c #0000E5",
"6@	c #0404DF",
"7@	c #BBBBF6",
"8@	c #AEAEAE",
"9@	c #959595",
"0@	c #BDBDBD",
"a@	c #C1C1C1",
"b@	c #C6C6FB",
"c@	c #1515F5",
"d@	c #0404E0",
"e@	c #0101D3",
"f@	c #1313E1",
"g@	c #3D3DE6",
"h@	c #0707E1",
"i@	c #0000BA",
"j@	c #00007F",
"k@	c #000099",
"l@	c #0000C3",
"m@	c #0000DD",
"n@	c #0606CA",
"o@	c #A2A2EE",
"p@	c #F9F9F9",
"q@	c #B1B1B1",
"r@	c #D4D4D4",
"s@	c #D9D9DB",
"t@	c #C0C0D3",
"u@	c #9F9FC2",
"v@	c #8F8FBD",
"w@	c #A7A7C6",
"x@	c #B7B7BA",
"y@	c #7575B0",
"z@	c #000074",
"A@	c #000088",
"B@	c #00009E",
"C@	c #0000A6",
"D@	c #0000A0",
"E@	c #00009D",
"F@	c #0C0CB2",
"G@	c #B3B3CA",
"H@	c #9C9C9C",
"I@	c #ABABAB",
"J@	c #B0B0B0",
"K@	c #AFAFAF",
"L@	c #B2B2B2",
"M@	c #818181",
"N@	c #919191",
"O@	c #A0A0A0",
"P@	c #AAAAAA",
"                          . + @ #                               ",
"                        . $ % & * = - ; > ,                     ",
"                      ' = & ) ! % ~ { $ ] ^ / , ( _ :           ",
"                      . < % ! [ & * } % ! & | 1 / 2 3 4 2       ",
"                    - 5 ] % 6 7 8 9 0 a b c d 9 e f g h _       ",
"        i j k l m n c $ 6 o p q p r s 8 f q t u v w # ; > s     ",
"    x y z A B C D E w * F G > 7 H H c I J K F ] L M N O P Q     ",
"  R S z T A U V W X Y Z `  .^ ..+.@.% ~ 7 - b ..#.$.%.v # - &.  ",
"  *.=.-.;.>.,.A '.).F g !.d ~.{.].^.~.^ o { /.%.(._.& $ = 7 n   ",
"*.=.:.<.[.}.[.,.|.1.2.3.4.5.6.7.8.9.0.a.b.c.d.e.% [ f.g.] 5 _   ",
"h.i.z >.}.}.}.j.j.k.l.m.n.o.p.q.r.s.t.u.v.w.x.y.z.^.A.@.B.+ C.!.",
"D.E.F.G.[.}.H.j.[.I.J.K.L.M.N.O.P.Q.R.}.}.}.S.T.U.V.e.[ N 5.4.h ",
"W.X.y Y.,.R.Z.`. +.+++@+#+$+%+&+*+=+-+}.;+>+,+}.'+)+!+~+{+]+^+/+",
"(+_+E.=.:+B G.>.<+[+}+|+1+2+3+4+5+6+7+8+9+0+a+b+H.c+d+e+[.f+g+h+",
"i+*.j+`.k+l+H.[.m+n+o+p+q+r+s+t+u+[+v+w+x+y+z+A+B+j.l+H.C+F.D+E+",
"S =.F+G+}.}.H+I+J+K+L+M+N+O+P+Q+R+S+T+U+Q+V+W+}.j.X+:+-.F.Y+Z+  ",
"`+*.Y.j.}. @R+.@+@@@#@$@%@&@*@=@-@;@>@,@'@)@ +}.l+U j !@~@{@]@  ",
"^@/@*.Z.}.(@_@:@<@[@[@}@|@1@2@<@3@4@t+5@6@7@}.}.}.C+`+8@9@      ",
"0@a@i+T R.b@c@d@e@f@g@h@i@j@k@l@m@P+q+$@n@o@p@[.B+|.y Z+        ",
"  8@q@a@r@s@t@u@v@w@x@y@    z@A@B@C@D@E@F@G@r@:.S x             ",
"    H@Z+I@J@K@J@x L@                                            ",
"      M@N@O@P@q@                                                "};
