/* XPM */
static const char * unlock_xpm[] = {
"22 22 212 2",
"  	c None",
". 	c #9797AF",
"+ 	c #9E9EB5",
"@ 	c #ABABBF",
"# 	c #ADADC0",
"$ 	c #A4A4BA",
"% 	c #9A9AB2",
"& 	c #A1A1B7",
"* 	c #CACAD6",
"= 	c #E3E3E9",
"- 	c #EAEAEF",
"; 	c #EBEBEF",
"> 	c #E6E6EC",
", 	c #D3D3DC",
"' 	c #A9A9BC",
") 	c #D7D7E0",
"! 	c #F0F0F3",
"~ 	c #F1F1F2",
"{ 	c #ECECEE",
"] 	c #E9E9EB",
"^ 	c #EBEBEC",
"/ 	c #EFEFF0",
"( 	c #E0E0E7",
"_ 	c #8E8EA7",
": 	c #D4D4DE",
"< 	c #F1F1F3",
"[ 	c #E5E5E8",
"} 	c #BFBFCB",
"| 	c #AAAABB",
"1 	c #A6A6B8",
"2 	c #AEAEBD",
"3 	c #CECED3",
"4 	c #DEDEE4",
"5 	c #9999AF",
"6 	c #9090A6",
"7 	c #C4C4CA",
"8 	c #E8E8EA",
"9 	c #B8B8C6",
"0 	c #9898A9",
"a 	c #D2D2D6",
"b 	c #D2D2D9",
"c 	c #8A8AA3",
"d 	c #838399",
"e 	c #BFBFC4",
"f 	c #DDDDE0",
"g 	c #8989A1",
"h 	c #7B7B92",
"i 	c #B8B8BD",
"j 	c #DBDBDD",
"k 	c #84849C",
"l 	c #78778C",
"m 	c #B5B4B7",
"n 	c #D5D4D4",
"o 	c #7F7E94",
"p 	c #948172",
"q 	c #BDAD96",
"r 	c #D4C2A9",
"s 	c #998476",
"t 	c #D79B39",
"u 	c #D4A54C",
"v 	c #DEB45C",
"w 	c #DFB55D",
"x 	c #D5AA54",
"y 	c #DEAE4A",
"z 	c #E2B147",
"A 	c #E1B048",
"B 	c #D4A950",
"C 	c #DBB159",
"D 	c #DFB55C",
"E 	c #D5A84F",
"F 	c #D79E3B",
"G 	c #D2902D",
"H 	c #C48831",
"I 	c #EBCF6A",
"J 	c #F8E868",
"K 	c #F9E959",
"L 	c #F9E953",
"M 	c #F9E952",
"N 	c #F9E852",
"O 	c #F2D755",
"P 	c #CC9435",
"Q 	c #B47C2E",
"R 	c #EED858",
"S 	c #FFF14B",
"T 	c #FFF041",
"U 	c #FFF03F",
"V 	c #FFE93B",
"W 	c #F9C730",
"X 	c #BF842A",
"Y 	c #A26D2B",
"Z 	c #EACD46",
"` 	c #FFE63A",
" .	c #FFE534",
"..	c #FFE031",
"+.	c #FFC523",
"@.	c #F8AB19",
"#.	c #B07224",
"$.	c #915E2A",
"%.	c #E6C240",
"&.	c #FFDB34",
"*.	c #FFDA2F",
"=.	c #FFD92E",
"-.	c #FFD52B",
";.	c #FFBF20",
">.	c #FFAC16",
",.	c #F79F13",
"'.	c #A16422",
").	c #835328",
"!.	c #E3B83C",
"~.	c #FFD02F",
"{.	c #FFCF29",
"].	c #FFCE29",
"^.	c #FFCD28",
"/.	c #FFC624",
"(.	c #FFB71B",
"_.	c #FFAA14",
":.	c #FFA311",
"<.	c #F69910",
"[.	c #955A21",
"}.	c #7F4F28",
"|.	c #E3AF37",
"1.	c #FFC529",
"2.	c #FFC423",
"3.	c #FFC322",
"4.	c #FFC222",
"5.	c #FFC121",
"6.	c #FFBD1F",
"7.	c #FFAE16",
"8.	c #FFA612",
"9.	c #FFA110",
"0.	c #FF9D0E",
"a.	c #F6950E",
"b.	c #925621",
"c.	c #7F4E27",
"d.	c #E3A833",
"e.	c #FFBD24",
"f.	c #FFBE1F",
"g.	c #FFBC1E",
"h.	c #FFB81C",
"i.	c #FFB61B",
"j.	c #FFB31A",
"k.	c #FFB018",
"l.	c #FFA813",
"m.	c #FF9F0F",
"n.	c #FF9C0D",
"o.	c #FF980B",
"p.	c #F6900C",
"q.	c #925520",
"r.	c #7F4D27",
"s.	c #E3A431",
"t.	c #FFB91D",
"u.	c #FFB21A",
"v.	c #FFAF18",
"w.	c #FFAB16",
"x.	c #FFA814",
"y.	c #FFA412",
"z.	c #FF9A0C",
"A.	c #FF970B",
"B.	c #FF9309",
"C.	c #F68B09",
"D.	c #92541F",
"E.	c #7F4E28",
"F.	c #E1A734",
"G.	c #FFBC23",
"H.	c #FFB41A",
"I.	c #FFB119",
"J.	c #FFAD17",
"K.	c #FFAA15",
"L.	c #FFA613",
"M.	c #FF9C0E",
"N.	c #FF980C",
"O.	c #FF950A",
"P.	c #FF9208",
"Q.	c #FF8E06",
"R.	c #F48606",
"S.	c #92531F",
"T.	c #7D4C29",
"U.	c #CD983E",
"V.	c #F1AD25",
"W.	c #F5AB1B",
"X.	c #F5A819",
"Y.	c #F5A517",
"Z.	c #F5A115",
"`.	c #F59E14",
" +	c #F59B12",
".+	c #F59810",
"++	c #F5940F",
"@+	c #F5910D",
"#+	c #F58E0B",
"$+	c #F58B09",
"%+	c #F58707",
"&+	c #F38407",
"*+	c #DF780A",
"=+	c #8C5020",
"-+	c #774727",
";+	c #88572D",
">+	c #905B26",
",+	c #915B23",
"'+	c #915A23",
")+	c #915923",
"!+	c #915922",
"~+	c #915822",
"{+	c #915722",
"]+	c #915721",
"^+	c #915621",
"/+	c #915520",
"(+	c #915420",
"_+	c #91541F",
":+	c #91531F",
"<+	c #90521F",
"[+	c #8C4F20",
"}+	c #7B4724",
"                . + @ # $ %                 ",
"              & * = - ; > , '               ",
"            & ) ! ~ { ] ^ / ( #             ",
"          _ : < [ } | 1 2 3 ^ 4 5           ",
"                          6 7 8 9           ",
"                            0 a b c         ",
"                            d e f g         ",
"                            h i j k         ",
"                            l m n o         ",
"                            p q r s         ",
"      t u v w x y z z z z A B C D E F G     ",
"    H I J K L M M M M M M M M M M N O P     ",
"    Q R S T U U U U U U U U U U U V W X     ",
"    Y Z `  . . . . . . . . . . ...+.@.#.    ",
"    $.%.&.*.*.*.*.*.*.*.*.*.=.-.;.>.,.'.    ",
"    ).!.~.{.{.{.{.{.{.].].^./.(._.:.<.[.    ",
"    }.|.1.2.2.2.3.4.5.5.6.(.7.8.9.0.a.b.    ",
"    c.d.e.f.f.g.h.i.j.k.>.l.:.m.n.o.p.q.    ",
"    r.s.e.g.t.i.u.v.w.x.y.9.0.z.A.B.C.D.    ",
"    E.F.G.h.H.I.J.K.L.:.m.M.N.O.P.Q.R.S.    ",
"    T.U.V.W.X.Y.Z.`. +.+++@+#+$+%+&+*+=+    ",
"    -+;+>+,+'+)+!+~+{+]+^+/+(+_+:+<+[+}+    "};
